M48
; DRILL file {KiCad 8.0.4+1} date 2024-10-07T14:01:40+0000
; FORMAT={-:-/ absolute / metric / decimal}
; #@! TF.CreationDate,2024-10-07T14:01:40+00:00
; #@! TF.GenerationSoftware,Kicad,Pcbnew,8.0.4+1
; #@! TF.FileFunction,Plated,1,4,PTH
FMAT,2
METRIC
; #@! TA.AperFunction,Plated,PTH,ViaDrill
T1C0.300
; #@! TA.AperFunction,Plated,PTH,ComponentDrill
T2C0.300
; #@! TA.AperFunction,Plated,PTH,ComponentDrill
T3C0.600
; #@! TA.AperFunction,Plated,PTH,ComponentDrill
T4C0.750
; #@! TA.AperFunction,Plated,PTH,ComponentDrill
T5C0.890
; #@! TA.AperFunction,Plated,PTH,ComponentDrill
T6C0.920
; #@! TA.AperFunction,Plated,PTH,ComponentDrill
T7C0.950
; #@! TA.AperFunction,Plated,PTH,ComponentDrill
T8C1.000
; #@! TA.AperFunction,Plated,PTH,ComponentDrill
T9C1.016
; #@! TA.AperFunction,Plated,PTH,ComponentDrill
T10C1.020
; #@! TA.AperFunction,Plated,PTH,ComponentDrill
T11C1.350
; #@! TA.AperFunction,Plated,PTH,ComponentDrill
T12C1.400
; #@! TA.AperFunction,Plated,PTH,ComponentDrill
T13C1.630
; #@! TA.AperFunction,Plated,PTH,ComponentDrill
T14C2.300
; #@! TA.AperFunction,Plated,PTH,ComponentDrill
T15C4.500
; #@! TA.AperFunction,Plated,PTH,ComponentDrill
T16C5.000
%
G90
G05
T1
X24.0Y-162.5
X24.75Y-145.0
X25.424Y-125.999
X29.04Y-37.15
X29.69Y-88.97
X30.65Y-104.55
X31.55Y-47.71
X34.5Y-176.5
X36.11Y-54.28
X41.64Y-59.25
X41.86Y-104.65
X42.76Y-111.69
X45.6Y-134.4
X48.85Y-89.07
X49.0Y-123.5
X49.099Y-132.699
X49.4Y-159.4
X49.701Y-133.301
X50.25Y-164.25
X50.75Y-167.0
X51.0Y-118.5
X51.0Y-119.5
X51.0Y-120.5
X51.0Y-122.5
X51.0Y-123.75
X51.003Y-121.488
X51.5Y-165.75
X51.8Y-126.825
X51.8Y-127.675
X52.0Y-118.5
X52.0Y-119.5
X52.0Y-121.5
X52.0Y-122.5
X52.0Y-123.75
X52.052Y-120.487
X52.4Y-136.575
X52.4Y-137.425
X52.5Y-126.425
X53.0Y-118.5
X53.0Y-119.5
X53.0Y-120.5
X53.0Y-121.5
X53.0Y-122.5
X53.0Y-123.75
X53.0Y-164.5
X53.025Y-162.475
X53.4Y-146.3
X53.625Y-161.2
X54.099Y-141.349
X55.54Y-33.13
X56.44Y-102.49
X57.75Y-133.25
X57.8Y-160.55
X57.93Y-58.42
X58.0Y-130.25
X58.0Y-138.175
X58.0Y-181.5
X58.25Y-178.25
X58.451Y-129.563
X58.5Y-136.35
X58.5Y-171.75
X58.5Y-173.75
X58.5Y-175.5
X58.7Y-146.1
X58.75Y-108.25
X58.842Y-163.125
X59.0Y-130.6
X59.0Y-149.8
X59.0Y-151.0
X59.2Y-144.6
X59.2Y-174.225
X59.2Y-175.075
X59.5Y-142.6
X59.5Y-178.0
X59.587Y-125.325
X59.587Y-126.175
X59.7Y-135.7
X59.8Y-131.925
X59.8Y-132.775
X59.9Y-170.9
X60.047Y-170.072
X60.1Y-148.8
X60.2Y-151.0
X60.3Y-172.425
X60.3Y-173.275
X60.4Y-143.3
X60.5Y-118.25
X60.5Y-119.25
X60.5Y-120.25
X60.5Y-121.25
X60.5Y-127.75
X60.55Y-168.3
X60.65Y-169.275
X60.75Y-131.0
X60.75Y-135.5
X60.8Y-136.6
X60.8Y-137.8
X60.8Y-148.1
X61.325Y-167.625
X62.43Y-28.79
X63.55Y-58.33
X64.0Y-183.0
X65.8Y-37.32
X66.0Y-137.5
X66.0Y-139.0
X66.25Y-119.75
X66.25Y-120.75
X66.25Y-121.75
X66.25Y-122.75
X66.25Y-123.75
X66.25Y-178.5
X66.5Y-126.25
X66.5Y-134.0
X66.5Y-142.4
X66.5Y-151.0
X66.5Y-171.5
X66.5Y-173.75
X66.54Y-61.21
X66.6Y-165.1
X66.75Y-129.25
X66.75Y-155.75
X66.75Y-176.75
X67.0Y-127.125
X67.0Y-127.975
X67.0Y-130.125
X67.0Y-130.975
X67.0Y-132.5
X67.0Y-134.925
X67.0Y-135.775
X67.25Y-120.25
X67.25Y-121.25
X67.25Y-122.25
X67.25Y-123.25
X67.4Y-148.85
X67.5Y-145.9
X67.701Y-150.2
X68.0Y-154.75
X68.0Y-176.0
X68.25Y-169.25
X68.75Y-149.0
X68.8Y-167.2
X68.9Y-144.9
X70.3Y-136.4
X70.5Y-144.25
X70.6Y-167.7
X71.0Y-166.0
X71.55Y-91.78
X71.75Y-104.65
X72.0Y-143.25
X72.28Y-40.38
X72.75Y-176.5
X73.4Y-133.0
X73.483Y-165.75
X74.1Y-133.9
X76.25Y-166.25
X76.5Y-128.75
X82.0Y-113.4
X83.3Y-178.3
X85.2Y-118.4
X86.1Y-117.7
X86.33Y-106.61
X86.38Y-89.27
X87.0Y-135.0
X87.01Y-40.28
X87.3Y-177.5
X88.0Y-131.5
X88.0Y-167.25
X88.25Y-153.0
X90.0Y-128.75
X91.7Y-155.6
X93.5Y-117.75
X93.6Y-156.0
X94.0Y-152.5
X94.5Y-154.5
X94.6Y-166.1
X94.75Y-144.0
X96.29Y-110.54
X97.49Y-104.25
X99.8Y-112.6
X101.5Y-122.0
X101.8Y-155.0
X101.8Y-186.0
X102.0Y-143.5
X106.25Y-173.75
X106.5Y-112.85
X106.5Y-143.25
X106.6Y-147.3
X106.7Y-148.8
X107.875Y-136.425
X114.13Y-104.0
X114.54Y-97.87
X115.23Y-40.33
X116.75Y-129.25
X117.85Y-45.6
X118.25Y-124.25
X118.75Y-133.0
X123.0Y-152.75
X123.84Y-102.69
X126.5Y-112.85
X127.4Y-158.6
X128.0Y-164.0
X128.16Y-89.52
X128.3Y-144.2
X129.6Y-153.9
X129.93Y-40.19
X131.0Y-136.0
X131.9Y-155.1
X132.0Y-152.0
X132.5Y-148.0
X132.9Y-125.2
X133.3Y-146.6
X133.6Y-157.5
X133.7Y-122.6
X133.8Y-125.7
X135.75Y-113.5
X136.25Y-90.25
X136.6Y-120.0
X137.2Y-152.0
X137.25Y-174.25
X137.5Y-144.1
X137.5Y-166.9
X137.6Y-155.2
X139.25Y-169.5
X142.75Y-165.25
X143.0Y-139.75
X144.75Y-154.5
X145.0Y-91.75
X145.0Y-93.8
X145.0Y-95.0
X145.0Y-101.5
X145.0Y-100.0
X146.0Y-102.5
X146.25Y-143.75
X146.61Y-95.94
X147.375Y-63.025
X147.85Y-71.35
X147.85Y-76.35
X148.85Y-71.35
X148.85Y-76.35
X148.99Y-40.58
X149.0Y-85.8
X149.4Y-87.6
X149.6Y-90.0
X149.85Y-71.35
X149.85Y-76.35
X150.0Y-64.5
X150.05Y-65.825
X150.05Y-66.675
X150.05Y-67.575
X150.8Y-93.0
X151.0Y-58.75
X151.0Y-68.0
X151.25Y-166.25
X151.3Y-169.675
X153.0Y-91.75
X153.4Y-93.0
X153.5Y-153.25
X154.8Y-57.0
X155.0Y-85.8
X155.6Y-79.6
X155.6Y-80.6
X155.6Y-81.6
X156.0Y-85.8
X156.6Y-79.6
X156.6Y-80.6
X156.6Y-81.6
X157.0Y-85.8
X157.5Y-102.0
X157.5Y-103.0
X157.5Y-104.0
X157.5Y-105.0
X157.6Y-79.6
X157.6Y-80.6
X157.6Y-81.6
X157.6Y-88.2
X157.6Y-89.2
X157.6Y-90.2
X157.75Y-93.0
X158.0Y-85.8
X158.3Y-138.2
X158.4Y-59.6
X158.5Y-102.0
X158.5Y-103.0
X158.5Y-104.0
X158.5Y-105.0
X158.6Y-79.6
X158.6Y-80.6
X158.6Y-81.6
X158.75Y-93.0
X159.5Y-102.0
X159.5Y-103.0
X159.5Y-104.0
X159.5Y-105.0
X159.6Y-79.6
X159.6Y-80.6
X159.6Y-81.6
X159.75Y-93.0
X160.5Y-102.0
X160.5Y-103.0
X160.5Y-104.0
X160.5Y-105.0
X160.75Y-93.0
X160.9Y-119.9
X161.5Y-102.0
X161.5Y-103.0
X161.75Y-93.0
X161.8Y-88.2
X161.8Y-89.2
X161.8Y-90.2
X161.8Y-139.8
X162.25Y-153.977
X162.4Y-78.4
X162.4Y-141.2
X162.475Y-106.75
X162.6Y-68.8
X162.6Y-70.2
X163.9Y-141.0
X164.0Y-142.7
X164.75Y-174.5
X164.8Y-143.8
X165.3Y-145.1
X165.6Y-59.4
X166.2Y-146.5
X166.3Y-148.1
X166.675Y-169.725
X167.0Y-58.2
X167.0Y-61.4
X167.7Y-148.4
X168.2Y-152.4
X168.3Y-153.9
X170.2Y-155.9
X170.7Y-157.0
X171.9Y-157.3
X172.0Y-112.25
X173.0Y-92.0
X173.0Y-94.0
X173.0Y-95.0
X173.0Y-96.0
X173.0Y-97.0
X173.0Y-98.0
X173.0Y-99.0
X173.0Y-100.0
X173.0Y-101.0
X173.0Y-102.0
X173.0Y-103.0
X173.1Y-157.5
X173.25Y-116.0
X173.6Y-78.4
X174.0Y-92.0
X174.0Y-94.0
X174.0Y-95.0
X174.0Y-96.0
X174.0Y-97.0
X174.0Y-98.0
X174.0Y-179.75
X174.4Y-77.6
X175.0Y-92.0
X175.05Y-107.43
X176.0Y-92.0
X176.8Y-72.4
X176.8Y-73.6
X177.0Y-87.025
X177.0Y-89.975
X177.0Y-90.975
X177.0Y-92.0
X178.0Y-87.025
X178.0Y-89.975
X178.0Y-90.975
X179.025Y-167.675
X179.75Y-100.75
X179.75Y-102.25
X179.75Y-103.75
X180.3Y-179.15
X180.75Y-91.625
X180.8Y-87.95
X180.8Y-88.925
X181.25Y-99.0
X181.25Y-100.75
X181.25Y-102.25
X181.25Y-103.75
X181.25Y-144.0
X181.5Y-183.1
X182.2Y-83.4
X183.2Y-81.2
X183.6Y-86.4
X183.8Y-111.0
X184.0Y-70.2
X184.0Y-71.2
X184.0Y-72.2
X184.0Y-73.2
X184.75Y-156.75
X185.0Y-70.2
X185.0Y-71.2
X185.0Y-72.2
X185.0Y-73.2
X185.0Y-74.2
X185.4Y-139.5
X185.6Y-53.5
X185.8Y-85.2
X186.0Y-170.75
X186.6Y-67.4
X187.0Y-80.0
X187.2Y-78.2
X187.4Y-74.4
X187.5Y-180.0
X187.6Y-71.5
X187.8Y-70.2
X188.2Y-77.75
X188.48Y-32.85
X189.04Y-22.35
X189.4Y-81.6
X189.6Y-74.4
X189.6Y-79.2
X189.6Y-84.4
X190.2Y-67.6
X190.45Y-143.6
X190.575Y-69.3
X190.6Y-81.6
X190.8Y-73.2
X191.6Y-66.75
X191.8Y-65.0
X191.8Y-81.6
X191.975Y-91.575
X192.0Y-102.0
X192.35Y-152.0
X192.6Y-72.0
X192.6Y-73.0
X192.7Y-53.6
X192.75Y-62.0
X192.75Y-170.25
X192.9Y-54.8
X193.0Y-68.0
X193.4Y-55.8
X193.4Y-60.2
X193.4Y-81.2
X193.75Y-117.0
X193.9Y-58.1
X194.213Y-57.177
X194.5Y-68.0
X194.5Y-151.5
X194.75Y-128.5
X194.8Y-81.0
X194.849Y-102.851
X195.0Y-58.5
X195.0Y-100.0
X195.025Y-94.925
X195.17Y-114.0
X195.25Y-121.5
X195.4Y-88.2
X195.451Y-102.249
X195.525Y-149.5
X195.625Y-142.9
X195.75Y-119.5
X196.0Y-116.5
X196.2Y-87.4
X196.2Y-105.1
X196.33Y-53.76
X196.475Y-80.425
X196.65Y-94.825
X196.755Y-78.17
X197.18Y-56.41
X197.4Y-87.4
X197.6Y-74.6
X197.6Y-75.6
X197.75Y-61.5
X198.0Y-68.6
X198.25Y-80.9
X198.4Y-67.3
X199.625Y-79.3
T2
X141.0Y-121.7
X141.0Y-122.9
X141.0Y-124.2
X141.0Y-125.3
X142.2Y-121.7
X142.2Y-122.9
X142.2Y-124.2
X142.2Y-125.3
X151.29Y-102.0
X151.86Y-101.35
X151.86Y-102.65
X152.43Y-102.0
X153.0Y-101.35
X153.0Y-102.65
X153.57Y-102.0
X154.14Y-101.35
X154.14Y-102.65
X154.71Y-102.0
X191.6Y-75.84
X191.6Y-77.0
X191.6Y-78.16
X192.535Y-74.95
X192.535Y-75.84
X192.535Y-77.0
X192.535Y-78.16
X192.535Y-79.05
X193.765Y-74.95
X193.765Y-75.84
X193.765Y-77.0
X193.765Y-78.16
X193.765Y-79.05
X194.7Y-75.84
X194.7Y-77.0
X194.7Y-78.16
T3
X23.4Y-29.065
X23.4Y-181.565
X24.498Y-26.413
X24.498Y-31.717
X24.498Y-178.913
X24.498Y-184.217
X27.15Y-25.315
X27.15Y-32.815
X27.15Y-177.815
X27.15Y-185.315
X29.802Y-26.413
X29.802Y-31.717
X29.802Y-178.913
X29.802Y-184.217
X30.9Y-29.065
X30.9Y-181.565
X190.4Y-29.065
X190.4Y-181.565
X191.498Y-26.413
X191.498Y-31.717
X191.498Y-178.913
X191.498Y-184.217
X194.15Y-25.315
X194.15Y-32.815
X194.15Y-177.815
X194.15Y-185.315
X196.802Y-26.413
X196.802Y-31.717
X196.802Y-178.913
X196.802Y-184.217
X197.9Y-29.065
X197.9Y-181.565
T4
X38.846Y-35.26
X40.846Y-35.26
X42.846Y-35.26
X44.846Y-35.26
X46.846Y-35.26
X189.75Y-57.6
X189.75Y-59.6
X189.75Y-61.6
X189.75Y-63.6
T5
X37.95Y-121.815
X37.95Y-124.355
X37.95Y-126.895
X37.95Y-129.435
X37.95Y-131.975
X37.95Y-140.815
X37.95Y-143.355
X37.95Y-145.895
X37.95Y-148.435
X37.95Y-150.975
X37.95Y-159.815
X37.95Y-162.355
X37.95Y-164.895
X37.95Y-167.435
X37.95Y-169.975
X40.49Y-120.535
X40.49Y-123.075
X40.49Y-125.615
X40.49Y-128.155
X40.49Y-130.695
X40.49Y-139.535
X40.49Y-142.075
X40.49Y-144.615
X40.49Y-147.155
X40.49Y-149.695
X40.49Y-158.535
X40.49Y-161.075
X40.49Y-163.615
X40.49Y-166.155
X40.49Y-168.695
T6
X185.82Y-99.5
X185.82Y-102.0
X185.82Y-104.0
X185.82Y-106.5
X188.44Y-99.5
X188.44Y-102.0
X188.44Y-104.0
X188.44Y-106.5
T7
X37.7Y-25.8
X40.2Y-25.8
X42.7Y-25.8
X45.2Y-25.8
X47.7Y-25.8
X159.025Y-23.465
X159.025Y-31.432
X159.025Y-39.4
X159.025Y-47.367
X159.025Y-55.335
X161.525Y-23.465
X161.525Y-31.432
X161.525Y-39.4
X161.525Y-47.367
X161.525Y-55.335
X164.025Y-23.465
X164.025Y-31.432
X164.025Y-39.4
X164.025Y-47.367
X164.025Y-55.335
X166.525Y-23.465
X166.525Y-31.432
X166.525Y-39.4
X166.525Y-47.367
X166.525Y-55.335
X173.6Y-23.5
X173.6Y-26.0
X173.6Y-28.5
X173.6Y-35.033
X173.6Y-37.533
X173.6Y-40.033
X173.6Y-46.567
X173.6Y-49.067
X173.6Y-51.567
X173.6Y-58.1
X173.6Y-60.6
X173.6Y-63.1
X181.55Y-23.5
X181.55Y-26.0
X181.55Y-28.5
X181.55Y-35.033
X181.55Y-37.533
X181.55Y-40.033
X181.55Y-46.533
X181.55Y-49.033
X181.55Y-51.533
X181.55Y-58.1
X181.55Y-60.6
X181.55Y-63.1
X189.4Y-37.975
X191.9Y-37.975
X194.4Y-37.975
X196.9Y-37.975
T8
X24.1Y-64.78
X24.1Y-67.32
X24.1Y-69.86
X24.1Y-72.4
X24.1Y-74.94
X24.1Y-77.48
X24.1Y-90.18
X24.1Y-92.72
X24.1Y-95.26
X24.1Y-97.8
X24.1Y-100.34
X24.1Y-102.88
X24.1Y-105.42
X24.1Y-107.96
X24.1Y-110.5
X26.64Y-110.5
X27.91Y-64.78
X27.91Y-67.32
X29.18Y-110.5
X30.45Y-64.78
X30.45Y-67.32
X31.72Y-110.5
X34.26Y-110.5
X34.5Y-182.925
X34.5Y-185.465
X35.53Y-64.78
X35.53Y-67.32
X36.8Y-110.5
X37.04Y-182.925
X37.04Y-185.465
X38.07Y-64.78
X38.07Y-67.32
X39.58Y-182.925
X39.58Y-185.465
X42.12Y-182.925
X42.12Y-185.465
X43.15Y-64.78
X43.15Y-67.32
X44.66Y-182.925
X44.66Y-185.465
X45.69Y-64.78
X45.69Y-67.32
X47.195Y-178.875
X47.2Y-185.465
X47.2Y-182.925
X49.5Y-64.78
X49.5Y-67.32
X49.5Y-69.86
X49.5Y-72.4
X49.5Y-74.94
X49.5Y-77.48
X49.5Y-100.34
X49.5Y-102.88
X49.5Y-105.42
X49.5Y-107.96
X49.5Y-110.5
X49.735Y-178.875
X49.74Y-182.925
X49.74Y-185.465
X52.275Y-178.875
X52.28Y-182.925
X52.28Y-185.465
X57.5Y-65.368
X57.5Y-70.368
X57.5Y-77.368
X57.5Y-82.368
X57.5Y-89.382
X57.5Y-94.382
X65.585Y-64.78
X65.585Y-67.32
X65.585Y-69.86
X65.585Y-72.4
X65.585Y-74.94
X65.585Y-77.48
X65.585Y-90.18
X65.585Y-92.72
X65.585Y-95.26
X65.585Y-97.8
X65.585Y-100.34
X65.585Y-102.88
X65.585Y-105.42
X65.585Y-107.96
X65.585Y-110.5
X68.125Y-110.5
X69.395Y-64.78
X69.395Y-67.32
X70.665Y-110.5
X71.935Y-64.78
X71.935Y-67.32
X73.205Y-110.5
X75.745Y-110.5
X76.125Y-143.2
X76.125Y-145.74
X76.125Y-148.28
X76.125Y-150.82
X77.015Y-64.78
X77.015Y-67.32
X78.285Y-110.5
X78.665Y-143.2
X78.665Y-145.74
X78.665Y-148.28
X78.665Y-150.82
X79.555Y-64.78
X79.555Y-67.32
X84.635Y-64.78
X84.635Y-67.32
X87.175Y-64.78
X87.175Y-67.32
X90.985Y-64.78
X90.985Y-67.32
X90.985Y-69.86
X90.985Y-72.4
X90.985Y-74.94
X90.985Y-77.48
X90.985Y-100.34
X90.985Y-102.88
X90.985Y-105.42
X90.985Y-107.96
X90.985Y-110.5
X92.975Y-186.672
X95.515Y-186.672
X99.0Y-65.368
X99.0Y-70.368
X99.0Y-77.368
X99.0Y-82.368
X99.0Y-89.382
X99.0Y-94.382
X107.0Y-64.78
X107.0Y-67.32
X107.0Y-69.86
X107.0Y-72.4
X107.0Y-74.94
X107.0Y-77.48
X107.0Y-90.18
X107.0Y-92.72
X107.0Y-95.26
X107.0Y-97.8
X107.0Y-100.34
X107.0Y-102.88
X107.0Y-105.42
X107.0Y-107.96
X107.0Y-110.5
X109.54Y-110.5
X110.81Y-64.78
X110.81Y-67.32
X112.08Y-110.5
X113.35Y-64.78
X113.35Y-67.32
X114.62Y-110.5
X117.16Y-110.5
X118.43Y-64.78
X118.43Y-67.32
X119.7Y-110.5
X120.97Y-64.78
X120.97Y-67.32
X124.535Y-115.84
X126.05Y-64.78
X126.05Y-67.32
X127.075Y-115.84
X128.59Y-64.78
X128.59Y-67.32
X132.4Y-64.78
X132.4Y-67.32
X132.4Y-69.86
X132.4Y-72.4
X132.4Y-74.94
X132.4Y-77.48
X132.4Y-100.34
X132.4Y-102.88
X132.4Y-105.42
X132.4Y-107.96
X132.4Y-110.5
X147.6Y-74.1
X152.6Y-74.1
X160.0Y-85.482
X160.0Y-90.482
X174.3Y-85.482
X174.3Y-90.482
X174.36Y-185.45
X176.9Y-185.45
X177.512Y-134.707
X177.513Y-132.167
X179.44Y-185.45
X180.052Y-132.167
X180.052Y-134.707
X181.98Y-185.45
X182.593Y-132.167
X182.593Y-134.707
X184.52Y-185.45
X184.86Y-90.4
X185.132Y-132.167
X185.132Y-134.707
X187.4Y-90.4
X187.672Y-132.167
X187.672Y-134.707
X190.212Y-132.167
X190.212Y-134.707
X190.3Y-46.6
X190.3Y-49.1
X197.6Y-46.6
X197.6Y-49.1
T9
X126.078Y-132.757
X126.078Y-181.017
X128.618Y-132.757
X128.618Y-181.017
X131.157Y-132.757
X131.157Y-181.017
X133.697Y-132.757
X133.698Y-181.017
X136.237Y-132.757
X136.237Y-181.017
X138.778Y-132.757
X138.778Y-181.017
X141.317Y-181.017
X143.857Y-181.017
X143.857Y-132.757
X146.397Y-132.757
X147.921Y-181.017
X148.938Y-132.757
X150.462Y-181.017
X151.477Y-132.757
X153.001Y-181.017
X154.017Y-132.757
X155.541Y-181.017
X156.558Y-132.757
X158.082Y-181.017
X159.097Y-132.757
X160.622Y-181.017
X161.637Y-132.757
X163.161Y-181.017
X165.701Y-181.017
X168.242Y-181.017
X170.781Y-181.017
T10
X26.7Y-119.63
X26.7Y-122.17
X26.7Y-130.34
X26.7Y-132.88
X26.7Y-138.63
X26.7Y-141.17
X26.7Y-149.34
X26.7Y-151.88
X26.7Y-157.63
X26.7Y-160.17
X26.7Y-168.34
X26.7Y-170.88
X126.1Y-120.26
X126.1Y-122.8
X126.1Y-125.34
X126.1Y-127.88
T11
X124.325Y-45.415
X124.325Y-54.765
X129.325Y-45.415
X129.325Y-54.765
X139.325Y-45.415
X139.325Y-54.765
X144.325Y-45.415
X144.325Y-54.765
T12
X98.45Y-44.25
X98.45Y-49.75
X102.65Y-44.25
X102.65Y-49.75
X106.85Y-44.25
X106.85Y-49.75
X111.05Y-44.25
X111.05Y-49.75
X152.25Y-44.315
X152.25Y-49.815
T13
X34.65Y-118.51
X34.65Y-134.0
X34.65Y-137.51
X34.65Y-153.0
X34.65Y-156.51
X34.65Y-172.0
T14
X185.47Y-96.43
X185.47Y-109.57
X191.15Y-96.43
X191.15Y-109.57
T15
X179.3Y-122.5
X186.5Y-122.5
T16
X27.15Y-29.065
X27.15Y-181.565
X194.15Y-29.065
X194.15Y-181.565
T12
X48.7Y-44.225G85X48.7Y-44.925
G05
X48.7Y-49.075G85X48.7Y-49.775
G05
X52.9Y-44.225G85X52.9Y-44.925
G05
X52.9Y-49.075G85X52.9Y-49.775
G05
X57.1Y-44.225G85X57.1Y-44.925
G05
X57.1Y-49.075G85X57.1Y-49.775
G05
X61.3Y-44.225G85X61.3Y-44.925
G05
X61.3Y-49.075G85X61.3Y-49.775
G05
X65.5Y-44.225G85X65.5Y-44.925
G05
X65.5Y-49.075G85X65.5Y-49.775
G05
X69.7Y-44.225G85X69.7Y-44.925
G05
X69.7Y-49.075G85X69.7Y-49.775
G05
X73.9Y-44.225G85X73.9Y-44.925
G05
X73.9Y-49.075G85X73.9Y-49.775
G05
X78.1Y-44.225G85X78.1Y-44.925
G05
X78.1Y-49.075G85X78.1Y-49.775
G05
X82.3Y-44.225G85X82.3Y-44.925
G05
X82.3Y-49.075G85X82.3Y-49.775
G05
X86.5Y-44.225G85X86.5Y-44.925
G05
X86.5Y-49.075G85X86.5Y-49.775
G05
X90.7Y-44.225G85X90.7Y-44.925
G05
X90.7Y-49.075G85X90.7Y-49.775
G05
M30
