M48
; DRILL file {KiCad 9.0.7+1} date 2026-07-10T17:56:31+0000
; FORMAT={-:-/ absolute / metric / decimal}
; #@! TF.CreationDate,2026-07-10T17:56:31+00:00
; #@! TF.GenerationSoftware,Kicad,Pcbnew,9.0.7+1
; #@! TF.FileFunction,Plated,1,4,PTH
FMAT,2
METRIC
; #@! TA.AperFunction,Plated,PTH,ViaDrill
T1C0.200
; #@! TA.AperFunction,Plated,PTH,ViaDrill
T2C0.300
; #@! TA.AperFunction,Plated,PTH,ComponentDrill
T3C0.300
; #@! TA.AperFunction,Plated,PTH,ComponentDrill
T4C0.600
; #@! TA.AperFunction,Plated,PTH,ComponentDrill
T5C0.700
; #@! TA.AperFunction,Plated,PTH,ComponentDrill
T6C0.750
; #@! TA.AperFunction,Plated,PTH,ComponentDrill
T7C0.800
; #@! TA.AperFunction,Plated,PTH,ComponentDrill
T8C0.890
; #@! TA.AperFunction,Plated,PTH,ComponentDrill
T9C0.900
; #@! TA.AperFunction,Plated,PTH,ComponentDrill
T10C0.950
; #@! TA.AperFunction,Plated,PTH,ComponentDrill
T11C1.000
; #@! TA.AperFunction,Plated,PTH,ComponentDrill
T12C1.016
; #@! TA.AperFunction,Plated,PTH,ComponentDrill
T13C1.020
; #@! TA.AperFunction,Plated,PTH,ComponentDrill
T14C1.100
; #@! TA.AperFunction,Plated,PTH,ComponentDrill
T15C1.400
; #@! TA.AperFunction,Plated,PTH,ComponentDrill
T16C1.630
; #@! TA.AperFunction,Plated,PTH,ComponentDrill
T17C2.500
; #@! TA.AperFunction,Plated,PTH,ComponentDrill
T18C4.500
; #@! TA.AperFunction,Plated,PTH,ComponentDrill
T19C5.000
; #@! TA.AperFunction,Plated,PTH,ComponentDrill
T20C7.000
%
G90
G05
T1
X196.7Y-76.775
X196.7Y-77.65
X196.7Y-78.55
T2
X22.0Y-155.5
X22.3Y-164.9
X23.85Y-165.1
X23.9Y-159.8
X24.75Y-145.0
X24.9Y-160.8
X25.424Y-125.999
X26.6Y-155.5
X27.75Y-162.15
X27.75Y-162.75
X28.35Y-162.15
X28.35Y-162.75
X29.04Y-37.15
X29.69Y-88.97
X30.65Y-104.55
X31.0Y-161.9
X31.55Y-47.71
X32.95Y-63.9
X33.75Y-157.95
X34.2Y-90.6
X34.85Y-159.5
X36.75Y-164.25
X36.8Y-88.6
X36.8Y-92.6
X37.5Y-177.3
X38.15Y-157.4
X39.4Y-90.6
X39.4Y-162.2
X40.05Y-164.6
X40.55Y-55.65
X40.6Y-63.9
X41.86Y-104.65
X42.76Y-111.69
X43.0Y-128.8
X44.1Y-122.45
X44.1Y-123.7
X44.15Y-147.25
X45.6Y-134.4
X45.9Y-169.6
X47.0Y-168.6
X47.2Y-180.9
X47.2Y-187.2
X47.9Y-176.5
X48.85Y-89.07
X49.0Y-123.5
X49.099Y-132.699
X49.2Y-154.6
X49.2Y-156.1
X49.701Y-133.301
X50.15Y-171.5
X50.25Y-164.25
X50.25Y-166.8
X50.7Y-155.4
X51.0Y-118.5
X51.0Y-119.5
X51.0Y-120.5
X51.0Y-122.5
X51.0Y-123.75
X51.003Y-121.488
X51.538Y-167.838
X51.6Y-166.05
X51.625Y-165.075
X51.8Y-126.825
X51.8Y-127.675
X51.8Y-180.9
X52.0Y-118.5
X52.0Y-119.5
X52.0Y-121.5
X52.0Y-122.5
X52.0Y-123.75
X52.052Y-120.487
X52.1Y-139.5
X52.25Y-150.85
X52.5Y-54.35
X52.5Y-126.425
X53.0Y-118.5
X53.0Y-119.5
X53.0Y-120.5
X53.0Y-121.5
X53.0Y-122.5
X53.0Y-123.75
X53.0Y-164.5
X53.025Y-162.475
X53.15Y-136.85
X53.4Y-170.55
X53.625Y-161.2
X53.95Y-146.15
X55.54Y-33.13
X55.55Y-141.35
X56.44Y-102.49
X57.65Y-156.65
X57.65Y-157.5
X57.65Y-158.3
X57.65Y-159.15
X57.65Y-160.05
X57.65Y-160.95
X57.75Y-133.25
X57.75Y-135.5
X57.93Y-58.42
X58.0Y-130.25
X58.0Y-181.5
X58.25Y-178.25
X58.451Y-129.563
X58.5Y-164.7
X58.5Y-171.75
X58.5Y-173.75
X58.5Y-175.5
X58.7Y-146.1
X58.75Y-108.25
X59.0Y-130.6
X59.0Y-149.8
X59.0Y-151.0
X59.2Y-144.6
X59.2Y-174.225
X59.2Y-175.075
X59.5Y-142.6
X59.5Y-178.0
X59.587Y-125.325
X59.587Y-126.175
X59.8Y-131.925
X59.8Y-132.775
X60.2Y-151.0
X60.3Y-172.425
X60.3Y-173.275
X60.4Y-143.3
X60.5Y-118.25
X60.5Y-119.25
X60.5Y-120.25
X60.5Y-121.25
X60.5Y-127.75
X60.55Y-168.3
X60.65Y-169.275
X60.7Y-141.65
X60.75Y-131.0
X60.8Y-136.65
X61.0Y-170.95
X62.43Y-28.79
X63.55Y-58.33
X64.0Y-183.0
X65.5Y-165.1
X65.6Y-152.1
X65.6Y-152.9
X65.6Y-153.8
X65.8Y-37.32
X65.8Y-132.5
X66.0Y-137.5
X66.0Y-139.0
X66.2Y-166.4
X66.25Y-119.75
X66.25Y-120.75
X66.25Y-121.75
X66.25Y-122.75
X66.25Y-123.75
X66.25Y-178.5
X66.5Y-126.25
X66.5Y-142.4
X66.5Y-151.0
X66.5Y-171.5
X66.5Y-173.75
X66.54Y-61.21
X66.75Y-129.25
X66.75Y-155.75
X66.75Y-157.25
X66.75Y-176.75
X67.0Y-127.125
X67.0Y-127.975
X67.0Y-130.125
X67.0Y-130.975
X67.1Y-135.5
X67.25Y-120.25
X67.25Y-121.25
X67.25Y-122.25
X67.25Y-123.25
X67.4Y-148.85
X67.5Y-47.1
X67.5Y-145.9
X67.6Y-166.35
X67.701Y-150.2
X68.0Y-154.75
X68.0Y-176.0
X68.25Y-169.25
X68.75Y-149.0
X68.9Y-144.9
X68.95Y-165.75
X69.65Y-56.45
X70.3Y-136.4
X70.5Y-144.25
X70.8Y-154.75
X70.9Y-167.7
X71.15Y-128.2
X71.55Y-91.78
X71.75Y-104.65
X71.8Y-167.7
X71.85Y-151.0
X72.0Y-143.25
X72.28Y-40.38
X72.75Y-176.5
X73.4Y-133.0
X73.525Y-156.025
X74.1Y-133.9
X74.4Y-64.8
X74.4Y-155.4
X75.0Y-143.4
X75.65Y-56.4
X75.7Y-90.6
X76.1Y-47.05
X76.1Y-154.1
X76.5Y-128.75
X77.45Y-163.8
X77.45Y-165.1
X78.3Y-88.6
X78.3Y-92.6
X80.3Y-138.4
X80.35Y-119.0
X80.9Y-90.6
X80.9Y-154.1
X81.3Y-56.4
X81.5Y-144.55
X81.9Y-64.8
X82.0Y-113.4
X85.1Y-154.1
X85.2Y-118.4
X86.1Y-117.7
X86.33Y-106.61
X86.38Y-89.27
X87.0Y-135.0
X87.05Y-40.4
X87.7Y-129.4
X88.25Y-153.0
X89.0Y-144.0
X91.0Y-131.5
X92.75Y-151.45
X93.5Y-117.75
X93.65Y-58.15
X93.85Y-130.6
X94.45Y-138.3
X94.75Y-144.0
X94.85Y-141.95
X96.29Y-110.54
X96.55Y-142.0
X97.49Y-104.25
X97.5Y-163.75
X97.5Y-165.1
X99.8Y-112.6
X101.8Y-186.0
X102.0Y-143.5
X103.0Y-122.6
X106.25Y-173.75
X106.5Y-112.85
X106.5Y-143.25
X106.6Y-147.3
X106.7Y-148.8
X107.875Y-136.425
X108.15Y-126.0
X109.75Y-116.25
X109.8Y-120.45
X109.976Y-125.976
X112.65Y-155.55
X114.13Y-104.0
X114.54Y-97.87
X115.23Y-40.33
X116.4Y-151.9
X116.45Y-143.35
X116.75Y-129.25
X117.1Y-90.6
X117.85Y-45.6
X118.75Y-133.0
X119.7Y-88.6
X119.7Y-92.6
X120.3Y-148.0
X120.55Y-102.65
X120.65Y-166.15
X121.25Y-163.95
X122.3Y-90.6
X122.3Y-168.8
X122.35Y-174.65
X122.45Y-142.1
X122.45Y-153.45
X123.8Y-168.85
X123.84Y-102.69
X123.85Y-153.4
X123.9Y-140.75
X124.35Y-160.95
X124.35Y-163.9
X124.424Y-114.374
X124.55Y-146.85
X124.8Y-170.35
X124.9Y-154.55
X125.05Y-157.4
X125.15Y-160.3
X125.2Y-112.75
X125.2Y-142.8
X126.05Y-88.2
X126.075Y-113.825
X126.35Y-149.55
X126.55Y-164.05
X126.692Y-174.607
X126.95Y-88.2
X127.3Y-146.95
X127.35Y-158.0
X127.75Y-155.1
X128.25Y-163.8
X128.254Y-144.5
X128.75Y-168.25
X128.95Y-142.6
X129.2Y-89.75
X129.85Y-158.35
X130.0Y-128.1
X130.675Y-149.0
X130.85Y-156.4
X131.0Y-136.0
X131.45Y-89.75
X131.55Y-40.4
X131.85Y-113.825
X132.25Y-163.5
X132.4Y-144.0
X132.45Y-155.1
X132.9Y-153.0
X133.0Y-114.425
X133.0Y-146.65
X133.204Y-149.145
X133.25Y-147.75
X133.3Y-88.2
X133.8Y-125.7
X134.25Y-156.0
X134.65Y-120.7
X135.2Y-154.9
X135.8Y-147.0
X136.25Y-142.55
X136.6Y-120.0
X136.65Y-89.85
X136.85Y-151.85
X137.25Y-154.15
X137.3Y-162.2
X137.85Y-147.05
X137.9Y-165.3
X138.5Y-149.15
X139.15Y-170.95
X139.36Y-172.3
X139.8Y-144.6
X139.9Y-151.55
X139.95Y-149.35
X140.7Y-142.7
X140.7Y-144.6
X140.9Y-161.95
X140.9Y-163.6
X140.95Y-160.8
X141.2Y-149.2
X141.2Y-151.55
X141.2Y-162.75
X142.5Y-149.2
X142.5Y-151.55
X143.6Y-171.65
X143.75Y-142.75
X144.05Y-148.0
X144.55Y-159.85
X144.55Y-161.45
X144.55Y-163.05
X144.55Y-164.65
X144.85Y-162.25
X144.9Y-91.85
X145.0Y-93.8
X145.0Y-95.0
X145.0Y-101.5
X145.0Y-100.0
X145.4Y-89.8
X146.0Y-102.5
X146.15Y-164.2
X146.61Y-95.94
X147.3Y-164.2
X147.375Y-63.025
X147.6Y-139.6
X147.6Y-152.7
X147.85Y-71.35
X147.85Y-76.35
X147.9Y-167.4
X148.35Y-176.95
X148.85Y-71.35
X148.85Y-76.35
X149.05Y-99.5
X149.25Y-157.45
X149.35Y-61.05
X149.4Y-87.6
X149.6Y-86.15
X149.6Y-90.0
X149.6Y-91.35
X149.85Y-71.35
X149.85Y-76.35
X150.0Y-64.5
X150.05Y-65.825
X150.05Y-66.675
X150.05Y-67.575
X150.1Y-135.4
X150.15Y-160.9
X150.3Y-157.75
X150.5Y-126.8
X151.0Y-68.0
X151.09Y-158.5
X151.3Y-171.65
X152.13Y-157.75
X152.2Y-97.75
X152.35Y-92.7
X152.47Y-53.42
X152.49Y-56.983
X152.6Y-139.3
X152.96Y-158.5
X153.0Y-91.75
X153.4Y-93.0
X153.96Y-157.75
X154.35Y-53.4
X154.7Y-126.8
X154.83Y-158.5
X155.0Y-85.8
X155.45Y-36.7
X155.6Y-79.6
X155.6Y-80.6
X155.6Y-81.6
X155.65Y-52.3
X155.79Y-157.75
X155.85Y-21.3
X156.0Y-85.8
X156.1Y-137.0
X156.3Y-139.35
X156.6Y-79.6
X156.6Y-80.6
X156.6Y-81.6
X156.7Y-158.5
X157.0Y-85.8
X157.4Y-45.65
X157.5Y-102.0
X157.5Y-103.0
X157.5Y-104.0
X157.5Y-105.0
X157.6Y-79.6
X157.6Y-80.6
X157.6Y-81.6
X157.6Y-88.2
X157.6Y-89.2
X157.6Y-90.2
X157.62Y-157.75
X157.65Y-50.25
X157.75Y-93.0
X157.95Y-41.8
X158.0Y-85.8
X158.5Y-102.0
X158.5Y-103.0
X158.5Y-104.0
X158.5Y-105.0
X158.57Y-158.5
X158.6Y-79.6
X158.6Y-80.6
X158.6Y-81.6
X158.75Y-93.0
X159.05Y-88.2
X159.25Y-44.85
X159.45Y-157.75
X159.5Y-102.0
X159.5Y-103.0
X159.5Y-104.0
X159.5Y-105.0
X159.6Y-79.6
X159.6Y-80.6
X159.6Y-81.6
X159.75Y-93.0
X160.05Y-88.2
X160.44Y-158.5
X160.5Y-60.4
X160.5Y-102.0
X160.5Y-103.0
X160.5Y-104.0
X160.55Y-50.75
X160.7Y-140.0
X160.75Y-93.0
X160.85Y-35.9
X160.9Y-119.9
X161.05Y-88.2
X161.25Y-134.95
X161.3Y-77.915
X162.0Y-156.0
X162.3Y-154.2
X162.45Y-107.7
X162.45Y-110.1
X162.8Y-60.4
X163.1Y-155.95
X164.2Y-154.3
X164.5Y-150.9
X164.9Y-155.1
X165.75Y-60.1
X166.9Y-143.4
X167.5Y-145.1
X168.1Y-146.4
X168.2Y-29.2
X168.2Y-144.0
X168.5Y-69.85
X169.05Y-68.6
X169.3Y-66.25
X169.8Y-20.35
X170.875Y-28.575
X171.5Y-38.15
X172.075Y-51.075
X172.275Y-41.875
X172.6Y-37.2
X173.0Y-92.0
X173.0Y-94.0
X173.0Y-95.0
X173.0Y-96.0
X173.0Y-97.0
X173.0Y-98.0
X173.0Y-99.0
X173.0Y-100.0
X173.0Y-101.0
X173.0Y-102.0
X173.0Y-103.0
X173.0Y-112.6
X173.25Y-116.0
X173.6Y-78.4
X174.0Y-92.0
X174.0Y-94.0
X174.0Y-95.0
X174.0Y-96.0
X174.0Y-97.0
X174.0Y-98.0
X174.0Y-179.75
X174.4Y-77.6
X175.0Y-92.0
X175.75Y-38.0
X176.0Y-92.0
X176.45Y-28.0
X176.8Y-72.4
X176.8Y-73.6
X177.0Y-87.35
X177.0Y-89.975
X177.0Y-90.975
X177.0Y-92.0
X177.025Y-37.925
X177.4Y-66.3
X177.9Y-61.5
X178.0Y-87.35
X178.0Y-89.975
X178.0Y-90.975
X178.35Y-128.8
X178.5Y-176.0
X179.35Y-55.05
X179.75Y-100.75
X179.75Y-102.25
X179.75Y-103.75
X180.0Y-36.1
X180.1Y-87.95
X180.1Y-88.9
X180.2Y-81.85
X180.3Y-179.15
X180.75Y-91.625
X181.25Y-99.0
X181.25Y-100.75
X181.25Y-102.25
X181.25Y-103.75
X181.5Y-183.1
X182.8Y-106.9
X182.8Y-108.95
X183.7Y-116.7
X183.95Y-82.0
X184.0Y-70.2
X184.0Y-71.2
X184.0Y-72.2
X184.0Y-73.2
X184.05Y-166.95
X184.15Y-143.85
X184.75Y-156.75
X185.0Y-70.2
X185.0Y-71.2
X185.0Y-72.2
X185.0Y-73.2
X185.0Y-74.2
X185.1Y-77.75
X185.8Y-85.2
X186.0Y-170.75
X186.25Y-128.8
X186.6Y-68.2
X186.85Y-50.05
X187.0Y-80.0
X187.2Y-78.2
X187.4Y-74.4
X187.5Y-139.55
X187.5Y-180.0
X187.6Y-71.5
X187.75Y-45.0
X187.8Y-70.2
X188.2Y-77.75
X188.35Y-86.65
X189.4Y-81.6
X189.45Y-46.55
X189.6Y-74.4
X189.6Y-79.2
X189.6Y-84.4
X190.09Y-99.26
X190.2Y-68.2
X190.45Y-143.6
X190.575Y-69.8
X190.6Y-81.6
X190.8Y-73.2
X190.8Y-98.15
X191.068Y-66.626
X191.45Y-154.3
X191.8Y-81.6
X192.25Y-111.05
X192.6Y-72.0
X192.6Y-73.0
X192.75Y-170.25
X193.05Y-67.75
X193.4Y-81.2
X193.8Y-106.75
X194.1Y-94.15
X194.125Y-89.075
X194.2Y-109.05
X194.5Y-67.75
X194.55Y-110.95
X194.6Y-71.9
X194.75Y-128.5
X194.8Y-81.0
X195.75Y-88.975
X195.8Y-151.15
X196.2Y-87.4
X196.2Y-126.8
X196.3Y-110.95
X196.35Y-119.25
X196.45Y-139.15
X196.475Y-80.425
X197.3Y-89.6
X197.4Y-87.4
X197.6Y-74.6
X197.6Y-75.6
X198.0Y-68.6
X198.4Y-67.3
X198.4Y-81.625
X199.05Y-89.6
X199.55Y-79.7
X199.85Y-89.0
T3
X141.0Y-121.7
X141.0Y-122.9
X141.0Y-124.2
X141.0Y-125.3
X142.2Y-121.7
X142.2Y-122.9
X142.2Y-124.2
X142.2Y-125.3
X151.29Y-102.0
X151.86Y-101.35
X151.86Y-102.65
X152.43Y-102.0
X153.0Y-101.35
X153.0Y-102.65
X153.57Y-102.0
X154.14Y-101.35
X154.14Y-102.65
X154.71Y-102.0
X191.6Y-75.84
X191.6Y-77.0
X191.6Y-78.16
X192.535Y-74.95
X192.535Y-75.84
X192.535Y-77.0
X192.535Y-78.16
X192.535Y-79.05
X193.765Y-74.95
X193.765Y-75.84
X193.765Y-77.0
X193.765Y-78.16
X193.765Y-79.05
X194.7Y-75.84
X194.7Y-77.0
X194.7Y-78.16
T4
X23.4Y-29.065
X23.4Y-181.565
X24.498Y-26.413
X24.498Y-31.717
X24.498Y-178.913
X24.498Y-184.217
X27.15Y-25.315
X27.15Y-32.815
X27.15Y-177.815
X27.15Y-185.315
X29.802Y-26.413
X29.802Y-31.717
X29.802Y-178.913
X29.802Y-184.217
X30.9Y-29.065
X30.9Y-181.565
X157.35Y-169.65
X158.65Y-166.65
X158.65Y-172.65
X161.65Y-165.35
X161.65Y-173.95
X164.65Y-166.65
X164.65Y-172.65
X165.95Y-169.65
X190.4Y-29.065
X190.4Y-181.565
X191.498Y-26.413
X191.498Y-31.717
X191.498Y-178.913
X191.498Y-184.217
X194.15Y-25.315
X194.15Y-32.815
X194.15Y-177.815
X194.15Y-185.315
X196.802Y-26.413
X196.802Y-31.717
X196.802Y-178.913
X196.802Y-184.217
X197.9Y-29.065
X197.9Y-181.565
T5
X181.0Y-39.7
X183.0Y-39.7
X185.0Y-39.7
X187.0Y-39.7
X189.0Y-39.7
X191.0Y-39.7
X193.0Y-39.7
X195.0Y-39.7
X197.0Y-39.7
T6
X35.7Y-168.8
X37.7Y-168.8
X38.846Y-35.26
X39.7Y-168.8
X40.846Y-35.26
X41.7Y-168.8
X42.846Y-35.26
X44.846Y-35.26
X46.846Y-35.26
T8
X37.95Y-121.815
X37.95Y-124.355
X37.95Y-126.895
X37.95Y-129.435
X37.95Y-131.975
X37.95Y-140.815
X37.95Y-143.355
X37.95Y-145.895
X37.95Y-148.435
X37.95Y-150.975
X40.49Y-120.535
X40.49Y-123.075
X40.49Y-125.615
X40.49Y-128.155
X40.49Y-130.695
X40.49Y-139.535
X40.49Y-142.075
X40.49Y-144.615
X40.49Y-147.155
X40.49Y-149.695
T9
X182.55Y-48.1
X184.55Y-48.1
X193.1Y-48.1
X195.1Y-48.1
T10
X37.7Y-25.8
X40.2Y-25.8
X42.7Y-25.8
X45.2Y-25.8
X47.7Y-25.8
X157.95Y-39.75
X157.95Y-48.425
X158.0Y-57.075
X160.45Y-39.75
X160.45Y-48.425
X160.5Y-57.075
X162.95Y-39.75
X162.95Y-48.425
X163.0Y-57.075
X169.583Y-39.75
X169.583Y-48.45
X169.6Y-57.1
X172.083Y-39.75
X172.083Y-48.45
X172.1Y-57.1
X174.583Y-39.75
X174.583Y-48.45
X174.6Y-57.1
X181.167Y-57.1
X183.667Y-57.1
X186.167Y-57.1
X188.667Y-57.1
T11
X24.1Y-64.78
X24.1Y-67.32
X24.1Y-69.86
X24.1Y-72.4
X24.1Y-74.94
X24.1Y-77.48
X24.1Y-90.18
X24.1Y-92.72
X24.1Y-95.26
X24.1Y-97.8
X24.1Y-100.34
X24.1Y-102.88
X24.1Y-105.42
X24.1Y-107.96
X24.1Y-110.5
X24.975Y-169.475
X26.64Y-110.5
X27.475Y-169.475
X27.91Y-64.78
X27.91Y-67.32
X29.18Y-110.5
X30.45Y-64.78
X30.45Y-67.32
X31.72Y-110.5
X34.26Y-110.5
X34.5Y-182.925
X34.5Y-185.465
X35.53Y-64.78
X35.53Y-67.32
X36.8Y-110.5
X37.04Y-182.925
X37.04Y-185.465
X38.07Y-64.78
X38.07Y-67.32
X39.58Y-182.925
X39.58Y-185.465
X42.12Y-182.925
X42.12Y-185.465
X43.15Y-64.78
X43.15Y-67.32
X44.66Y-182.925
X44.66Y-185.465
X45.69Y-64.78
X45.69Y-67.32
X47.195Y-178.875
X47.2Y-185.465
X47.2Y-182.925
X49.5Y-64.78
X49.5Y-67.32
X49.5Y-69.86
X49.5Y-72.4
X49.5Y-74.94
X49.5Y-77.48
X49.5Y-100.34
X49.5Y-102.88
X49.5Y-105.42
X49.5Y-107.96
X49.5Y-110.5
X49.735Y-178.875
X49.74Y-182.925
X49.74Y-185.465
X52.275Y-178.875
X52.28Y-182.925
X52.28Y-185.465
X57.5Y-65.368
X57.5Y-70.368
X57.5Y-77.368
X57.5Y-82.368
X57.5Y-89.382
X57.5Y-94.382
X65.585Y-64.78
X65.585Y-67.32
X65.585Y-69.86
X65.585Y-72.4
X65.585Y-74.94
X65.585Y-77.48
X65.585Y-90.18
X65.585Y-92.72
X65.585Y-95.26
X65.585Y-97.8
X65.585Y-100.34
X65.585Y-102.88
X65.585Y-105.42
X65.585Y-107.96
X65.585Y-110.5
X68.125Y-110.5
X69.395Y-64.78
X69.395Y-67.32
X70.665Y-110.5
X71.935Y-64.78
X71.935Y-67.32
X73.205Y-110.5
X75.745Y-110.5
X77.015Y-64.78
X77.015Y-67.32
X78.285Y-110.5
X79.555Y-64.78
X79.555Y-67.32
X84.635Y-64.78
X84.635Y-67.32
X87.175Y-64.78
X87.175Y-67.32
X90.985Y-64.78
X90.985Y-67.32
X90.985Y-69.86
X90.985Y-72.4
X90.985Y-74.94
X90.985Y-77.48
X90.985Y-100.34
X90.985Y-102.88
X90.985Y-105.42
X90.985Y-107.96
X90.985Y-110.5
X92.975Y-186.672
X95.515Y-186.672
X99.0Y-65.368
X99.0Y-70.368
X99.0Y-77.368
X99.0Y-82.368
X99.0Y-89.382
X99.0Y-94.382
X107.0Y-64.78
X107.0Y-67.32
X107.0Y-69.86
X107.0Y-72.4
X107.0Y-74.94
X107.0Y-77.48
X107.0Y-90.18
X107.0Y-92.72
X107.0Y-95.26
X107.0Y-97.8
X107.0Y-100.34
X107.0Y-102.88
X107.0Y-105.42
X107.0Y-107.96
X107.0Y-110.5
X109.54Y-110.5
X110.81Y-64.78
X110.81Y-67.32
X112.08Y-110.5
X113.35Y-64.78
X113.35Y-67.32
X114.62Y-110.5
X117.16Y-110.5
X118.43Y-64.78
X118.43Y-67.32
X119.7Y-110.5
X120.97Y-64.78
X120.97Y-67.32
X126.05Y-64.78
X126.05Y-67.32
X128.59Y-64.78
X128.59Y-67.32
X132.4Y-64.78
X132.4Y-67.32
X132.4Y-69.86
X132.4Y-72.4
X132.4Y-74.94
X132.4Y-77.48
X132.4Y-100.34
X132.4Y-102.88
X132.4Y-105.42
X132.4Y-107.96
X132.4Y-110.5
X147.6Y-74.1
X152.6Y-74.1
X155.35Y-33.02
X157.89Y-33.02
X160.0Y-85.482
X160.0Y-90.482
X160.43Y-33.02
X162.97Y-33.02
X165.51Y-33.02
X168.05Y-33.02
X170.59Y-33.02
X170.61Y-63.5
X173.13Y-33.02
X173.15Y-63.5
X174.3Y-85.482
X174.3Y-90.482
X174.36Y-185.45
X174.7Y-120.375
X174.7Y-122.915
X174.7Y-125.455
X175.67Y-33.02
X175.69Y-63.5
X176.9Y-185.45
X177.512Y-132.167
X177.512Y-134.707
X178.21Y-33.02
X178.23Y-63.5
X179.44Y-185.45
X180.052Y-132.167
X180.052Y-134.707
X180.75Y-33.02
X180.77Y-63.5
X181.85Y-83.925
X181.85Y-86.465
X181.98Y-185.45
X182.593Y-132.167
X182.593Y-134.707
X183.29Y-33.02
X183.31Y-63.5
X184.52Y-185.45
X185.0Y-93.6
X185.0Y-96.1
X185.0Y-98.1
X185.0Y-100.6
X185.132Y-132.167
X185.132Y-134.707
X185.83Y-33.02
X185.85Y-63.5
X187.5Y-93.6
X187.5Y-96.1
X187.5Y-98.1
X187.5Y-100.6
X187.672Y-132.167
X187.672Y-134.707
X188.37Y-33.02
X188.39Y-63.5
X190.212Y-132.167
X190.212Y-134.707
X190.93Y-63.5
X193.47Y-63.5
X195.25Y-57.1
X196.01Y-63.5
X197.75Y-57.1
X198.55Y-63.5
T12
X126.1Y-132.75
X126.1Y-181.01
X128.64Y-132.75
X128.64Y-181.01
X131.18Y-132.75
X131.18Y-181.01
X133.72Y-132.75
X133.72Y-181.01
X136.26Y-132.75
X136.26Y-181.01
X138.8Y-132.75
X138.8Y-181.01
X141.34Y-181.01
X143.88Y-181.01
X143.88Y-132.75
X146.42Y-132.75
X147.944Y-181.01
X148.96Y-132.75
X150.484Y-181.01
X151.5Y-132.75
X153.024Y-181.01
X154.04Y-132.75
X155.564Y-181.01
X156.58Y-132.75
X158.104Y-181.01
X159.12Y-132.75
X160.644Y-181.01
X161.66Y-132.75
X163.184Y-181.01
X165.724Y-181.01
X168.264Y-181.01
X170.804Y-181.01
T13
X26.7Y-119.63
X26.7Y-122.17
X26.7Y-130.34
X26.7Y-132.88
X26.7Y-138.63
X26.7Y-141.17
X26.7Y-149.34
X26.7Y-151.88
X128.3Y-118.2
X128.3Y-120.74
X128.3Y-123.28
X128.3Y-125.82
T14
X162.56Y-22.86
X162.56Y-25.4
X165.1Y-22.86
X165.1Y-25.4
X167.64Y-22.86
X167.64Y-25.4
X170.18Y-22.86
X170.18Y-25.4
X172.72Y-22.86
X172.72Y-25.4
X175.26Y-22.86
X175.26Y-25.4
X177.8Y-22.86
X177.8Y-25.4
X180.34Y-22.86
X180.34Y-25.4
T15
X98.45Y-44.25
X98.45Y-49.75
X102.65Y-44.25
X102.65Y-49.75
X106.85Y-44.25
X106.85Y-49.75
X111.05Y-44.25
X111.05Y-49.75
X150.15Y-43.0
X150.15Y-48.5
T16
X34.65Y-118.51
X34.65Y-134.0
X34.65Y-137.51
X34.65Y-153.0
T17
X184.53Y-90.53
X184.53Y-103.67
X190.21Y-90.53
X190.21Y-103.67
T18
X185.3Y-122.8
X192.5Y-122.8
T19
X27.15Y-29.065
X27.15Y-181.565
X194.15Y-29.065
X194.15Y-181.565
T20
X161.65Y-169.65
T7
X122.095Y-43.75G85X122.095Y-44.45
G05
X122.095Y-53.1G85X122.095Y-53.8
G05
X127.295Y-43.75G85X127.295Y-44.45
G05
X127.295Y-53.1G85X127.295Y-53.8
G05
X137.095Y-44.46G85X137.095Y-43.76
G05
X137.095Y-53.81G85X137.095Y-53.11
G05
X142.295Y-44.46G85X142.295Y-43.76
G05
X142.295Y-53.81G85X142.295Y-53.11
G05
T15
X48.7Y-44.225G85X48.7Y-44.925
G05
X48.7Y-49.075G85X48.7Y-49.775
G05
X52.9Y-44.225G85X52.9Y-44.925
G05
X52.9Y-49.075G85X52.9Y-49.775
G05
X57.1Y-44.225G85X57.1Y-44.925
G05
X57.1Y-49.075G85X57.1Y-49.775
G05
X61.3Y-44.225G85X61.3Y-44.925
G05
X61.3Y-49.075G85X61.3Y-49.775
G05
X65.5Y-44.225G85X65.5Y-44.925
G05
X65.5Y-49.075G85X65.5Y-49.775
G05
X69.7Y-44.225G85X69.7Y-44.925
G05
X69.7Y-49.075G85X69.7Y-49.775
G05
X73.9Y-44.225G85X73.9Y-44.925
G05
X73.9Y-49.075G85X73.9Y-49.775
G05
X78.1Y-44.225G85X78.1Y-44.925
G05
X78.1Y-49.075G85X78.1Y-49.775
G05
X82.3Y-44.225G85X82.3Y-44.925
G05
X82.3Y-49.075G85X82.3Y-49.775
G05
X86.5Y-44.225G85X86.5Y-44.925
G05
X86.5Y-49.075G85X86.5Y-49.775
G05
X90.7Y-44.225G85X90.7Y-44.925
G05
X90.7Y-49.075G85X90.7Y-49.775
G05
M30
