G04 #@! TF.GenerationSoftware,KiCad,Pcbnew,8.0.4+1*
G04 #@! TF.CreationDate,2024-10-07T14:01:40+00:00*
G04 #@! TF.ProjectId,hw-openmower-yardforce,68772d6f-7065-46e6-9d6f-7765722d7961,rev?*
G04 #@! TF.SameCoordinates,Original*
G04 #@! TF.FileFunction,Soldermask,Bot*
G04 #@! TF.FilePolarity,Negative*
%FSLAX46Y46*%
G04 Gerber Fmt 4.6, Leading zero omitted, Abs format (unit mm)*
G04 Created by KiCad (PCBNEW 8.0.4+1) date 2024-10-07 14:01:40*
%MOMM*%
%LPD*%
G01*
G04 APERTURE LIST*
%ADD10C,6.000000*%
%ADD11R,2.000000X2.000000*%
%ADD12C,2.000000*%
%ADD13O,1.950000X1.700000*%
%ADD14O,1.700000X1.950000*%
%ADD15R,1.700000X1.700000*%
%ADD16O,1.700000X1.700000*%
%ADD17C,3.250000*%
%ADD18C,1.602000*%
%ADD19C,1.734000*%
%ADD20C,2.649000*%
%ADD21O,1.727200X2.500000*%
%ADD22C,0.900000*%
%ADD23C,10.000000*%
%ADD24O,3.000000X1.700000*%
%ADD25O,1.700000X3.000000*%
%ADD26C,2.350000*%
%ADD27R,1.500000X1.500000*%
%ADD28C,1.500000*%
%ADD29C,3.000000*%
%ADD30O,2.700000X3.300000*%
%ADD31O,1.750000X1.200000*%
%ADD32C,1.600000*%
%ADD33C,1.100000*%
%ADD34O,8.400000X6.400000*%
%ADD35O,2.700000X3.500000*%
%ADD36R,2.030000X1.730000*%
%ADD37O,2.030000X1.730000*%
%ADD38O,2.000000X1.700000*%
%ADD39C,3.500000*%
%ADD40O,1.200000X1.750000*%
G04 APERTURE END LIST*
G36*
G01*
X189500000Y-121000000D02*
X189500000Y-124000000D01*
G75*
G02*
X188000000Y-125500000I-1500000J0D01*
G01*
X185000000Y-125500000D01*
G75*
G02*
X183500000Y-124000000I0J1500000D01*
G01*
X183500000Y-121000000D01*
G75*
G02*
X185000000Y-119500000I1500000J0D01*
G01*
X188000000Y-119500000D01*
G75*
G02*
X189500000Y-121000000I0J-1500000D01*
G01*
G37*
D10*
X179300000Y-122500000D03*
D11*
X99000000Y-70367678D03*
D12*
X99000000Y-65367678D03*
G36*
G01*
X182275000Y-63950000D02*
X180825000Y-63950000D01*
G75*
G02*
X180575000Y-63700000I0J250000D01*
G01*
X180575000Y-62500000D01*
G75*
G02*
X180825000Y-62250000I250000J0D01*
G01*
X182275000Y-62250000D01*
G75*
G02*
X182525000Y-62500000I0J-250000D01*
G01*
X182525000Y-63700000D01*
G75*
G02*
X182275000Y-63950000I-250000J0D01*
G01*
G37*
D13*
X181550000Y-60600000D03*
X181550000Y-58100000D03*
G36*
G01*
X158175000Y-24190000D02*
X158175000Y-22740000D01*
G75*
G02*
X158425000Y-22490000I250000J0D01*
G01*
X159625000Y-22490000D01*
G75*
G02*
X159875000Y-22740000I0J-250000D01*
G01*
X159875000Y-24190000D01*
G75*
G02*
X159625000Y-24440000I-250000J0D01*
G01*
X158425000Y-24440000D01*
G75*
G02*
X158175000Y-24190000I0J250000D01*
G01*
G37*
D14*
X161525000Y-23465000D03*
X164025000Y-23465000D03*
X166525000Y-23465000D03*
D11*
X99000000Y-77367679D03*
D12*
X99000000Y-82367679D03*
D15*
X174360000Y-185450000D03*
D16*
X176900000Y-185450000D03*
X179439999Y-185450000D03*
X181980000Y-185450000D03*
X184520000Y-185450000D03*
D15*
X76125000Y-143200000D03*
D16*
X78665000Y-143200000D03*
X76125000Y-145740000D03*
X78665000Y-145740000D03*
X76125000Y-148279999D03*
X78665000Y-148280000D03*
X76125000Y-150820000D03*
X78665000Y-150820000D03*
D15*
X52275000Y-178875000D03*
D16*
X49735000Y-178875000D03*
X47195000Y-178875000D03*
D17*
X31600000Y-131970000D03*
X31600000Y-120540000D03*
G36*
G01*
X41189000Y-121336000D02*
X39791000Y-121336000D01*
G75*
G02*
X39689000Y-121234000I0J102000D01*
G01*
X39689000Y-119836000D01*
G75*
G02*
X39791000Y-119734000I102000J0D01*
G01*
X41189000Y-119734000D01*
G75*
G02*
X41291000Y-119836000I0J-102000D01*
G01*
X41291000Y-121234000D01*
G75*
G02*
X41189000Y-121336000I-102000J0D01*
G01*
G37*
D18*
X37950000Y-121815000D03*
X40490000Y-123075000D03*
X37950000Y-124355000D03*
X40490000Y-125615000D03*
X37950000Y-126895000D03*
X40490000Y-128155000D03*
X37950000Y-129435001D03*
X40490000Y-130695000D03*
X37950000Y-131975000D03*
D19*
X26700000Y-119630000D03*
X26700000Y-122170000D03*
X26700000Y-130340000D03*
X26700000Y-132880000D03*
D20*
X34650000Y-118510000D03*
X34650000Y-134000000D03*
G36*
G01*
X36850000Y-26525000D02*
X36850000Y-25075000D01*
G75*
G02*
X37100000Y-24825000I250000J0D01*
G01*
X38300000Y-24825000D01*
G75*
G02*
X38550000Y-25075000I0J-250000D01*
G01*
X38550000Y-26525000D01*
G75*
G02*
X38300000Y-26775000I-250000J0D01*
G01*
X37100000Y-26775000D01*
G75*
G02*
X36850000Y-26525000I0J250000D01*
G01*
G37*
D14*
X40200000Y-25800000D03*
X42700000Y-25800000D03*
X45200000Y-25800000D03*
X47700000Y-25800000D03*
D21*
X161637500Y-132257500D03*
X154017500Y-132257500D03*
X151477500Y-132257500D03*
X138777500Y-132257500D03*
X136237500Y-132257500D03*
X133697500Y-132257500D03*
X131157500Y-132257500D03*
X128617500Y-132257500D03*
X126077500Y-132257500D03*
X165701500Y-181517500D03*
X126077500Y-181517500D03*
X128617500Y-181517500D03*
X131157500Y-181517500D03*
X133697501Y-181517500D03*
X136237500Y-181517500D03*
X138777500Y-181517500D03*
X141317500Y-181517500D03*
X143857499Y-181517500D03*
X147921499Y-181517500D03*
X150461500Y-181517500D03*
X153001500Y-181517500D03*
X155541500Y-181517500D03*
X158081500Y-181517500D03*
X160621501Y-181517500D03*
X163161500Y-181517500D03*
X148937500Y-132257500D03*
X146397500Y-132257500D03*
X159097500Y-132257500D03*
X156557500Y-132257500D03*
X170781499Y-181517500D03*
X168241500Y-181517500D03*
X143857500Y-132257500D03*
G36*
G01*
X174325000Y-52416666D02*
X172875000Y-52416666D01*
G75*
G02*
X172625000Y-52166666I0J250000D01*
G01*
X172625000Y-50966666D01*
G75*
G02*
X172875000Y-50716666I250000J0D01*
G01*
X174325000Y-50716666D01*
G75*
G02*
X174575000Y-50966666I0J-250000D01*
G01*
X174575000Y-52166666D01*
G75*
G02*
X174325000Y-52416666I-250000J0D01*
G01*
G37*
D13*
X173600000Y-49066666D03*
X173600000Y-46566666D03*
D22*
X23400000Y-181565000D03*
X24498350Y-178913350D03*
X24498350Y-184216650D03*
X27150000Y-177815000D03*
D23*
X27150000Y-181565000D03*
D22*
X27150000Y-185315000D03*
X29801650Y-178913350D03*
X29801650Y-184216650D03*
X30900000Y-181565000D03*
G36*
G01*
X158175000Y-32157500D02*
X158175000Y-30707500D01*
G75*
G02*
X158425000Y-30457500I250000J0D01*
G01*
X159625000Y-30457500D01*
G75*
G02*
X159875000Y-30707500I0J-250000D01*
G01*
X159875000Y-32157500D01*
G75*
G02*
X159625000Y-32407500I-250000J0D01*
G01*
X158425000Y-32407500D01*
G75*
G02*
X158175000Y-32157500I0J250000D01*
G01*
G37*
D14*
X161525000Y-31432500D03*
X164025000Y-31432500D03*
X166525000Y-31432500D03*
D24*
X106500000Y-107960002D03*
X106500000Y-105420002D03*
X106500000Y-100340002D03*
X106500000Y-97800002D03*
X106500000Y-95260002D03*
X106500000Y-102880002D03*
X106500000Y-72400002D03*
X132900000Y-72400002D03*
X106500000Y-69860002D03*
X132900000Y-69860002D03*
X106500000Y-92720002D03*
D25*
X109540000Y-111000002D03*
X112080000Y-111000002D03*
X117160000Y-111000002D03*
X119700000Y-111000002D03*
D24*
X132900000Y-110500002D03*
X132900000Y-107960002D03*
X132900000Y-105420002D03*
X132900000Y-102880002D03*
X106500000Y-110500002D03*
D25*
X114620000Y-111000002D03*
D24*
X132900000Y-100340002D03*
X106500000Y-90180002D03*
X106500000Y-67320002D03*
X132900000Y-67320002D03*
X106500000Y-64780002D03*
X132900000Y-64780002D03*
D25*
X126050000Y-67820002D03*
X128590000Y-67820002D03*
X126050000Y-64280002D03*
X128590000Y-64280002D03*
X118430000Y-67820002D03*
X120970000Y-67820002D03*
X118430000Y-64280002D03*
X120970000Y-64280002D03*
D24*
X106500000Y-77480002D03*
X132900000Y-77480002D03*
X106500000Y-74940002D03*
X132900000Y-74940002D03*
D25*
X110810000Y-67820002D03*
X113350000Y-67820002D03*
X110810000Y-64280002D03*
X113350000Y-64280002D03*
D26*
X124325000Y-54765000D03*
X129325000Y-54765000D03*
X139325000Y-54765000D03*
X144325000Y-54765000D03*
D27*
X185820000Y-106500000D03*
D28*
X185820000Y-104000000D03*
X185820000Y-101999999D03*
X185820000Y-99500001D03*
X188440000Y-106500000D03*
X188440000Y-104000000D03*
X188440000Y-102000000D03*
X188440000Y-99500000D03*
D29*
X185470000Y-109570000D03*
X191150000Y-109570000D03*
X185470000Y-96430000D03*
X191150000Y-96430000D03*
G36*
G01*
X174325000Y-63950000D02*
X172875000Y-63950000D01*
G75*
G02*
X172625000Y-63700000I0J250000D01*
G01*
X172625000Y-62500000D01*
G75*
G02*
X172875000Y-62250000I250000J0D01*
G01*
X174325000Y-62250000D01*
G75*
G02*
X174575000Y-62500000I0J-250000D01*
G01*
X174575000Y-63700000D01*
G75*
G02*
X174325000Y-63950000I-250000J0D01*
G01*
G37*
D13*
X173600000Y-60600000D03*
X173600000Y-58100000D03*
G36*
G01*
X97100000Y-45649999D02*
X97100000Y-42850001D01*
G75*
G02*
X97350001Y-42600000I250001J0D01*
G01*
X99549999Y-42600000D01*
G75*
G02*
X99800000Y-42850001I0J-250001D01*
G01*
X99800000Y-45649999D01*
G75*
G02*
X99549999Y-45900000I-250001J0D01*
G01*
X97350001Y-45900000D01*
G75*
G02*
X97100000Y-45649999I0J250001D01*
G01*
G37*
D30*
X102650000Y-44250000D03*
X106850000Y-44250000D03*
X111050000Y-44250000D03*
X98450000Y-49750000D03*
X102650000Y-49750000D03*
X106850000Y-49750000D03*
X111050000Y-49750000D03*
D17*
X31600000Y-169970000D03*
X31600000Y-158540000D03*
G36*
G01*
X41189000Y-159336000D02*
X39791000Y-159336000D01*
G75*
G02*
X39689000Y-159234000I0J102000D01*
G01*
X39689000Y-157836000D01*
G75*
G02*
X39791000Y-157734000I102000J0D01*
G01*
X41189000Y-157734000D01*
G75*
G02*
X41291000Y-157836000I0J-102000D01*
G01*
X41291000Y-159234000D01*
G75*
G02*
X41189000Y-159336000I-102000J0D01*
G01*
G37*
D18*
X37950000Y-159815000D03*
X40490000Y-161075000D03*
X37950000Y-162355000D03*
X40490000Y-163615000D03*
X37950000Y-164895000D03*
X40490000Y-166155000D03*
X37950000Y-167435001D03*
X40490000Y-168695000D03*
X37950000Y-169975000D03*
D19*
X26700000Y-157630000D03*
X26700000Y-160170000D03*
X26700000Y-168340000D03*
X26700000Y-170880000D03*
D20*
X34650000Y-156510000D03*
X34650000Y-172000000D03*
G36*
G01*
X174325000Y-29350000D02*
X172875000Y-29350000D01*
G75*
G02*
X172625000Y-29100000I0J250000D01*
G01*
X172625000Y-27900000D01*
G75*
G02*
X172875000Y-27650000I250000J0D01*
G01*
X174325000Y-27650000D01*
G75*
G02*
X174575000Y-27900000I0J-250000D01*
G01*
X174575000Y-29100000D01*
G75*
G02*
X174325000Y-29350000I-250000J0D01*
G01*
G37*
D13*
X173600000Y-26000000D03*
X173600000Y-23500000D03*
G36*
G01*
X174325000Y-40883333D02*
X172875000Y-40883333D01*
G75*
G02*
X172625000Y-40633333I0J250000D01*
G01*
X172625000Y-39433333D01*
G75*
G02*
X172875000Y-39183333I250000J0D01*
G01*
X174325000Y-39183333D01*
G75*
G02*
X174575000Y-39433333I0J-250000D01*
G01*
X174575000Y-40633333D01*
G75*
G02*
X174325000Y-40883333I-250000J0D01*
G01*
G37*
X173600000Y-37533333D03*
X173600000Y-35033333D03*
G36*
G01*
X189125000Y-57000000D02*
X190375000Y-57000000D01*
G75*
G02*
X190625000Y-57250000I0J-250000D01*
G01*
X190625000Y-57950000D01*
G75*
G02*
X190375000Y-58200000I-250000J0D01*
G01*
X189125000Y-58200000D01*
G75*
G02*
X188875000Y-57950000I0J250000D01*
G01*
X188875000Y-57250000D01*
G75*
G02*
X189125000Y-57000000I250000J0D01*
G01*
G37*
D31*
X189750000Y-59600001D03*
X189750000Y-61600000D03*
X189750000Y-63600000D03*
G36*
G01*
X182275000Y-29350000D02*
X180825000Y-29350000D01*
G75*
G02*
X180575000Y-29100000I0J250000D01*
G01*
X180575000Y-27900000D01*
G75*
G02*
X180825000Y-27650000I250000J0D01*
G01*
X182275000Y-27650000D01*
G75*
G02*
X182525000Y-27900000I0J-250000D01*
G01*
X182525000Y-29100000D01*
G75*
G02*
X182275000Y-29350000I-250000J0D01*
G01*
G37*
D13*
X181550000Y-26000000D03*
X181550000Y-23500000D03*
G36*
G01*
X150900000Y-45714999D02*
X150900000Y-42915001D01*
G75*
G02*
X151150001Y-42665000I250001J0D01*
G01*
X153349999Y-42665000D01*
G75*
G02*
X153600000Y-42915001I0J-250001D01*
G01*
X153600000Y-45714999D01*
G75*
G02*
X153349999Y-45965000I-250001J0D01*
G01*
X151150001Y-45965000D01*
G75*
G02*
X150900000Y-45714999I0J250001D01*
G01*
G37*
D30*
X152250000Y-49815000D03*
D15*
X127075000Y-115840000D03*
D16*
X124535000Y-115840000D03*
D32*
X59600000Y-116200000D03*
D33*
X59600000Y-183000000D03*
D34*
X116400000Y-138800000D03*
X116400000Y-171800000D03*
G36*
G01*
X47350000Y-46074999D02*
X47350000Y-43075001D01*
G75*
G02*
X47600001Y-42825000I250001J0D01*
G01*
X49799999Y-42825000D01*
G75*
G02*
X50050000Y-43075001I0J-250001D01*
G01*
X50050000Y-46074999D01*
G75*
G02*
X49799999Y-46325000I-250001J0D01*
G01*
X47600001Y-46325000D01*
G75*
G02*
X47350000Y-46074999I0J250001D01*
G01*
G37*
D35*
X52900000Y-44575000D03*
X57100000Y-44575000D03*
X61300000Y-44575000D03*
X65500000Y-44575000D03*
X69700000Y-44575000D03*
X73900000Y-44575000D03*
X78100000Y-44575000D03*
X82300000Y-44575000D03*
X86500000Y-44575000D03*
X90700000Y-44575000D03*
X48700000Y-49425000D03*
X52900000Y-49425000D03*
X57100000Y-49425000D03*
X61300000Y-49425000D03*
X65500000Y-49425000D03*
X69700000Y-49425000D03*
X73900000Y-49425000D03*
X78100000Y-49425000D03*
X82300000Y-49425000D03*
X86500000Y-49425000D03*
X90700000Y-49425000D03*
D33*
X128260000Y-125340000D03*
D36*
X126100000Y-120260000D03*
D37*
X126100000Y-122800000D03*
X126100000Y-125340000D03*
X126100000Y-127880000D03*
D11*
X57500000Y-89382325D03*
D12*
X57500000Y-94382325D03*
D15*
X52280000Y-182925000D03*
D16*
X52280000Y-185465000D03*
X49740000Y-182925000D03*
X49740000Y-185465000D03*
X47200001Y-182925000D03*
X47200000Y-185465000D03*
X44660000Y-182925000D03*
X44660000Y-185465000D03*
X42120000Y-182925000D03*
X42120000Y-185465000D03*
X39580000Y-182925000D03*
X39580000Y-185465000D03*
X37040000Y-182925000D03*
X37040000Y-185465000D03*
X34499999Y-182925000D03*
X34500000Y-185465000D03*
D11*
X99000000Y-89382325D03*
D12*
X99000000Y-94382325D03*
G36*
G01*
X182275000Y-52383332D02*
X180825000Y-52383332D01*
G75*
G02*
X180575000Y-52133332I0J250000D01*
G01*
X180575000Y-50933332D01*
G75*
G02*
X180825000Y-50683332I250000J0D01*
G01*
X182275000Y-50683332D01*
G75*
G02*
X182525000Y-50933332I0J-250000D01*
G01*
X182525000Y-52133332D01*
G75*
G02*
X182275000Y-52383332I-250000J0D01*
G01*
G37*
D13*
X181550000Y-49033332D03*
X181550000Y-46533332D03*
D22*
X190400000Y-181565000D03*
X191498350Y-178913350D03*
X191498350Y-184216650D03*
X194150000Y-177815000D03*
D23*
X194150000Y-181565000D03*
D22*
X194150000Y-185315000D03*
X196801650Y-178913350D03*
X196801650Y-184216650D03*
X197900000Y-181565000D03*
G36*
G01*
X189550000Y-45750000D02*
X191050000Y-45750000D01*
G75*
G02*
X191300000Y-46000000I0J-250000D01*
G01*
X191300000Y-47200000D01*
G75*
G02*
X191050000Y-47450000I-250000J0D01*
G01*
X189550000Y-47450000D01*
G75*
G02*
X189300000Y-47200000I0J250000D01*
G01*
X189300000Y-46000000D01*
G75*
G02*
X189550000Y-45750000I250000J0D01*
G01*
G37*
D38*
X190300000Y-49100000D03*
D24*
X65085001Y-107960002D03*
X65085001Y-105420002D03*
X65085001Y-100340002D03*
X65085001Y-97800002D03*
X65085001Y-95260002D03*
X65085001Y-102880002D03*
X65085001Y-72400002D03*
X91485001Y-72400002D03*
X65085001Y-69860002D03*
X91485001Y-69860002D03*
X65085001Y-92720002D03*
D25*
X68125001Y-111000002D03*
X70665001Y-111000002D03*
X75745001Y-111000002D03*
X78285001Y-111000002D03*
D24*
X91485001Y-110500002D03*
X91485001Y-107960002D03*
X91485001Y-105420002D03*
X91485001Y-102880002D03*
X65085001Y-110500002D03*
D25*
X73205001Y-111000002D03*
D24*
X91485001Y-100340002D03*
X65085001Y-90180002D03*
X65085001Y-67320002D03*
X91485001Y-67320002D03*
X65085001Y-64780002D03*
X91485001Y-64780002D03*
D25*
X84635001Y-67820002D03*
X87175001Y-67820002D03*
X84635001Y-64280002D03*
X87175001Y-64280002D03*
X77015001Y-67820002D03*
X79555001Y-67820002D03*
X77015001Y-64280002D03*
X79555001Y-64280002D03*
D24*
X65085001Y-77480002D03*
X91485001Y-77480002D03*
X65085001Y-74940002D03*
X91485001Y-74940002D03*
D25*
X69395001Y-67820002D03*
X71935001Y-67820002D03*
X69395001Y-64280002D03*
X71935001Y-64280002D03*
D11*
X174300000Y-85482323D03*
D12*
X174300000Y-90482323D03*
D11*
X57500000Y-77367679D03*
D12*
X57500000Y-82367679D03*
G36*
G01*
X182275000Y-40883333D02*
X180825000Y-40883333D01*
G75*
G02*
X180575000Y-40633333I0J250000D01*
G01*
X180575000Y-39433333D01*
G75*
G02*
X180825000Y-39183333I250000J0D01*
G01*
X182275000Y-39183333D01*
G75*
G02*
X182525000Y-39433333I0J-250000D01*
G01*
X182525000Y-40633333D01*
G75*
G02*
X182275000Y-40883333I-250000J0D01*
G01*
G37*
D13*
X181550000Y-37533333D03*
X181550000Y-35033333D03*
G36*
G01*
X158175000Y-40125000D02*
X158175000Y-38675000D01*
G75*
G02*
X158425000Y-38425000I250000J0D01*
G01*
X159625000Y-38425000D01*
G75*
G02*
X159875000Y-38675000I0J-250000D01*
G01*
X159875000Y-40125000D01*
G75*
G02*
X159625000Y-40375000I-250000J0D01*
G01*
X158425000Y-40375000D01*
G75*
G02*
X158175000Y-40125000I0J250000D01*
G01*
G37*
D14*
X161525000Y-39400000D03*
X164025000Y-39400000D03*
X166525000Y-39400000D03*
D24*
X23600000Y-107960002D03*
X23600000Y-105420002D03*
X23600000Y-100340002D03*
X23600000Y-97800002D03*
X23600000Y-95260002D03*
X23600000Y-102880002D03*
X23600000Y-72400002D03*
X50000000Y-72400002D03*
X23600000Y-69860002D03*
X50000000Y-69860002D03*
X23600000Y-92720002D03*
D25*
X26640000Y-111000002D03*
X29180000Y-111000002D03*
X34260000Y-111000002D03*
X36800000Y-111000002D03*
D24*
X50000000Y-110500002D03*
X50000000Y-107960002D03*
X50000000Y-105420002D03*
X50000000Y-102880002D03*
X23600000Y-110500002D03*
D25*
X31720000Y-111000002D03*
D24*
X50000000Y-100340002D03*
X23600000Y-90180002D03*
X23600000Y-67320002D03*
X50000000Y-67320002D03*
X23600000Y-64780002D03*
X50000000Y-64780002D03*
D25*
X43150000Y-67820002D03*
X45690000Y-67820002D03*
X43150000Y-64280002D03*
X45690000Y-64280002D03*
X35530000Y-67820002D03*
X38070000Y-67820002D03*
X35530000Y-64280002D03*
X38070000Y-64280002D03*
D24*
X23600000Y-77480002D03*
X50000000Y-77480002D03*
X23600000Y-74940002D03*
X50000000Y-74940002D03*
D25*
X27910000Y-67820002D03*
X30450000Y-67820002D03*
X27910000Y-64280002D03*
X30450000Y-64280002D03*
D15*
X187400000Y-90400000D03*
D16*
X184860000Y-90400000D03*
D15*
X92975000Y-186672500D03*
D16*
X95515000Y-186672500D03*
D22*
X190400000Y-29065000D03*
X191498350Y-26413350D03*
X191498350Y-31716650D03*
X194150000Y-25315000D03*
D23*
X194150000Y-29065000D03*
D22*
X194150000Y-32815000D03*
X196801650Y-26413350D03*
X196801650Y-31716650D03*
X197900000Y-29065000D03*
D17*
X31600000Y-150970000D03*
X31600000Y-139540000D03*
G36*
G01*
X41189000Y-140336000D02*
X39791000Y-140336000D01*
G75*
G02*
X39689000Y-140234000I0J102000D01*
G01*
X39689000Y-138836000D01*
G75*
G02*
X39791000Y-138734000I102000J0D01*
G01*
X41189000Y-138734000D01*
G75*
G02*
X41291000Y-138836000I0J-102000D01*
G01*
X41291000Y-140234000D01*
G75*
G02*
X41189000Y-140336000I-102000J0D01*
G01*
G37*
D18*
X37950000Y-140815000D03*
X40490000Y-142075000D03*
X37950000Y-143355000D03*
X40490000Y-144615000D03*
X37950000Y-145895000D03*
X40490000Y-147155000D03*
X37950000Y-148435001D03*
X40490000Y-149695000D03*
X37950000Y-150975000D03*
D19*
X26700000Y-138630000D03*
X26700000Y-141170000D03*
X26700000Y-149340000D03*
X26700000Y-151880000D03*
D20*
X34650000Y-137510000D03*
X34650000Y-153000000D03*
D22*
X23400000Y-29065000D03*
X24498350Y-26413350D03*
X24498350Y-31716650D03*
X27150000Y-25315000D03*
D23*
X27150000Y-29065000D03*
D22*
X27150000Y-32815000D03*
X29801650Y-26413350D03*
X29801650Y-31716650D03*
X30900000Y-29065000D03*
D11*
X152600000Y-74100000D03*
D12*
X147600000Y-74100000D03*
D39*
X193612500Y-164687499D03*
X193612500Y-133687499D03*
X173862500Y-133687499D03*
X173612501Y-164687499D03*
D15*
X177512500Y-134707499D03*
D16*
X180052500Y-134707499D03*
X182592500Y-134707499D03*
X185132500Y-134707499D03*
X187672500Y-134707499D03*
X190212500Y-134707499D03*
X177512501Y-132167499D03*
X180052500Y-132167499D03*
X182592500Y-132167499D03*
X185132500Y-132167499D03*
X187672500Y-132167498D03*
X190212500Y-132167499D03*
D11*
X160000000Y-85482323D03*
D12*
X160000000Y-90482323D03*
G36*
G01*
X47446000Y-34634999D02*
X47446000Y-35885001D01*
G75*
G02*
X47196001Y-36135000I-249999J0D01*
G01*
X46495999Y-36135000D01*
G75*
G02*
X46246000Y-35885001I0J249999D01*
G01*
X46246000Y-34634999D01*
G75*
G02*
X46495999Y-34385000I249999J0D01*
G01*
X47196001Y-34385000D01*
G75*
G02*
X47446000Y-34634999I0J-249999D01*
G01*
G37*
D40*
X44846000Y-35260000D03*
X42846000Y-35260000D03*
X40846000Y-35260000D03*
X38846000Y-35260000D03*
D11*
X57500000Y-70367678D03*
D12*
X57500000Y-65367678D03*
G36*
G01*
X196850000Y-45750000D02*
X198350000Y-45750000D01*
G75*
G02*
X198600000Y-46000000I0J-250000D01*
G01*
X198600000Y-47200000D01*
G75*
G02*
X198350000Y-47450000I-250000J0D01*
G01*
X196850000Y-47450000D01*
G75*
G02*
X196600000Y-47200000I0J250000D01*
G01*
X196600000Y-46000000D01*
G75*
G02*
X196850000Y-45750000I250000J0D01*
G01*
G37*
D38*
X197600000Y-49100000D03*
G36*
G01*
X188550000Y-38700000D02*
X188550000Y-37250000D01*
G75*
G02*
X188800000Y-37000000I250000J0D01*
G01*
X190000000Y-37000000D01*
G75*
G02*
X190250000Y-37250000I0J-250000D01*
G01*
X190250000Y-38700000D01*
G75*
G02*
X190000000Y-38950000I-250000J0D01*
G01*
X188800000Y-38950000D01*
G75*
G02*
X188550000Y-38700000I0J250000D01*
G01*
G37*
D14*
X191900000Y-37975000D03*
X194400000Y-37975000D03*
X196900000Y-37975000D03*
G36*
G01*
X158175000Y-56060000D02*
X158175000Y-54610000D01*
G75*
G02*
X158425000Y-54360000I250000J0D01*
G01*
X159625000Y-54360000D01*
G75*
G02*
X159875000Y-54610000I0J-250000D01*
G01*
X159875000Y-56060000D01*
G75*
G02*
X159625000Y-56310000I-250000J0D01*
G01*
X158425000Y-56310000D01*
G75*
G02*
X158175000Y-56060000I0J250000D01*
G01*
G37*
X161525000Y-55335000D03*
X164025000Y-55335000D03*
X166525000Y-55335000D03*
D26*
X124325000Y-45415000D03*
X129325000Y-45415000D03*
X139325000Y-45415000D03*
X144325000Y-45415000D03*
G36*
G01*
X158175000Y-48092500D02*
X158175000Y-46642500D01*
G75*
G02*
X158425000Y-46392500I250000J0D01*
G01*
X159625000Y-46392500D01*
G75*
G02*
X159875000Y-46642500I0J-250000D01*
G01*
X159875000Y-48092500D01*
G75*
G02*
X159625000Y-48342500I-250000J0D01*
G01*
X158425000Y-48342500D01*
G75*
G02*
X158175000Y-48092500I0J250000D01*
G01*
G37*
D14*
X161525000Y-47367500D03*
X164025000Y-47367500D03*
X166525000Y-47367500D03*
M02*
