G04 #@! TF.GenerationSoftware,KiCad,Pcbnew,9.0.7+1*
G04 #@! TF.CreationDate,2026-07-20T18:17:11+00:00*
G04 #@! TF.ProjectId,hw-openmower-yardforce,68772d6f-7065-46e6-9d6f-7765722d7961,rev?*
G04 #@! TF.SameCoordinates,Original*
G04 #@! TF.FileFunction,Legend,Bot*
G04 #@! TF.FilePolarity,Positive*
%FSLAX46Y46*%
G04 Gerber Fmt 4.6, Leading zero omitted, Abs format (unit mm)*
G04 Created by KiCad (PCBNEW 9.0.7+1) date 2026-07-20 18:17:11*
%MOMM*%
%LPD*%
G01*
G04 APERTURE LIST*
%ADD10C,0.100000*%
%ADD11C,6.000000*%
%ADD12R,2.000000X2.000000*%
%ADD13C,2.000000*%
%ADD14R,1.700000X1.700000*%
%ADD15O,1.700000X1.700000*%
%ADD16R,1.500000X1.500000*%
%ADD17C,1.500000*%
%ADD18C,3.250000*%
%ADD19C,1.602000*%
%ADD20C,1.734000*%
%ADD21C,2.649000*%
%ADD22O,1.700000X1.950000*%
%ADD23O,1.727200X2.500000*%
%ADD24C,0.900000*%
%ADD25C,10.000000*%
%ADD26O,3.000000X1.700000*%
%ADD27O,1.700000X3.000000*%
%ADD28O,1.500000X2.000000*%
%ADD29O,2.700000X3.300000*%
%ADD30R,1.500000X1.600000*%
%ADD31C,1.600000*%
%ADD32C,3.000000*%
%ADD33O,1.200000X1.750000*%
%ADD34C,1.100000*%
%ADD35O,8.400000X6.400000*%
%ADD36R,1.300000X1.300000*%
%ADD37C,1.300000*%
%ADD38O,2.700000X3.500000*%
%ADD39C,1.700000*%
%ADD40R,2.030000X1.730000*%
%ADD41O,2.030000X1.730000*%
%ADD42C,1.524000*%
%ADD43O,1.700000X2.000000*%
%ADD44C,13.000000*%
%ADD45C,3.500000*%
G04 APERTURE END LIST*
D10*
X182600000Y-42350000D02*
X195150000Y-42350000D01*
X182600000Y-47000000D02*
X182600000Y-42350000D01*
X195150000Y-42350000D02*
X195150000Y-47000000D01*
X158492580Y-37769925D02*
X158492580Y-38246115D01*
X158492580Y-38246115D02*
X158016390Y-38293734D01*
X158016390Y-38293734D02*
X158064009Y-38246115D01*
X158064009Y-38246115D02*
X158111628Y-38150877D01*
X158111628Y-38150877D02*
X158111628Y-37912782D01*
X158111628Y-37912782D02*
X158064009Y-37817544D01*
X158064009Y-37817544D02*
X158016390Y-37769925D01*
X158016390Y-37769925D02*
X157921152Y-37722306D01*
X157921152Y-37722306D02*
X157683057Y-37722306D01*
X157683057Y-37722306D02*
X157587819Y-37769925D01*
X157587819Y-37769925D02*
X157540200Y-37817544D01*
X157540200Y-37817544D02*
X157492580Y-37912782D01*
X157492580Y-37912782D02*
X157492580Y-38150877D01*
X157492580Y-38150877D02*
X157540200Y-38246115D01*
X157540200Y-38246115D02*
X157587819Y-38293734D01*
X158492580Y-37436591D02*
X157492580Y-37103258D01*
X157492580Y-37103258D02*
X158492580Y-36769925D01*
X158492580Y-46469925D02*
X158492580Y-46946115D01*
X158492580Y-46946115D02*
X158016390Y-46993734D01*
X158016390Y-46993734D02*
X158064009Y-46946115D01*
X158064009Y-46946115D02*
X158111628Y-46850877D01*
X158111628Y-46850877D02*
X158111628Y-46612782D01*
X158111628Y-46612782D02*
X158064009Y-46517544D01*
X158064009Y-46517544D02*
X158016390Y-46469925D01*
X158016390Y-46469925D02*
X157921152Y-46422306D01*
X157921152Y-46422306D02*
X157683057Y-46422306D01*
X157683057Y-46422306D02*
X157587819Y-46469925D01*
X157587819Y-46469925D02*
X157540200Y-46517544D01*
X157540200Y-46517544D02*
X157492580Y-46612782D01*
X157492580Y-46612782D02*
X157492580Y-46850877D01*
X157492580Y-46850877D02*
X157540200Y-46946115D01*
X157540200Y-46946115D02*
X157587819Y-46993734D01*
X158492580Y-46136591D02*
X157492580Y-45803258D01*
X157492580Y-45803258D02*
X158492580Y-45469925D01*
X158542580Y-55119925D02*
X158542580Y-55596115D01*
X158542580Y-55596115D02*
X158066390Y-55643734D01*
X158066390Y-55643734D02*
X158114009Y-55596115D01*
X158114009Y-55596115D02*
X158161628Y-55500877D01*
X158161628Y-55500877D02*
X158161628Y-55262782D01*
X158161628Y-55262782D02*
X158114009Y-55167544D01*
X158114009Y-55167544D02*
X158066390Y-55119925D01*
X158066390Y-55119925D02*
X157971152Y-55072306D01*
X157971152Y-55072306D02*
X157733057Y-55072306D01*
X157733057Y-55072306D02*
X157637819Y-55119925D01*
X157637819Y-55119925D02*
X157590200Y-55167544D01*
X157590200Y-55167544D02*
X157542580Y-55262782D01*
X157542580Y-55262782D02*
X157542580Y-55500877D01*
X157542580Y-55500877D02*
X157590200Y-55596115D01*
X157590200Y-55596115D02*
X157637819Y-55643734D01*
X158542580Y-54786591D02*
X157542580Y-54453258D01*
X157542580Y-54453258D02*
X158542580Y-54119925D01*
X170092580Y-37819925D02*
X170092580Y-38296115D01*
X170092580Y-38296115D02*
X169616390Y-38343734D01*
X169616390Y-38343734D02*
X169664009Y-38296115D01*
X169664009Y-38296115D02*
X169711628Y-38200877D01*
X169711628Y-38200877D02*
X169711628Y-37962782D01*
X169711628Y-37962782D02*
X169664009Y-37867544D01*
X169664009Y-37867544D02*
X169616390Y-37819925D01*
X169616390Y-37819925D02*
X169521152Y-37772306D01*
X169521152Y-37772306D02*
X169283057Y-37772306D01*
X169283057Y-37772306D02*
X169187819Y-37819925D01*
X169187819Y-37819925D02*
X169140200Y-37867544D01*
X169140200Y-37867544D02*
X169092580Y-37962782D01*
X169092580Y-37962782D02*
X169092580Y-38200877D01*
X169092580Y-38200877D02*
X169140200Y-38296115D01*
X169140200Y-38296115D02*
X169187819Y-38343734D01*
X170092580Y-37486591D02*
X169092580Y-37153258D01*
X169092580Y-37153258D02*
X170092580Y-36819925D01*
X170092580Y-46469925D02*
X170092580Y-46946115D01*
X170092580Y-46946115D02*
X169616390Y-46993734D01*
X169616390Y-46993734D02*
X169664009Y-46946115D01*
X169664009Y-46946115D02*
X169711628Y-46850877D01*
X169711628Y-46850877D02*
X169711628Y-46612782D01*
X169711628Y-46612782D02*
X169664009Y-46517544D01*
X169664009Y-46517544D02*
X169616390Y-46469925D01*
X169616390Y-46469925D02*
X169521152Y-46422306D01*
X169521152Y-46422306D02*
X169283057Y-46422306D01*
X169283057Y-46422306D02*
X169187819Y-46469925D01*
X169187819Y-46469925D02*
X169140200Y-46517544D01*
X169140200Y-46517544D02*
X169092580Y-46612782D01*
X169092580Y-46612782D02*
X169092580Y-46850877D01*
X169092580Y-46850877D02*
X169140200Y-46946115D01*
X169140200Y-46946115D02*
X169187819Y-46993734D01*
X170092580Y-46136591D02*
X169092580Y-45803258D01*
X169092580Y-45803258D02*
X170092580Y-45469925D01*
X170142580Y-55119925D02*
X170142580Y-55596115D01*
X170142580Y-55596115D02*
X169666390Y-55643734D01*
X169666390Y-55643734D02*
X169714009Y-55596115D01*
X169714009Y-55596115D02*
X169761628Y-55500877D01*
X169761628Y-55500877D02*
X169761628Y-55262782D01*
X169761628Y-55262782D02*
X169714009Y-55167544D01*
X169714009Y-55167544D02*
X169666390Y-55119925D01*
X169666390Y-55119925D02*
X169571152Y-55072306D01*
X169571152Y-55072306D02*
X169333057Y-55072306D01*
X169333057Y-55072306D02*
X169237819Y-55119925D01*
X169237819Y-55119925D02*
X169190200Y-55167544D01*
X169190200Y-55167544D02*
X169142580Y-55262782D01*
X169142580Y-55262782D02*
X169142580Y-55500877D01*
X169142580Y-55500877D02*
X169190200Y-55596115D01*
X169190200Y-55596115D02*
X169237819Y-55643734D01*
X170142580Y-54786591D02*
X169142580Y-54453258D01*
X169142580Y-54453258D02*
X170142580Y-54119925D01*
X181692580Y-55119925D02*
X181692580Y-55596115D01*
X181692580Y-55596115D02*
X181216390Y-55643734D01*
X181216390Y-55643734D02*
X181264009Y-55596115D01*
X181264009Y-55596115D02*
X181311628Y-55500877D01*
X181311628Y-55500877D02*
X181311628Y-55262782D01*
X181311628Y-55262782D02*
X181264009Y-55167544D01*
X181264009Y-55167544D02*
X181216390Y-55119925D01*
X181216390Y-55119925D02*
X181121152Y-55072306D01*
X181121152Y-55072306D02*
X180883057Y-55072306D01*
X180883057Y-55072306D02*
X180787819Y-55119925D01*
X180787819Y-55119925D02*
X180740200Y-55167544D01*
X180740200Y-55167544D02*
X180692580Y-55262782D01*
X180692580Y-55262782D02*
X180692580Y-55500877D01*
X180692580Y-55500877D02*
X180740200Y-55596115D01*
X180740200Y-55596115D02*
X180787819Y-55643734D01*
X181692580Y-54786591D02*
X180692580Y-54453258D01*
X180692580Y-54453258D02*
X181692580Y-54119925D01*
X159992580Y-38246115D02*
X160992580Y-38246115D01*
X160516390Y-38246115D02*
X160516390Y-37674687D01*
X159992580Y-37674687D02*
X160992580Y-37674687D01*
X159992580Y-36769925D02*
X160516390Y-36769925D01*
X160516390Y-36769925D02*
X160611628Y-36817544D01*
X160611628Y-36817544D02*
X160659247Y-36912782D01*
X160659247Y-36912782D02*
X160659247Y-37103258D01*
X160659247Y-37103258D02*
X160611628Y-37198496D01*
X160040200Y-36769925D02*
X159992580Y-36865163D01*
X159992580Y-36865163D02*
X159992580Y-37103258D01*
X159992580Y-37103258D02*
X160040200Y-37198496D01*
X160040200Y-37198496D02*
X160135438Y-37246115D01*
X160135438Y-37246115D02*
X160230676Y-37246115D01*
X160230676Y-37246115D02*
X160325914Y-37198496D01*
X160325914Y-37198496D02*
X160373533Y-37103258D01*
X160373533Y-37103258D02*
X160373533Y-36865163D01*
X160373533Y-36865163D02*
X160421152Y-36769925D01*
X159992580Y-36150877D02*
X160040200Y-36246115D01*
X160040200Y-36246115D02*
X160135438Y-36293734D01*
X160135438Y-36293734D02*
X160992580Y-36293734D01*
X159992580Y-35627067D02*
X160040200Y-35722305D01*
X160040200Y-35722305D02*
X160135438Y-35769924D01*
X160135438Y-35769924D02*
X160992580Y-35769924D01*
X160992580Y-35341352D02*
X160992580Y-34722305D01*
X160992580Y-34722305D02*
X160611628Y-35055638D01*
X160611628Y-35055638D02*
X160611628Y-34912781D01*
X160611628Y-34912781D02*
X160564009Y-34817543D01*
X160564009Y-34817543D02*
X160516390Y-34769924D01*
X160516390Y-34769924D02*
X160421152Y-34722305D01*
X160421152Y-34722305D02*
X160183057Y-34722305D01*
X160183057Y-34722305D02*
X160087819Y-34769924D01*
X160087819Y-34769924D02*
X160040200Y-34817543D01*
X160040200Y-34817543D02*
X159992580Y-34912781D01*
X159992580Y-34912781D02*
X159992580Y-35198495D01*
X159992580Y-35198495D02*
X160040200Y-35293733D01*
X160040200Y-35293733D02*
X160087819Y-35341352D01*
X159992580Y-46946115D02*
X160992580Y-46946115D01*
X160516390Y-46946115D02*
X160516390Y-46374687D01*
X159992580Y-46374687D02*
X160992580Y-46374687D01*
X159992580Y-45469925D02*
X160516390Y-45469925D01*
X160516390Y-45469925D02*
X160611628Y-45517544D01*
X160611628Y-45517544D02*
X160659247Y-45612782D01*
X160659247Y-45612782D02*
X160659247Y-45803258D01*
X160659247Y-45803258D02*
X160611628Y-45898496D01*
X160040200Y-45469925D02*
X159992580Y-45565163D01*
X159992580Y-45565163D02*
X159992580Y-45803258D01*
X159992580Y-45803258D02*
X160040200Y-45898496D01*
X160040200Y-45898496D02*
X160135438Y-45946115D01*
X160135438Y-45946115D02*
X160230676Y-45946115D01*
X160230676Y-45946115D02*
X160325914Y-45898496D01*
X160325914Y-45898496D02*
X160373533Y-45803258D01*
X160373533Y-45803258D02*
X160373533Y-45565163D01*
X160373533Y-45565163D02*
X160421152Y-45469925D01*
X159992580Y-44850877D02*
X160040200Y-44946115D01*
X160040200Y-44946115D02*
X160135438Y-44993734D01*
X160135438Y-44993734D02*
X160992580Y-44993734D01*
X159992580Y-44327067D02*
X160040200Y-44422305D01*
X160040200Y-44422305D02*
X160135438Y-44469924D01*
X160135438Y-44469924D02*
X160992580Y-44469924D01*
X159992580Y-43422305D02*
X159992580Y-43993733D01*
X159992580Y-43708019D02*
X160992580Y-43708019D01*
X160992580Y-43708019D02*
X160849723Y-43803257D01*
X160849723Y-43803257D02*
X160754485Y-43898495D01*
X160754485Y-43898495D02*
X160706866Y-43993733D01*
X160042580Y-55596115D02*
X161042580Y-55596115D01*
X160566390Y-55596115D02*
X160566390Y-55024687D01*
X160042580Y-55024687D02*
X161042580Y-55024687D01*
X160042580Y-54119925D02*
X160566390Y-54119925D01*
X160566390Y-54119925D02*
X160661628Y-54167544D01*
X160661628Y-54167544D02*
X160709247Y-54262782D01*
X160709247Y-54262782D02*
X160709247Y-54453258D01*
X160709247Y-54453258D02*
X160661628Y-54548496D01*
X160090200Y-54119925D02*
X160042580Y-54215163D01*
X160042580Y-54215163D02*
X160042580Y-54453258D01*
X160042580Y-54453258D02*
X160090200Y-54548496D01*
X160090200Y-54548496D02*
X160185438Y-54596115D01*
X160185438Y-54596115D02*
X160280676Y-54596115D01*
X160280676Y-54596115D02*
X160375914Y-54548496D01*
X160375914Y-54548496D02*
X160423533Y-54453258D01*
X160423533Y-54453258D02*
X160423533Y-54215163D01*
X160423533Y-54215163D02*
X160471152Y-54119925D01*
X160042580Y-53500877D02*
X160090200Y-53596115D01*
X160090200Y-53596115D02*
X160185438Y-53643734D01*
X160185438Y-53643734D02*
X161042580Y-53643734D01*
X160042580Y-52977067D02*
X160090200Y-53072305D01*
X160090200Y-53072305D02*
X160185438Y-53119924D01*
X160185438Y-53119924D02*
X161042580Y-53119924D01*
X160709247Y-52167543D02*
X160042580Y-52167543D01*
X161090200Y-52405638D02*
X160375914Y-52643733D01*
X160375914Y-52643733D02*
X160375914Y-52024686D01*
X163444961Y-37722306D02*
X163492580Y-37817544D01*
X163492580Y-37817544D02*
X163492580Y-37960401D01*
X163492580Y-37960401D02*
X163444961Y-38103258D01*
X163444961Y-38103258D02*
X163349723Y-38198496D01*
X163349723Y-38198496D02*
X163254485Y-38246115D01*
X163254485Y-38246115D02*
X163064009Y-38293734D01*
X163064009Y-38293734D02*
X162921152Y-38293734D01*
X162921152Y-38293734D02*
X162730676Y-38246115D01*
X162730676Y-38246115D02*
X162635438Y-38198496D01*
X162635438Y-38198496D02*
X162540200Y-38103258D01*
X162540200Y-38103258D02*
X162492580Y-37960401D01*
X162492580Y-37960401D02*
X162492580Y-37865163D01*
X162492580Y-37865163D02*
X162540200Y-37722306D01*
X162540200Y-37722306D02*
X162587819Y-37674687D01*
X162587819Y-37674687D02*
X162921152Y-37674687D01*
X162921152Y-37674687D02*
X162921152Y-37865163D01*
X162492580Y-37246115D02*
X163492580Y-37246115D01*
X163492580Y-37246115D02*
X162492580Y-36674687D01*
X162492580Y-36674687D02*
X163492580Y-36674687D01*
X162492580Y-36198496D02*
X163492580Y-36198496D01*
X163492580Y-36198496D02*
X163492580Y-35960401D01*
X163492580Y-35960401D02*
X163444961Y-35817544D01*
X163444961Y-35817544D02*
X163349723Y-35722306D01*
X163349723Y-35722306D02*
X163254485Y-35674687D01*
X163254485Y-35674687D02*
X163064009Y-35627068D01*
X163064009Y-35627068D02*
X162921152Y-35627068D01*
X162921152Y-35627068D02*
X162730676Y-35674687D01*
X162730676Y-35674687D02*
X162635438Y-35722306D01*
X162635438Y-35722306D02*
X162540200Y-35817544D01*
X162540200Y-35817544D02*
X162492580Y-35960401D01*
X162492580Y-35960401D02*
X162492580Y-36198496D01*
X163494961Y-46422306D02*
X163542580Y-46517544D01*
X163542580Y-46517544D02*
X163542580Y-46660401D01*
X163542580Y-46660401D02*
X163494961Y-46803258D01*
X163494961Y-46803258D02*
X163399723Y-46898496D01*
X163399723Y-46898496D02*
X163304485Y-46946115D01*
X163304485Y-46946115D02*
X163114009Y-46993734D01*
X163114009Y-46993734D02*
X162971152Y-46993734D01*
X162971152Y-46993734D02*
X162780676Y-46946115D01*
X162780676Y-46946115D02*
X162685438Y-46898496D01*
X162685438Y-46898496D02*
X162590200Y-46803258D01*
X162590200Y-46803258D02*
X162542580Y-46660401D01*
X162542580Y-46660401D02*
X162542580Y-46565163D01*
X162542580Y-46565163D02*
X162590200Y-46422306D01*
X162590200Y-46422306D02*
X162637819Y-46374687D01*
X162637819Y-46374687D02*
X162971152Y-46374687D01*
X162971152Y-46374687D02*
X162971152Y-46565163D01*
X162542580Y-45946115D02*
X163542580Y-45946115D01*
X163542580Y-45946115D02*
X162542580Y-45374687D01*
X162542580Y-45374687D02*
X163542580Y-45374687D01*
X162542580Y-44898496D02*
X163542580Y-44898496D01*
X163542580Y-44898496D02*
X163542580Y-44660401D01*
X163542580Y-44660401D02*
X163494961Y-44517544D01*
X163494961Y-44517544D02*
X163399723Y-44422306D01*
X163399723Y-44422306D02*
X163304485Y-44374687D01*
X163304485Y-44374687D02*
X163114009Y-44327068D01*
X163114009Y-44327068D02*
X162971152Y-44327068D01*
X162971152Y-44327068D02*
X162780676Y-44374687D01*
X162780676Y-44374687D02*
X162685438Y-44422306D01*
X162685438Y-44422306D02*
X162590200Y-44517544D01*
X162590200Y-44517544D02*
X162542580Y-44660401D01*
X162542580Y-44660401D02*
X162542580Y-44898496D01*
X163494961Y-55072306D02*
X163542580Y-55167544D01*
X163542580Y-55167544D02*
X163542580Y-55310401D01*
X163542580Y-55310401D02*
X163494961Y-55453258D01*
X163494961Y-55453258D02*
X163399723Y-55548496D01*
X163399723Y-55548496D02*
X163304485Y-55596115D01*
X163304485Y-55596115D02*
X163114009Y-55643734D01*
X163114009Y-55643734D02*
X162971152Y-55643734D01*
X162971152Y-55643734D02*
X162780676Y-55596115D01*
X162780676Y-55596115D02*
X162685438Y-55548496D01*
X162685438Y-55548496D02*
X162590200Y-55453258D01*
X162590200Y-55453258D02*
X162542580Y-55310401D01*
X162542580Y-55310401D02*
X162542580Y-55215163D01*
X162542580Y-55215163D02*
X162590200Y-55072306D01*
X162590200Y-55072306D02*
X162637819Y-55024687D01*
X162637819Y-55024687D02*
X162971152Y-55024687D01*
X162971152Y-55024687D02*
X162971152Y-55215163D01*
X162542580Y-54596115D02*
X163542580Y-54596115D01*
X163542580Y-54596115D02*
X162542580Y-54024687D01*
X162542580Y-54024687D02*
X163542580Y-54024687D01*
X162542580Y-53548496D02*
X163542580Y-53548496D01*
X163542580Y-53548496D02*
X163542580Y-53310401D01*
X163542580Y-53310401D02*
X163494961Y-53167544D01*
X163494961Y-53167544D02*
X163399723Y-53072306D01*
X163399723Y-53072306D02*
X163304485Y-53024687D01*
X163304485Y-53024687D02*
X163114009Y-52977068D01*
X163114009Y-52977068D02*
X162971152Y-52977068D01*
X162971152Y-52977068D02*
X162780676Y-53024687D01*
X162780676Y-53024687D02*
X162685438Y-53072306D01*
X162685438Y-53072306D02*
X162590200Y-53167544D01*
X162590200Y-53167544D02*
X162542580Y-53310401D01*
X162542580Y-53310401D02*
X162542580Y-53548496D01*
X171637093Y-46988895D02*
X172637093Y-46988895D01*
X172160903Y-46988895D02*
X172160903Y-46417467D01*
X171637093Y-46417467D02*
X172637093Y-46417467D01*
X171637093Y-45512705D02*
X172160903Y-45512705D01*
X172160903Y-45512705D02*
X172256141Y-45560324D01*
X172256141Y-45560324D02*
X172303760Y-45655562D01*
X172303760Y-45655562D02*
X172303760Y-45846038D01*
X172303760Y-45846038D02*
X172256141Y-45941276D01*
X171684713Y-45512705D02*
X171637093Y-45607943D01*
X171637093Y-45607943D02*
X171637093Y-45846038D01*
X171637093Y-45846038D02*
X171684713Y-45941276D01*
X171684713Y-45941276D02*
X171779951Y-45988895D01*
X171779951Y-45988895D02*
X171875189Y-45988895D01*
X171875189Y-45988895D02*
X171970427Y-45941276D01*
X171970427Y-45941276D02*
X172018046Y-45846038D01*
X172018046Y-45846038D02*
X172018046Y-45607943D01*
X172018046Y-45607943D02*
X172065665Y-45512705D01*
X171637093Y-44893657D02*
X171684713Y-44988895D01*
X171684713Y-44988895D02*
X171779951Y-45036514D01*
X171779951Y-45036514D02*
X172637093Y-45036514D01*
X171637093Y-44369847D02*
X171684713Y-44465085D01*
X171684713Y-44465085D02*
X171779951Y-44512704D01*
X171779951Y-44512704D02*
X172637093Y-44512704D01*
X172637093Y-43798418D02*
X172637093Y-43703180D01*
X172637093Y-43703180D02*
X172589474Y-43607942D01*
X172589474Y-43607942D02*
X172541855Y-43560323D01*
X172541855Y-43560323D02*
X172446617Y-43512704D01*
X172446617Y-43512704D02*
X172256141Y-43465085D01*
X172256141Y-43465085D02*
X172018046Y-43465085D01*
X172018046Y-43465085D02*
X171827570Y-43512704D01*
X171827570Y-43512704D02*
X171732332Y-43560323D01*
X171732332Y-43560323D02*
X171684713Y-43607942D01*
X171684713Y-43607942D02*
X171637093Y-43703180D01*
X171637093Y-43703180D02*
X171637093Y-43798418D01*
X171637093Y-43798418D02*
X171684713Y-43893656D01*
X171684713Y-43893656D02*
X171732332Y-43941275D01*
X171732332Y-43941275D02*
X171827570Y-43988894D01*
X171827570Y-43988894D02*
X172018046Y-44036513D01*
X172018046Y-44036513D02*
X172256141Y-44036513D01*
X172256141Y-44036513D02*
X172446617Y-43988894D01*
X172446617Y-43988894D02*
X172541855Y-43941275D01*
X172541855Y-43941275D02*
X172589474Y-43893656D01*
X172589474Y-43893656D02*
X172637093Y-43798418D01*
X171642580Y-38246115D02*
X172642580Y-38246115D01*
X172166390Y-38246115D02*
X172166390Y-37674687D01*
X171642580Y-37674687D02*
X172642580Y-37674687D01*
X171642580Y-36769925D02*
X172166390Y-36769925D01*
X172166390Y-36769925D02*
X172261628Y-36817544D01*
X172261628Y-36817544D02*
X172309247Y-36912782D01*
X172309247Y-36912782D02*
X172309247Y-37103258D01*
X172309247Y-37103258D02*
X172261628Y-37198496D01*
X171690200Y-36769925D02*
X171642580Y-36865163D01*
X171642580Y-36865163D02*
X171642580Y-37103258D01*
X171642580Y-37103258D02*
X171690200Y-37198496D01*
X171690200Y-37198496D02*
X171785438Y-37246115D01*
X171785438Y-37246115D02*
X171880676Y-37246115D01*
X171880676Y-37246115D02*
X171975914Y-37198496D01*
X171975914Y-37198496D02*
X172023533Y-37103258D01*
X172023533Y-37103258D02*
X172023533Y-36865163D01*
X172023533Y-36865163D02*
X172071152Y-36769925D01*
X171642580Y-36150877D02*
X171690200Y-36246115D01*
X171690200Y-36246115D02*
X171785438Y-36293734D01*
X171785438Y-36293734D02*
X172642580Y-36293734D01*
X171642580Y-35627067D02*
X171690200Y-35722305D01*
X171690200Y-35722305D02*
X171785438Y-35769924D01*
X171785438Y-35769924D02*
X172642580Y-35769924D01*
X172547342Y-35293733D02*
X172594961Y-35246114D01*
X172594961Y-35246114D02*
X172642580Y-35150876D01*
X172642580Y-35150876D02*
X172642580Y-34912781D01*
X172642580Y-34912781D02*
X172594961Y-34817543D01*
X172594961Y-34817543D02*
X172547342Y-34769924D01*
X172547342Y-34769924D02*
X172452104Y-34722305D01*
X172452104Y-34722305D02*
X172356866Y-34722305D01*
X172356866Y-34722305D02*
X172214009Y-34769924D01*
X172214009Y-34769924D02*
X171642580Y-35341352D01*
X171642580Y-35341352D02*
X171642580Y-34722305D01*
X171642580Y-55646115D02*
X172642580Y-55646115D01*
X172166390Y-55646115D02*
X172166390Y-55074687D01*
X171642580Y-55074687D02*
X172642580Y-55074687D01*
X171642580Y-54169925D02*
X172166390Y-54169925D01*
X172166390Y-54169925D02*
X172261628Y-54217544D01*
X172261628Y-54217544D02*
X172309247Y-54312782D01*
X172309247Y-54312782D02*
X172309247Y-54503258D01*
X172309247Y-54503258D02*
X172261628Y-54598496D01*
X171690200Y-54169925D02*
X171642580Y-54265163D01*
X171642580Y-54265163D02*
X171642580Y-54503258D01*
X171642580Y-54503258D02*
X171690200Y-54598496D01*
X171690200Y-54598496D02*
X171785438Y-54646115D01*
X171785438Y-54646115D02*
X171880676Y-54646115D01*
X171880676Y-54646115D02*
X171975914Y-54598496D01*
X171975914Y-54598496D02*
X172023533Y-54503258D01*
X172023533Y-54503258D02*
X172023533Y-54265163D01*
X172023533Y-54265163D02*
X172071152Y-54169925D01*
X171642580Y-53550877D02*
X171690200Y-53646115D01*
X171690200Y-53646115D02*
X171785438Y-53693734D01*
X171785438Y-53693734D02*
X172642580Y-53693734D01*
X171642580Y-53027067D02*
X171690200Y-53122305D01*
X171690200Y-53122305D02*
X171785438Y-53169924D01*
X171785438Y-53169924D02*
X172642580Y-53169924D01*
X172642580Y-52169924D02*
X172642580Y-52646114D01*
X172642580Y-52646114D02*
X172166390Y-52693733D01*
X172166390Y-52693733D02*
X172214009Y-52646114D01*
X172214009Y-52646114D02*
X172261628Y-52550876D01*
X172261628Y-52550876D02*
X172261628Y-52312781D01*
X172261628Y-52312781D02*
X172214009Y-52217543D01*
X172214009Y-52217543D02*
X172166390Y-52169924D01*
X172166390Y-52169924D02*
X172071152Y-52122305D01*
X172071152Y-52122305D02*
X171833057Y-52122305D01*
X171833057Y-52122305D02*
X171737819Y-52169924D01*
X171737819Y-52169924D02*
X171690200Y-52217543D01*
X171690200Y-52217543D02*
X171642580Y-52312781D01*
X171642580Y-52312781D02*
X171642580Y-52550876D01*
X171642580Y-52550876D02*
X171690200Y-52646114D01*
X171690200Y-52646114D02*
X171737819Y-52693733D01*
X175044961Y-55072306D02*
X175092580Y-55167544D01*
X175092580Y-55167544D02*
X175092580Y-55310401D01*
X175092580Y-55310401D02*
X175044961Y-55453258D01*
X175044961Y-55453258D02*
X174949723Y-55548496D01*
X174949723Y-55548496D02*
X174854485Y-55596115D01*
X174854485Y-55596115D02*
X174664009Y-55643734D01*
X174664009Y-55643734D02*
X174521152Y-55643734D01*
X174521152Y-55643734D02*
X174330676Y-55596115D01*
X174330676Y-55596115D02*
X174235438Y-55548496D01*
X174235438Y-55548496D02*
X174140200Y-55453258D01*
X174140200Y-55453258D02*
X174092580Y-55310401D01*
X174092580Y-55310401D02*
X174092580Y-55215163D01*
X174092580Y-55215163D02*
X174140200Y-55072306D01*
X174140200Y-55072306D02*
X174187819Y-55024687D01*
X174187819Y-55024687D02*
X174521152Y-55024687D01*
X174521152Y-55024687D02*
X174521152Y-55215163D01*
X174092580Y-54596115D02*
X175092580Y-54596115D01*
X175092580Y-54596115D02*
X174092580Y-54024687D01*
X174092580Y-54024687D02*
X175092580Y-54024687D01*
X174092580Y-53548496D02*
X175092580Y-53548496D01*
X175092580Y-53548496D02*
X175092580Y-53310401D01*
X175092580Y-53310401D02*
X175044961Y-53167544D01*
X175044961Y-53167544D02*
X174949723Y-53072306D01*
X174949723Y-53072306D02*
X174854485Y-53024687D01*
X174854485Y-53024687D02*
X174664009Y-52977068D01*
X174664009Y-52977068D02*
X174521152Y-52977068D01*
X174521152Y-52977068D02*
X174330676Y-53024687D01*
X174330676Y-53024687D02*
X174235438Y-53072306D01*
X174235438Y-53072306D02*
X174140200Y-53167544D01*
X174140200Y-53167544D02*
X174092580Y-53310401D01*
X174092580Y-53310401D02*
X174092580Y-53548496D01*
X175094961Y-37722306D02*
X175142580Y-37817544D01*
X175142580Y-37817544D02*
X175142580Y-37960401D01*
X175142580Y-37960401D02*
X175094961Y-38103258D01*
X175094961Y-38103258D02*
X174999723Y-38198496D01*
X174999723Y-38198496D02*
X174904485Y-38246115D01*
X174904485Y-38246115D02*
X174714009Y-38293734D01*
X174714009Y-38293734D02*
X174571152Y-38293734D01*
X174571152Y-38293734D02*
X174380676Y-38246115D01*
X174380676Y-38246115D02*
X174285438Y-38198496D01*
X174285438Y-38198496D02*
X174190200Y-38103258D01*
X174190200Y-38103258D02*
X174142580Y-37960401D01*
X174142580Y-37960401D02*
X174142580Y-37865163D01*
X174142580Y-37865163D02*
X174190200Y-37722306D01*
X174190200Y-37722306D02*
X174237819Y-37674687D01*
X174237819Y-37674687D02*
X174571152Y-37674687D01*
X174571152Y-37674687D02*
X174571152Y-37865163D01*
X174142580Y-37246115D02*
X175142580Y-37246115D01*
X175142580Y-37246115D02*
X174142580Y-36674687D01*
X174142580Y-36674687D02*
X175142580Y-36674687D01*
X174142580Y-36198496D02*
X175142580Y-36198496D01*
X175142580Y-36198496D02*
X175142580Y-35960401D01*
X175142580Y-35960401D02*
X175094961Y-35817544D01*
X175094961Y-35817544D02*
X174999723Y-35722306D01*
X174999723Y-35722306D02*
X174904485Y-35674687D01*
X174904485Y-35674687D02*
X174714009Y-35627068D01*
X174714009Y-35627068D02*
X174571152Y-35627068D01*
X174571152Y-35627068D02*
X174380676Y-35674687D01*
X174380676Y-35674687D02*
X174285438Y-35722306D01*
X174285438Y-35722306D02*
X174190200Y-35817544D01*
X174190200Y-35817544D02*
X174142580Y-35960401D01*
X174142580Y-35960401D02*
X174142580Y-36198496D01*
X175094961Y-46422306D02*
X175142580Y-46517544D01*
X175142580Y-46517544D02*
X175142580Y-46660401D01*
X175142580Y-46660401D02*
X175094961Y-46803258D01*
X175094961Y-46803258D02*
X174999723Y-46898496D01*
X174999723Y-46898496D02*
X174904485Y-46946115D01*
X174904485Y-46946115D02*
X174714009Y-46993734D01*
X174714009Y-46993734D02*
X174571152Y-46993734D01*
X174571152Y-46993734D02*
X174380676Y-46946115D01*
X174380676Y-46946115D02*
X174285438Y-46898496D01*
X174285438Y-46898496D02*
X174190200Y-46803258D01*
X174190200Y-46803258D02*
X174142580Y-46660401D01*
X174142580Y-46660401D02*
X174142580Y-46565163D01*
X174142580Y-46565163D02*
X174190200Y-46422306D01*
X174190200Y-46422306D02*
X174237819Y-46374687D01*
X174237819Y-46374687D02*
X174571152Y-46374687D01*
X174571152Y-46374687D02*
X174571152Y-46565163D01*
X174142580Y-45946115D02*
X175142580Y-45946115D01*
X175142580Y-45946115D02*
X174142580Y-45374687D01*
X174142580Y-45374687D02*
X175142580Y-45374687D01*
X174142580Y-44898496D02*
X175142580Y-44898496D01*
X175142580Y-44898496D02*
X175142580Y-44660401D01*
X175142580Y-44660401D02*
X175094961Y-44517544D01*
X175094961Y-44517544D02*
X174999723Y-44422306D01*
X174999723Y-44422306D02*
X174904485Y-44374687D01*
X174904485Y-44374687D02*
X174714009Y-44327068D01*
X174714009Y-44327068D02*
X174571152Y-44327068D01*
X174571152Y-44327068D02*
X174380676Y-44374687D01*
X174380676Y-44374687D02*
X174285438Y-44422306D01*
X174285438Y-44422306D02*
X174190200Y-44517544D01*
X174190200Y-44517544D02*
X174142580Y-44660401D01*
X174142580Y-44660401D02*
X174142580Y-44898496D01*
X183528040Y-38031890D02*
X183575659Y-38127128D01*
X183575659Y-38127128D02*
X183575659Y-38269985D01*
X183575659Y-38269985D02*
X183528040Y-38412842D01*
X183528040Y-38412842D02*
X183432802Y-38508080D01*
X183432802Y-38508080D02*
X183337564Y-38555699D01*
X183337564Y-38555699D02*
X183147088Y-38603318D01*
X183147088Y-38603318D02*
X183004231Y-38603318D01*
X183004231Y-38603318D02*
X182813755Y-38555699D01*
X182813755Y-38555699D02*
X182718517Y-38508080D01*
X182718517Y-38508080D02*
X182623279Y-38412842D01*
X182623279Y-38412842D02*
X182575659Y-38269985D01*
X182575659Y-38269985D02*
X182575659Y-38174747D01*
X182575659Y-38174747D02*
X182623279Y-38031890D01*
X182623279Y-38031890D02*
X182670898Y-37984271D01*
X182670898Y-37984271D02*
X183004231Y-37984271D01*
X183004231Y-37984271D02*
X183004231Y-38174747D01*
X182575659Y-37555699D02*
X183575659Y-37555699D01*
X183575659Y-37555699D02*
X182575659Y-36984271D01*
X182575659Y-36984271D02*
X183575659Y-36984271D01*
X182575659Y-36508080D02*
X183575659Y-36508080D01*
X183575659Y-36508080D02*
X183575659Y-36269985D01*
X183575659Y-36269985D02*
X183528040Y-36127128D01*
X183528040Y-36127128D02*
X183432802Y-36031890D01*
X183432802Y-36031890D02*
X183337564Y-35984271D01*
X183337564Y-35984271D02*
X183147088Y-35936652D01*
X183147088Y-35936652D02*
X183004231Y-35936652D01*
X183004231Y-35936652D02*
X182813755Y-35984271D01*
X182813755Y-35984271D02*
X182718517Y-36031890D01*
X182718517Y-36031890D02*
X182623279Y-36127128D01*
X182623279Y-36127128D02*
X182575659Y-36269985D01*
X182575659Y-36269985D02*
X182575659Y-36508080D01*
X184242580Y-55738972D02*
X184242580Y-55167544D01*
X183242580Y-55453258D02*
X184242580Y-55453258D01*
X184242580Y-54929448D02*
X183242580Y-54262782D01*
X184242580Y-54262782D02*
X183242580Y-54929448D01*
X184092580Y-46274687D02*
X184568771Y-46608020D01*
X184092580Y-46846115D02*
X185092580Y-46846115D01*
X185092580Y-46846115D02*
X185092580Y-46465163D01*
X185092580Y-46465163D02*
X185044961Y-46369925D01*
X185044961Y-46369925D02*
X184997342Y-46322306D01*
X184997342Y-46322306D02*
X184902104Y-46274687D01*
X184902104Y-46274687D02*
X184759247Y-46274687D01*
X184759247Y-46274687D02*
X184664009Y-46322306D01*
X184664009Y-46322306D02*
X184616390Y-46369925D01*
X184616390Y-46369925D02*
X184568771Y-46465163D01*
X184568771Y-46465163D02*
X184568771Y-46846115D01*
X184140200Y-45893734D02*
X184092580Y-45750877D01*
X184092580Y-45750877D02*
X184092580Y-45512782D01*
X184092580Y-45512782D02*
X184140200Y-45417544D01*
X184140200Y-45417544D02*
X184187819Y-45369925D01*
X184187819Y-45369925D02*
X184283057Y-45322306D01*
X184283057Y-45322306D02*
X184378295Y-45322306D01*
X184378295Y-45322306D02*
X184473533Y-45369925D01*
X184473533Y-45369925D02*
X184521152Y-45417544D01*
X184521152Y-45417544D02*
X184568771Y-45512782D01*
X184568771Y-45512782D02*
X184616390Y-45703258D01*
X184616390Y-45703258D02*
X184664009Y-45798496D01*
X184664009Y-45798496D02*
X184711628Y-45846115D01*
X184711628Y-45846115D02*
X184806866Y-45893734D01*
X184806866Y-45893734D02*
X184902104Y-45893734D01*
X184902104Y-45893734D02*
X184997342Y-45846115D01*
X184997342Y-45846115D02*
X185044961Y-45798496D01*
X185044961Y-45798496D02*
X185092580Y-45703258D01*
X185092580Y-45703258D02*
X185092580Y-45465163D01*
X185092580Y-45465163D02*
X185044961Y-45322306D01*
X184759247Y-45036591D02*
X184759247Y-44655639D01*
X185092580Y-44893734D02*
X184235438Y-44893734D01*
X184235438Y-44893734D02*
X184140200Y-44846115D01*
X184140200Y-44846115D02*
X184092580Y-44750877D01*
X184092580Y-44750877D02*
X184092580Y-44655639D01*
X184092580Y-44179448D02*
X184140200Y-44274686D01*
X184140200Y-44274686D02*
X184187819Y-44322305D01*
X184187819Y-44322305D02*
X184283057Y-44369924D01*
X184283057Y-44369924D02*
X184568771Y-44369924D01*
X184568771Y-44369924D02*
X184664009Y-44322305D01*
X184664009Y-44322305D02*
X184711628Y-44274686D01*
X184711628Y-44274686D02*
X184759247Y-44179448D01*
X184759247Y-44179448D02*
X184759247Y-44036591D01*
X184759247Y-44036591D02*
X184711628Y-43941353D01*
X184711628Y-43941353D02*
X184664009Y-43893734D01*
X184664009Y-43893734D02*
X184568771Y-43846115D01*
X184568771Y-43846115D02*
X184283057Y-43846115D01*
X184283057Y-43846115D02*
X184187819Y-43893734D01*
X184187819Y-43893734D02*
X184140200Y-43941353D01*
X184140200Y-43941353D02*
X184092580Y-44036591D01*
X184092580Y-44036591D02*
X184092580Y-44179448D01*
X184759247Y-43417543D02*
X183759247Y-43417543D01*
X184711628Y-43417543D02*
X184759247Y-43322305D01*
X184759247Y-43322305D02*
X184759247Y-43131829D01*
X184759247Y-43131829D02*
X184711628Y-43036591D01*
X184711628Y-43036591D02*
X184664009Y-42988972D01*
X184664009Y-42988972D02*
X184568771Y-42941353D01*
X184568771Y-42941353D02*
X184283057Y-42941353D01*
X184283057Y-42941353D02*
X184187819Y-42988972D01*
X184187819Y-42988972D02*
X184140200Y-43036591D01*
X184140200Y-43036591D02*
X184092580Y-43131829D01*
X184092580Y-43131829D02*
X184092580Y-43322305D01*
X184092580Y-43322305D02*
X184140200Y-43417543D01*
X185742580Y-55074687D02*
X186218771Y-55408020D01*
X185742580Y-55646115D02*
X186742580Y-55646115D01*
X186742580Y-55646115D02*
X186742580Y-55265163D01*
X186742580Y-55265163D02*
X186694961Y-55169925D01*
X186694961Y-55169925D02*
X186647342Y-55122306D01*
X186647342Y-55122306D02*
X186552104Y-55074687D01*
X186552104Y-55074687D02*
X186409247Y-55074687D01*
X186409247Y-55074687D02*
X186314009Y-55122306D01*
X186314009Y-55122306D02*
X186266390Y-55169925D01*
X186266390Y-55169925D02*
X186218771Y-55265163D01*
X186218771Y-55265163D02*
X186218771Y-55646115D01*
X186742580Y-54741353D02*
X185742580Y-54074687D01*
X186742580Y-54074687D02*
X185742580Y-54741353D01*
X189144961Y-55072306D02*
X189192580Y-55167544D01*
X189192580Y-55167544D02*
X189192580Y-55310401D01*
X189192580Y-55310401D02*
X189144961Y-55453258D01*
X189144961Y-55453258D02*
X189049723Y-55548496D01*
X189049723Y-55548496D02*
X188954485Y-55596115D01*
X188954485Y-55596115D02*
X188764009Y-55643734D01*
X188764009Y-55643734D02*
X188621152Y-55643734D01*
X188621152Y-55643734D02*
X188430676Y-55596115D01*
X188430676Y-55596115D02*
X188335438Y-55548496D01*
X188335438Y-55548496D02*
X188240200Y-55453258D01*
X188240200Y-55453258D02*
X188192580Y-55310401D01*
X188192580Y-55310401D02*
X188192580Y-55215163D01*
X188192580Y-55215163D02*
X188240200Y-55072306D01*
X188240200Y-55072306D02*
X188287819Y-55024687D01*
X188287819Y-55024687D02*
X188621152Y-55024687D01*
X188621152Y-55024687D02*
X188621152Y-55215163D01*
X188192580Y-54596115D02*
X189192580Y-54596115D01*
X189192580Y-54596115D02*
X188192580Y-54024687D01*
X188192580Y-54024687D02*
X189192580Y-54024687D01*
X188192580Y-53548496D02*
X189192580Y-53548496D01*
X189192580Y-53548496D02*
X189192580Y-53310401D01*
X189192580Y-53310401D02*
X189144961Y-53167544D01*
X189144961Y-53167544D02*
X189049723Y-53072306D01*
X189049723Y-53072306D02*
X188954485Y-53024687D01*
X188954485Y-53024687D02*
X188764009Y-52977068D01*
X188764009Y-52977068D02*
X188621152Y-52977068D01*
X188621152Y-52977068D02*
X188430676Y-53024687D01*
X188430676Y-53024687D02*
X188335438Y-53072306D01*
X188335438Y-53072306D02*
X188240200Y-53167544D01*
X188240200Y-53167544D02*
X188192580Y-53310401D01*
X188192580Y-53310401D02*
X188192580Y-53548496D01*
X192542580Y-37974687D02*
X193018771Y-38308020D01*
X192542580Y-38546115D02*
X193542580Y-38546115D01*
X193542580Y-38546115D02*
X193542580Y-38165163D01*
X193542580Y-38165163D02*
X193494961Y-38069925D01*
X193494961Y-38069925D02*
X193447342Y-38022306D01*
X193447342Y-38022306D02*
X193352104Y-37974687D01*
X193352104Y-37974687D02*
X193209247Y-37974687D01*
X193209247Y-37974687D02*
X193114009Y-38022306D01*
X193114009Y-38022306D02*
X193066390Y-38069925D01*
X193066390Y-38069925D02*
X193018771Y-38165163D01*
X193018771Y-38165163D02*
X193018771Y-38546115D01*
X192542580Y-37117544D02*
X193066390Y-37117544D01*
X193066390Y-37117544D02*
X193161628Y-37165163D01*
X193161628Y-37165163D02*
X193209247Y-37260401D01*
X193209247Y-37260401D02*
X193209247Y-37450877D01*
X193209247Y-37450877D02*
X193161628Y-37546115D01*
X192590200Y-37117544D02*
X192542580Y-37212782D01*
X192542580Y-37212782D02*
X192542580Y-37450877D01*
X192542580Y-37450877D02*
X192590200Y-37546115D01*
X192590200Y-37546115D02*
X192685438Y-37593734D01*
X192685438Y-37593734D02*
X192780676Y-37593734D01*
X192780676Y-37593734D02*
X192875914Y-37546115D01*
X192875914Y-37546115D02*
X192923533Y-37450877D01*
X192923533Y-37450877D02*
X192923533Y-37212782D01*
X192923533Y-37212782D02*
X192971152Y-37117544D01*
X192542580Y-36641353D02*
X193209247Y-36641353D01*
X193542580Y-36641353D02*
X193494961Y-36688972D01*
X193494961Y-36688972D02*
X193447342Y-36641353D01*
X193447342Y-36641353D02*
X193494961Y-36593734D01*
X193494961Y-36593734D02*
X193542580Y-36641353D01*
X193542580Y-36641353D02*
X193447342Y-36641353D01*
X193209247Y-36165163D02*
X192542580Y-36165163D01*
X193114009Y-36165163D02*
X193161628Y-36117544D01*
X193161628Y-36117544D02*
X193209247Y-36022306D01*
X193209247Y-36022306D02*
X193209247Y-35879449D01*
X193209247Y-35879449D02*
X193161628Y-35784211D01*
X193161628Y-35784211D02*
X193066390Y-35736592D01*
X193066390Y-35736592D02*
X192542580Y-35736592D01*
X193594961Y-46322306D02*
X193642580Y-46417544D01*
X193642580Y-46417544D02*
X193642580Y-46560401D01*
X193642580Y-46560401D02*
X193594961Y-46703258D01*
X193594961Y-46703258D02*
X193499723Y-46798496D01*
X193499723Y-46798496D02*
X193404485Y-46846115D01*
X193404485Y-46846115D02*
X193214009Y-46893734D01*
X193214009Y-46893734D02*
X193071152Y-46893734D01*
X193071152Y-46893734D02*
X192880676Y-46846115D01*
X192880676Y-46846115D02*
X192785438Y-46798496D01*
X192785438Y-46798496D02*
X192690200Y-46703258D01*
X192690200Y-46703258D02*
X192642580Y-46560401D01*
X192642580Y-46560401D02*
X192642580Y-46465163D01*
X192642580Y-46465163D02*
X192690200Y-46322306D01*
X192690200Y-46322306D02*
X192737819Y-46274687D01*
X192737819Y-46274687D02*
X193071152Y-46274687D01*
X193071152Y-46274687D02*
X193071152Y-46465163D01*
X192642580Y-45846115D02*
X193642580Y-45846115D01*
X193642580Y-45846115D02*
X192642580Y-45274687D01*
X192642580Y-45274687D02*
X193642580Y-45274687D01*
X192642580Y-44798496D02*
X193642580Y-44798496D01*
X193642580Y-44798496D02*
X193642580Y-44560401D01*
X193642580Y-44560401D02*
X193594961Y-44417544D01*
X193594961Y-44417544D02*
X193499723Y-44322306D01*
X193499723Y-44322306D02*
X193404485Y-44274687D01*
X193404485Y-44274687D02*
X193214009Y-44227068D01*
X193214009Y-44227068D02*
X193071152Y-44227068D01*
X193071152Y-44227068D02*
X192880676Y-44274687D01*
X192880676Y-44274687D02*
X192785438Y-44322306D01*
X192785438Y-44322306D02*
X192690200Y-44417544D01*
X192690200Y-44417544D02*
X192642580Y-44560401D01*
X192642580Y-44560401D02*
X192642580Y-44798496D01*
X194590200Y-38593734D02*
X194542580Y-38450877D01*
X194542580Y-38450877D02*
X194542580Y-38212782D01*
X194542580Y-38212782D02*
X194590200Y-38117544D01*
X194590200Y-38117544D02*
X194637819Y-38069925D01*
X194637819Y-38069925D02*
X194733057Y-38022306D01*
X194733057Y-38022306D02*
X194828295Y-38022306D01*
X194828295Y-38022306D02*
X194923533Y-38069925D01*
X194923533Y-38069925D02*
X194971152Y-38117544D01*
X194971152Y-38117544D02*
X195018771Y-38212782D01*
X195018771Y-38212782D02*
X195066390Y-38403258D01*
X195066390Y-38403258D02*
X195114009Y-38498496D01*
X195114009Y-38498496D02*
X195161628Y-38546115D01*
X195161628Y-38546115D02*
X195256866Y-38593734D01*
X195256866Y-38593734D02*
X195352104Y-38593734D01*
X195352104Y-38593734D02*
X195447342Y-38546115D01*
X195447342Y-38546115D02*
X195494961Y-38498496D01*
X195494961Y-38498496D02*
X195542580Y-38403258D01*
X195542580Y-38403258D02*
X195542580Y-38165163D01*
X195542580Y-38165163D02*
X195494961Y-38022306D01*
X195209247Y-37736591D02*
X195209247Y-37355639D01*
X195542580Y-37593734D02*
X194685438Y-37593734D01*
X194685438Y-37593734D02*
X194590200Y-37546115D01*
X194590200Y-37546115D02*
X194542580Y-37450877D01*
X194542580Y-37450877D02*
X194542580Y-37355639D01*
X194542580Y-36879448D02*
X194590200Y-36974686D01*
X194590200Y-36974686D02*
X194637819Y-37022305D01*
X194637819Y-37022305D02*
X194733057Y-37069924D01*
X194733057Y-37069924D02*
X195018771Y-37069924D01*
X195018771Y-37069924D02*
X195114009Y-37022305D01*
X195114009Y-37022305D02*
X195161628Y-36974686D01*
X195161628Y-36974686D02*
X195209247Y-36879448D01*
X195209247Y-36879448D02*
X195209247Y-36736591D01*
X195209247Y-36736591D02*
X195161628Y-36641353D01*
X195161628Y-36641353D02*
X195114009Y-36593734D01*
X195114009Y-36593734D02*
X195018771Y-36546115D01*
X195018771Y-36546115D02*
X194733057Y-36546115D01*
X194733057Y-36546115D02*
X194637819Y-36593734D01*
X194637819Y-36593734D02*
X194590200Y-36641353D01*
X194590200Y-36641353D02*
X194542580Y-36736591D01*
X194542580Y-36736591D02*
X194542580Y-36879448D01*
X195209247Y-36117543D02*
X194209247Y-36117543D01*
X195161628Y-36117543D02*
X195209247Y-36022305D01*
X195209247Y-36022305D02*
X195209247Y-35831829D01*
X195209247Y-35831829D02*
X195161628Y-35736591D01*
X195161628Y-35736591D02*
X195114009Y-35688972D01*
X195114009Y-35688972D02*
X195018771Y-35641353D01*
X195018771Y-35641353D02*
X194733057Y-35641353D01*
X194733057Y-35641353D02*
X194637819Y-35688972D01*
X194637819Y-35688972D02*
X194590200Y-35736591D01*
X194590200Y-35736591D02*
X194542580Y-35831829D01*
X194542580Y-35831829D02*
X194542580Y-36022305D01*
X194542580Y-36022305D02*
X194590200Y-36117543D01*
X195447342Y-35260400D02*
X195494961Y-35212781D01*
X195494961Y-35212781D02*
X195542580Y-35117543D01*
X195542580Y-35117543D02*
X195542580Y-34879448D01*
X195542580Y-34879448D02*
X195494961Y-34784210D01*
X195494961Y-34784210D02*
X195447342Y-34736591D01*
X195447342Y-34736591D02*
X195352104Y-34688972D01*
X195352104Y-34688972D02*
X195256866Y-34688972D01*
X195256866Y-34688972D02*
X195114009Y-34736591D01*
X195114009Y-34736591D02*
X194542580Y-35308019D01*
X194542580Y-35308019D02*
X194542580Y-34688972D01*
X194792580Y-55024687D02*
X195268771Y-55358020D01*
X194792580Y-55596115D02*
X195792580Y-55596115D01*
X195792580Y-55596115D02*
X195792580Y-55215163D01*
X195792580Y-55215163D02*
X195744961Y-55119925D01*
X195744961Y-55119925D02*
X195697342Y-55072306D01*
X195697342Y-55072306D02*
X195602104Y-55024687D01*
X195602104Y-55024687D02*
X195459247Y-55024687D01*
X195459247Y-55024687D02*
X195364009Y-55072306D01*
X195364009Y-55072306D02*
X195316390Y-55119925D01*
X195316390Y-55119925D02*
X195268771Y-55215163D01*
X195268771Y-55215163D02*
X195268771Y-55596115D01*
X194792580Y-54167544D02*
X195316390Y-54167544D01*
X195316390Y-54167544D02*
X195411628Y-54215163D01*
X195411628Y-54215163D02*
X195459247Y-54310401D01*
X195459247Y-54310401D02*
X195459247Y-54500877D01*
X195459247Y-54500877D02*
X195411628Y-54596115D01*
X194840200Y-54167544D02*
X194792580Y-54262782D01*
X194792580Y-54262782D02*
X194792580Y-54500877D01*
X194792580Y-54500877D02*
X194840200Y-54596115D01*
X194840200Y-54596115D02*
X194935438Y-54643734D01*
X194935438Y-54643734D02*
X195030676Y-54643734D01*
X195030676Y-54643734D02*
X195125914Y-54596115D01*
X195125914Y-54596115D02*
X195173533Y-54500877D01*
X195173533Y-54500877D02*
X195173533Y-54262782D01*
X195173533Y-54262782D02*
X195221152Y-54167544D01*
X194792580Y-53691353D02*
X195459247Y-53691353D01*
X195792580Y-53691353D02*
X195744961Y-53738972D01*
X195744961Y-53738972D02*
X195697342Y-53691353D01*
X195697342Y-53691353D02*
X195744961Y-53643734D01*
X195744961Y-53643734D02*
X195792580Y-53691353D01*
X195792580Y-53691353D02*
X195697342Y-53691353D01*
X195459247Y-53215163D02*
X194792580Y-53215163D01*
X195364009Y-53215163D02*
X195411628Y-53167544D01*
X195411628Y-53167544D02*
X195459247Y-53072306D01*
X195459247Y-53072306D02*
X195459247Y-52929449D01*
X195459247Y-52929449D02*
X195411628Y-52834211D01*
X195411628Y-52834211D02*
X195316390Y-52786592D01*
X195316390Y-52786592D02*
X194792580Y-52786592D01*
X196640200Y-38593734D02*
X196592580Y-38450877D01*
X196592580Y-38450877D02*
X196592580Y-38212782D01*
X196592580Y-38212782D02*
X196640200Y-38117544D01*
X196640200Y-38117544D02*
X196687819Y-38069925D01*
X196687819Y-38069925D02*
X196783057Y-38022306D01*
X196783057Y-38022306D02*
X196878295Y-38022306D01*
X196878295Y-38022306D02*
X196973533Y-38069925D01*
X196973533Y-38069925D02*
X197021152Y-38117544D01*
X197021152Y-38117544D02*
X197068771Y-38212782D01*
X197068771Y-38212782D02*
X197116390Y-38403258D01*
X197116390Y-38403258D02*
X197164009Y-38498496D01*
X197164009Y-38498496D02*
X197211628Y-38546115D01*
X197211628Y-38546115D02*
X197306866Y-38593734D01*
X197306866Y-38593734D02*
X197402104Y-38593734D01*
X197402104Y-38593734D02*
X197497342Y-38546115D01*
X197497342Y-38546115D02*
X197544961Y-38498496D01*
X197544961Y-38498496D02*
X197592580Y-38403258D01*
X197592580Y-38403258D02*
X197592580Y-38165163D01*
X197592580Y-38165163D02*
X197544961Y-38022306D01*
X197259247Y-37736591D02*
X197259247Y-37355639D01*
X197592580Y-37593734D02*
X196735438Y-37593734D01*
X196735438Y-37593734D02*
X196640200Y-37546115D01*
X196640200Y-37546115D02*
X196592580Y-37450877D01*
X196592580Y-37450877D02*
X196592580Y-37355639D01*
X196592580Y-36879448D02*
X196640200Y-36974686D01*
X196640200Y-36974686D02*
X196687819Y-37022305D01*
X196687819Y-37022305D02*
X196783057Y-37069924D01*
X196783057Y-37069924D02*
X197068771Y-37069924D01*
X197068771Y-37069924D02*
X197164009Y-37022305D01*
X197164009Y-37022305D02*
X197211628Y-36974686D01*
X197211628Y-36974686D02*
X197259247Y-36879448D01*
X197259247Y-36879448D02*
X197259247Y-36736591D01*
X197259247Y-36736591D02*
X197211628Y-36641353D01*
X197211628Y-36641353D02*
X197164009Y-36593734D01*
X197164009Y-36593734D02*
X197068771Y-36546115D01*
X197068771Y-36546115D02*
X196783057Y-36546115D01*
X196783057Y-36546115D02*
X196687819Y-36593734D01*
X196687819Y-36593734D02*
X196640200Y-36641353D01*
X196640200Y-36641353D02*
X196592580Y-36736591D01*
X196592580Y-36736591D02*
X196592580Y-36879448D01*
X197259247Y-36117543D02*
X196259247Y-36117543D01*
X197211628Y-36117543D02*
X197259247Y-36022305D01*
X197259247Y-36022305D02*
X197259247Y-35831829D01*
X197259247Y-35831829D02*
X197211628Y-35736591D01*
X197211628Y-35736591D02*
X197164009Y-35688972D01*
X197164009Y-35688972D02*
X197068771Y-35641353D01*
X197068771Y-35641353D02*
X196783057Y-35641353D01*
X196783057Y-35641353D02*
X196687819Y-35688972D01*
X196687819Y-35688972D02*
X196640200Y-35736591D01*
X196640200Y-35736591D02*
X196592580Y-35831829D01*
X196592580Y-35831829D02*
X196592580Y-36022305D01*
X196592580Y-36022305D02*
X196640200Y-36117543D01*
X196592580Y-34688972D02*
X196592580Y-35260400D01*
X196592580Y-34974686D02*
X197592580Y-34974686D01*
X197592580Y-34974686D02*
X197449723Y-35069924D01*
X197449723Y-35069924D02*
X197354485Y-35165162D01*
X197354485Y-35165162D02*
X197306866Y-35260400D01*
X198244961Y-55072306D02*
X198292580Y-55167544D01*
X198292580Y-55167544D02*
X198292580Y-55310401D01*
X198292580Y-55310401D02*
X198244961Y-55453258D01*
X198244961Y-55453258D02*
X198149723Y-55548496D01*
X198149723Y-55548496D02*
X198054485Y-55596115D01*
X198054485Y-55596115D02*
X197864009Y-55643734D01*
X197864009Y-55643734D02*
X197721152Y-55643734D01*
X197721152Y-55643734D02*
X197530676Y-55596115D01*
X197530676Y-55596115D02*
X197435438Y-55548496D01*
X197435438Y-55548496D02*
X197340200Y-55453258D01*
X197340200Y-55453258D02*
X197292580Y-55310401D01*
X197292580Y-55310401D02*
X197292580Y-55215163D01*
X197292580Y-55215163D02*
X197340200Y-55072306D01*
X197340200Y-55072306D02*
X197387819Y-55024687D01*
X197387819Y-55024687D02*
X197721152Y-55024687D01*
X197721152Y-55024687D02*
X197721152Y-55215163D01*
X197292580Y-54596115D02*
X198292580Y-54596115D01*
X198292580Y-54596115D02*
X197292580Y-54024687D01*
X197292580Y-54024687D02*
X198292580Y-54024687D01*
X197292580Y-53548496D02*
X198292580Y-53548496D01*
X198292580Y-53548496D02*
X198292580Y-53310401D01*
X198292580Y-53310401D02*
X198244961Y-53167544D01*
X198244961Y-53167544D02*
X198149723Y-53072306D01*
X198149723Y-53072306D02*
X198054485Y-53024687D01*
X198054485Y-53024687D02*
X197864009Y-52977068D01*
X197864009Y-52977068D02*
X197721152Y-52977068D01*
X197721152Y-52977068D02*
X197530676Y-53024687D01*
X197530676Y-53024687D02*
X197435438Y-53072306D01*
X197435438Y-53072306D02*
X197340200Y-53167544D01*
X197340200Y-53167544D02*
X197292580Y-53310401D01*
X197292580Y-53310401D02*
X197292580Y-53548496D01*
X162092580Y-27558646D02*
X162568771Y-27891979D01*
X162092580Y-28130074D02*
X163092580Y-28130074D01*
X163092580Y-28130074D02*
X163092580Y-27749122D01*
X163092580Y-27749122D02*
X163044961Y-27653884D01*
X163044961Y-27653884D02*
X162997342Y-27606265D01*
X162997342Y-27606265D02*
X162902104Y-27558646D01*
X162902104Y-27558646D02*
X162759247Y-27558646D01*
X162759247Y-27558646D02*
X162664009Y-27606265D01*
X162664009Y-27606265D02*
X162616390Y-27653884D01*
X162616390Y-27653884D02*
X162568771Y-27749122D01*
X162568771Y-27749122D02*
X162568771Y-28130074D01*
X163092580Y-27225312D02*
X162092580Y-26558646D01*
X163092580Y-26558646D02*
X162092580Y-27225312D01*
X165642580Y-28034836D02*
X165642580Y-27463408D01*
X164642580Y-27749122D02*
X165642580Y-27749122D01*
X165642580Y-27225312D02*
X164642580Y-26558646D01*
X165642580Y-26558646D02*
X164642580Y-27225312D01*
X167192580Y-30370550D02*
X168192580Y-30370550D01*
X167716390Y-30370550D02*
X167716390Y-29799122D01*
X167192580Y-29799122D02*
X168192580Y-29799122D01*
X167192580Y-29180074D02*
X167240200Y-29275312D01*
X167240200Y-29275312D02*
X167287819Y-29322931D01*
X167287819Y-29322931D02*
X167383057Y-29370550D01*
X167383057Y-29370550D02*
X167668771Y-29370550D01*
X167668771Y-29370550D02*
X167764009Y-29322931D01*
X167764009Y-29322931D02*
X167811628Y-29275312D01*
X167811628Y-29275312D02*
X167859247Y-29180074D01*
X167859247Y-29180074D02*
X167859247Y-29037217D01*
X167859247Y-29037217D02*
X167811628Y-28941979D01*
X167811628Y-28941979D02*
X167764009Y-28894360D01*
X167764009Y-28894360D02*
X167668771Y-28846741D01*
X167668771Y-28846741D02*
X167383057Y-28846741D01*
X167383057Y-28846741D02*
X167287819Y-28894360D01*
X167287819Y-28894360D02*
X167240200Y-28941979D01*
X167240200Y-28941979D02*
X167192580Y-29037217D01*
X167192580Y-29037217D02*
X167192580Y-29180074D01*
X167192580Y-28418169D02*
X167859247Y-28418169D01*
X167764009Y-28418169D02*
X167811628Y-28370550D01*
X167811628Y-28370550D02*
X167859247Y-28275312D01*
X167859247Y-28275312D02*
X167859247Y-28132455D01*
X167859247Y-28132455D02*
X167811628Y-28037217D01*
X167811628Y-28037217D02*
X167716390Y-27989598D01*
X167716390Y-27989598D02*
X167192580Y-27989598D01*
X167716390Y-27989598D02*
X167811628Y-27941979D01*
X167811628Y-27941979D02*
X167859247Y-27846741D01*
X167859247Y-27846741D02*
X167859247Y-27703884D01*
X167859247Y-27703884D02*
X167811628Y-27608645D01*
X167811628Y-27608645D02*
X167716390Y-27561026D01*
X167716390Y-27561026D02*
X167192580Y-27561026D01*
X167240200Y-26703884D02*
X167192580Y-26799122D01*
X167192580Y-26799122D02*
X167192580Y-26989598D01*
X167192580Y-26989598D02*
X167240200Y-27084836D01*
X167240200Y-27084836D02*
X167335438Y-27132455D01*
X167335438Y-27132455D02*
X167716390Y-27132455D01*
X167716390Y-27132455D02*
X167811628Y-27084836D01*
X167811628Y-27084836D02*
X167859247Y-26989598D01*
X167859247Y-26989598D02*
X167859247Y-26799122D01*
X167859247Y-26799122D02*
X167811628Y-26703884D01*
X167811628Y-26703884D02*
X167716390Y-26656265D01*
X167716390Y-26656265D02*
X167621152Y-26656265D01*
X167621152Y-26656265D02*
X167525914Y-27132455D01*
X170694961Y-28751503D02*
X170742580Y-28846741D01*
X170742580Y-28846741D02*
X170742580Y-28989598D01*
X170742580Y-28989598D02*
X170694961Y-29132455D01*
X170694961Y-29132455D02*
X170599723Y-29227693D01*
X170599723Y-29227693D02*
X170504485Y-29275312D01*
X170504485Y-29275312D02*
X170314009Y-29322931D01*
X170314009Y-29322931D02*
X170171152Y-29322931D01*
X170171152Y-29322931D02*
X169980676Y-29275312D01*
X169980676Y-29275312D02*
X169885438Y-29227693D01*
X169885438Y-29227693D02*
X169790200Y-29132455D01*
X169790200Y-29132455D02*
X169742580Y-28989598D01*
X169742580Y-28989598D02*
X169742580Y-28894360D01*
X169742580Y-28894360D02*
X169790200Y-28751503D01*
X169790200Y-28751503D02*
X169837819Y-28703884D01*
X169837819Y-28703884D02*
X170171152Y-28703884D01*
X170171152Y-28703884D02*
X170171152Y-28894360D01*
X169742580Y-28275312D02*
X170742580Y-28275312D01*
X170742580Y-28275312D02*
X169742580Y-27703884D01*
X169742580Y-27703884D02*
X170742580Y-27703884D01*
X169742580Y-27227693D02*
X170742580Y-27227693D01*
X170742580Y-27227693D02*
X170742580Y-26989598D01*
X170742580Y-26989598D02*
X170694961Y-26846741D01*
X170694961Y-26846741D02*
X170599723Y-26751503D01*
X170599723Y-26751503D02*
X170504485Y-26703884D01*
X170504485Y-26703884D02*
X170314009Y-26656265D01*
X170314009Y-26656265D02*
X170171152Y-26656265D01*
X170171152Y-26656265D02*
X169980676Y-26703884D01*
X169980676Y-26703884D02*
X169885438Y-26751503D01*
X169885438Y-26751503D02*
X169790200Y-26846741D01*
X169790200Y-26846741D02*
X169742580Y-26989598D01*
X169742580Y-26989598D02*
X169742580Y-27227693D01*
X173292580Y-27561027D02*
X173292580Y-28037217D01*
X173292580Y-28037217D02*
X172816390Y-28084836D01*
X172816390Y-28084836D02*
X172864009Y-28037217D01*
X172864009Y-28037217D02*
X172911628Y-27941979D01*
X172911628Y-27941979D02*
X172911628Y-27703884D01*
X172911628Y-27703884D02*
X172864009Y-27608646D01*
X172864009Y-27608646D02*
X172816390Y-27561027D01*
X172816390Y-27561027D02*
X172721152Y-27513408D01*
X172721152Y-27513408D02*
X172483057Y-27513408D01*
X172483057Y-27513408D02*
X172387819Y-27561027D01*
X172387819Y-27561027D02*
X172340200Y-27608646D01*
X172340200Y-27608646D02*
X172292580Y-27703884D01*
X172292580Y-27703884D02*
X172292580Y-27941979D01*
X172292580Y-27941979D02*
X172340200Y-28037217D01*
X172340200Y-28037217D02*
X172387819Y-28084836D01*
X173292580Y-27227693D02*
X172292580Y-26894360D01*
X172292580Y-26894360D02*
X173292580Y-26561027D01*
X174190200Y-30606265D02*
X174142580Y-30463408D01*
X174142580Y-30463408D02*
X174142580Y-30225313D01*
X174142580Y-30225313D02*
X174190200Y-30130075D01*
X174190200Y-30130075D02*
X174237819Y-30082456D01*
X174237819Y-30082456D02*
X174333057Y-30034837D01*
X174333057Y-30034837D02*
X174428295Y-30034837D01*
X174428295Y-30034837D02*
X174523533Y-30082456D01*
X174523533Y-30082456D02*
X174571152Y-30130075D01*
X174571152Y-30130075D02*
X174618771Y-30225313D01*
X174618771Y-30225313D02*
X174666390Y-30415789D01*
X174666390Y-30415789D02*
X174714009Y-30511027D01*
X174714009Y-30511027D02*
X174761628Y-30558646D01*
X174761628Y-30558646D02*
X174856866Y-30606265D01*
X174856866Y-30606265D02*
X174952104Y-30606265D01*
X174952104Y-30606265D02*
X175047342Y-30558646D01*
X175047342Y-30558646D02*
X175094961Y-30511027D01*
X175094961Y-30511027D02*
X175142580Y-30415789D01*
X175142580Y-30415789D02*
X175142580Y-30177694D01*
X175142580Y-30177694D02*
X175094961Y-30034837D01*
X174190200Y-29225313D02*
X174142580Y-29320551D01*
X174142580Y-29320551D02*
X174142580Y-29511027D01*
X174142580Y-29511027D02*
X174190200Y-29606265D01*
X174190200Y-29606265D02*
X174285438Y-29653884D01*
X174285438Y-29653884D02*
X174666390Y-29653884D01*
X174666390Y-29653884D02*
X174761628Y-29606265D01*
X174761628Y-29606265D02*
X174809247Y-29511027D01*
X174809247Y-29511027D02*
X174809247Y-29320551D01*
X174809247Y-29320551D02*
X174761628Y-29225313D01*
X174761628Y-29225313D02*
X174666390Y-29177694D01*
X174666390Y-29177694D02*
X174571152Y-29177694D01*
X174571152Y-29177694D02*
X174475914Y-29653884D01*
X174809247Y-28749122D02*
X174142580Y-28749122D01*
X174714009Y-28749122D02*
X174761628Y-28701503D01*
X174761628Y-28701503D02*
X174809247Y-28606265D01*
X174809247Y-28606265D02*
X174809247Y-28463408D01*
X174809247Y-28463408D02*
X174761628Y-28368170D01*
X174761628Y-28368170D02*
X174666390Y-28320551D01*
X174666390Y-28320551D02*
X174142580Y-28320551D01*
X174190200Y-27891979D02*
X174142580Y-27796741D01*
X174142580Y-27796741D02*
X174142580Y-27606265D01*
X174142580Y-27606265D02*
X174190200Y-27511027D01*
X174190200Y-27511027D02*
X174285438Y-27463408D01*
X174285438Y-27463408D02*
X174333057Y-27463408D01*
X174333057Y-27463408D02*
X174428295Y-27511027D01*
X174428295Y-27511027D02*
X174475914Y-27606265D01*
X174475914Y-27606265D02*
X174475914Y-27749122D01*
X174475914Y-27749122D02*
X174523533Y-27844360D01*
X174523533Y-27844360D02*
X174618771Y-27891979D01*
X174618771Y-27891979D02*
X174666390Y-27891979D01*
X174666390Y-27891979D02*
X174761628Y-27844360D01*
X174761628Y-27844360D02*
X174809247Y-27749122D01*
X174809247Y-27749122D02*
X174809247Y-27606265D01*
X174809247Y-27606265D02*
X174761628Y-27511027D01*
X174190200Y-26653884D02*
X174142580Y-26749122D01*
X174142580Y-26749122D02*
X174142580Y-26939598D01*
X174142580Y-26939598D02*
X174190200Y-27034836D01*
X174190200Y-27034836D02*
X174285438Y-27082455D01*
X174285438Y-27082455D02*
X174666390Y-27082455D01*
X174666390Y-27082455D02*
X174761628Y-27034836D01*
X174761628Y-27034836D02*
X174809247Y-26939598D01*
X174809247Y-26939598D02*
X174809247Y-26749122D01*
X174809247Y-26749122D02*
X174761628Y-26653884D01*
X174761628Y-26653884D02*
X174666390Y-26606265D01*
X174666390Y-26606265D02*
X174571152Y-26606265D01*
X174571152Y-26606265D02*
X174475914Y-27082455D01*
X175442580Y-30030074D02*
X175918771Y-30363407D01*
X175442580Y-30601502D02*
X176442580Y-30601502D01*
X176442580Y-30601502D02*
X176442580Y-30220550D01*
X176442580Y-30220550D02*
X176394961Y-30125312D01*
X176394961Y-30125312D02*
X176347342Y-30077693D01*
X176347342Y-30077693D02*
X176252104Y-30030074D01*
X176252104Y-30030074D02*
X176109247Y-30030074D01*
X176109247Y-30030074D02*
X176014009Y-30077693D01*
X176014009Y-30077693D02*
X175966390Y-30125312D01*
X175966390Y-30125312D02*
X175918771Y-30220550D01*
X175918771Y-30220550D02*
X175918771Y-30601502D01*
X175442580Y-29172931D02*
X175966390Y-29172931D01*
X175966390Y-29172931D02*
X176061628Y-29220550D01*
X176061628Y-29220550D02*
X176109247Y-29315788D01*
X176109247Y-29315788D02*
X176109247Y-29506264D01*
X176109247Y-29506264D02*
X176061628Y-29601502D01*
X175490200Y-29172931D02*
X175442580Y-29268169D01*
X175442580Y-29268169D02*
X175442580Y-29506264D01*
X175442580Y-29506264D02*
X175490200Y-29601502D01*
X175490200Y-29601502D02*
X175585438Y-29649121D01*
X175585438Y-29649121D02*
X175680676Y-29649121D01*
X175680676Y-29649121D02*
X175775914Y-29601502D01*
X175775914Y-29601502D02*
X175823533Y-29506264D01*
X175823533Y-29506264D02*
X175823533Y-29268169D01*
X175823533Y-29268169D02*
X175871152Y-29172931D01*
X175442580Y-28696740D02*
X176109247Y-28696740D01*
X176442580Y-28696740D02*
X176394961Y-28744359D01*
X176394961Y-28744359D02*
X176347342Y-28696740D01*
X176347342Y-28696740D02*
X176394961Y-28649121D01*
X176394961Y-28649121D02*
X176442580Y-28696740D01*
X176442580Y-28696740D02*
X176347342Y-28696740D01*
X176109247Y-28220550D02*
X175442580Y-28220550D01*
X176014009Y-28220550D02*
X176061628Y-28172931D01*
X176061628Y-28172931D02*
X176109247Y-28077693D01*
X176109247Y-28077693D02*
X176109247Y-27934836D01*
X176109247Y-27934836D02*
X176061628Y-27839598D01*
X176061628Y-27839598D02*
X175966390Y-27791979D01*
X175966390Y-27791979D02*
X175442580Y-27791979D01*
X175823533Y-27315788D02*
X175823533Y-26553884D01*
X178294961Y-28751503D02*
X178342580Y-28846741D01*
X178342580Y-28846741D02*
X178342580Y-28989598D01*
X178342580Y-28989598D02*
X178294961Y-29132455D01*
X178294961Y-29132455D02*
X178199723Y-29227693D01*
X178199723Y-29227693D02*
X178104485Y-29275312D01*
X178104485Y-29275312D02*
X177914009Y-29322931D01*
X177914009Y-29322931D02*
X177771152Y-29322931D01*
X177771152Y-29322931D02*
X177580676Y-29275312D01*
X177580676Y-29275312D02*
X177485438Y-29227693D01*
X177485438Y-29227693D02*
X177390200Y-29132455D01*
X177390200Y-29132455D02*
X177342580Y-28989598D01*
X177342580Y-28989598D02*
X177342580Y-28894360D01*
X177342580Y-28894360D02*
X177390200Y-28751503D01*
X177390200Y-28751503D02*
X177437819Y-28703884D01*
X177437819Y-28703884D02*
X177771152Y-28703884D01*
X177771152Y-28703884D02*
X177771152Y-28894360D01*
X177342580Y-28275312D02*
X178342580Y-28275312D01*
X178342580Y-28275312D02*
X177342580Y-27703884D01*
X177342580Y-27703884D02*
X178342580Y-27703884D01*
X177342580Y-27227693D02*
X178342580Y-27227693D01*
X178342580Y-27227693D02*
X178342580Y-26989598D01*
X178342580Y-26989598D02*
X178294961Y-26846741D01*
X178294961Y-26846741D02*
X178199723Y-26751503D01*
X178199723Y-26751503D02*
X178104485Y-26703884D01*
X178104485Y-26703884D02*
X177914009Y-26656265D01*
X177914009Y-26656265D02*
X177771152Y-26656265D01*
X177771152Y-26656265D02*
X177580676Y-26703884D01*
X177580676Y-26703884D02*
X177485438Y-26751503D01*
X177485438Y-26751503D02*
X177390200Y-26846741D01*
X177390200Y-26846741D02*
X177342580Y-26989598D01*
X177342580Y-26989598D02*
X177342580Y-27227693D01*
X179892580Y-30037218D02*
X180368771Y-30370551D01*
X179892580Y-30608646D02*
X180892580Y-30608646D01*
X180892580Y-30608646D02*
X180892580Y-30227694D01*
X180892580Y-30227694D02*
X180844961Y-30132456D01*
X180844961Y-30132456D02*
X180797342Y-30084837D01*
X180797342Y-30084837D02*
X180702104Y-30037218D01*
X180702104Y-30037218D02*
X180559247Y-30037218D01*
X180559247Y-30037218D02*
X180464009Y-30084837D01*
X180464009Y-30084837D02*
X180416390Y-30132456D01*
X180416390Y-30132456D02*
X180368771Y-30227694D01*
X180368771Y-30227694D02*
X180368771Y-30608646D01*
X179892580Y-29132456D02*
X179892580Y-29608646D01*
X179892580Y-29608646D02*
X180892580Y-29608646D01*
X179892580Y-28799122D02*
X180559247Y-28799122D01*
X180892580Y-28799122D02*
X180844961Y-28846741D01*
X180844961Y-28846741D02*
X180797342Y-28799122D01*
X180797342Y-28799122D02*
X180844961Y-28751503D01*
X180844961Y-28751503D02*
X180892580Y-28799122D01*
X180892580Y-28799122D02*
X180797342Y-28799122D01*
X180559247Y-28465789D02*
X180559247Y-28084837D01*
X179892580Y-28322932D02*
X180749723Y-28322932D01*
X180749723Y-28322932D02*
X180844961Y-28275313D01*
X180844961Y-28275313D02*
X180892580Y-28180075D01*
X180892580Y-28180075D02*
X180892580Y-28084837D01*
X180559247Y-27894360D02*
X180559247Y-27513408D01*
X180892580Y-27751503D02*
X180035438Y-27751503D01*
X180035438Y-27751503D02*
X179940200Y-27703884D01*
X179940200Y-27703884D02*
X179892580Y-27608646D01*
X179892580Y-27608646D02*
X179892580Y-27513408D01*
X180797342Y-27227693D02*
X180844961Y-27180074D01*
X180844961Y-27180074D02*
X180892580Y-27084836D01*
X180892580Y-27084836D02*
X180892580Y-26846741D01*
X180892580Y-26846741D02*
X180844961Y-26751503D01*
X180844961Y-26751503D02*
X180797342Y-26703884D01*
X180797342Y-26703884D02*
X180702104Y-26656265D01*
X180702104Y-26656265D02*
X180606866Y-26656265D01*
X180606866Y-26656265D02*
X180464009Y-26703884D01*
X180464009Y-26703884D02*
X179892580Y-27275312D01*
X179892580Y-27275312D02*
X179892580Y-26656265D01*
X164561677Y-22008565D02*
X165268784Y-21301458D01*
X165268784Y-21301458D02*
X164999410Y-21032084D01*
X164999410Y-21032084D02*
X164898394Y-20998412D01*
X164898394Y-20998412D02*
X164831051Y-20998412D01*
X164831051Y-20998412D02*
X164730036Y-21032084D01*
X164730036Y-21032084D02*
X164629020Y-21133099D01*
X164629020Y-21133099D02*
X164595349Y-21234115D01*
X164595349Y-21234115D02*
X164595349Y-21301458D01*
X164595349Y-21301458D02*
X164629020Y-21402473D01*
X164629020Y-21402473D02*
X164898394Y-21671847D01*
X163753555Y-21200443D02*
X163854570Y-21234115D01*
X163854570Y-21234115D02*
X163955585Y-21200443D01*
X163955585Y-21200443D02*
X164561677Y-20594351D01*
X163181135Y-20628023D02*
X163551524Y-20257634D01*
X163551524Y-20257634D02*
X163652539Y-20223962D01*
X163652539Y-20223962D02*
X163753554Y-20257634D01*
X163753554Y-20257634D02*
X163888241Y-20392321D01*
X163888241Y-20392321D02*
X163921913Y-20493336D01*
X163214806Y-20594351D02*
X163248478Y-20695366D01*
X163248478Y-20695366D02*
X163416837Y-20863725D01*
X163416837Y-20863725D02*
X163517852Y-20897397D01*
X163517852Y-20897397D02*
X163618867Y-20863725D01*
X163618867Y-20863725D02*
X163686211Y-20796382D01*
X163686211Y-20796382D02*
X163719883Y-20695366D01*
X163719883Y-20695366D02*
X163686211Y-20594351D01*
X163686211Y-20594351D02*
X163517852Y-20425992D01*
X163517852Y-20425992D02*
X163484180Y-20324977D01*
X163383165Y-19887244D02*
X162743402Y-20190290D01*
X163046448Y-19550527D02*
X162743402Y-20190290D01*
X162743402Y-20190290D02*
X162642387Y-20425992D01*
X162642387Y-20425992D02*
X162642387Y-20493336D01*
X162642387Y-20493336D02*
X162676058Y-20594351D01*
X167179020Y-22008565D02*
X167044333Y-21941222D01*
X167044333Y-21941222D02*
X166875975Y-21772863D01*
X166875975Y-21772863D02*
X166842303Y-21671847D01*
X166842303Y-21671847D02*
X166842303Y-21604504D01*
X166842303Y-21604504D02*
X166875975Y-21503489D01*
X166875975Y-21503489D02*
X166943318Y-21436145D01*
X166943318Y-21436145D02*
X167044333Y-21402473D01*
X167044333Y-21402473D02*
X167111677Y-21402473D01*
X167111677Y-21402473D02*
X167212692Y-21436145D01*
X167212692Y-21436145D02*
X167381051Y-21537160D01*
X167381051Y-21537160D02*
X167482066Y-21570832D01*
X167482066Y-21570832D02*
X167549410Y-21570832D01*
X167549410Y-21570832D02*
X167650425Y-21537160D01*
X167650425Y-21537160D02*
X167717768Y-21469817D01*
X167717768Y-21469817D02*
X167751440Y-21368802D01*
X167751440Y-21368802D02*
X167751440Y-21301458D01*
X167751440Y-21301458D02*
X167717768Y-21200443D01*
X167717768Y-21200443D02*
X167549410Y-21032084D01*
X167549410Y-21032084D02*
X167414723Y-20964741D01*
X167010661Y-20964741D02*
X166741287Y-20695367D01*
X167145349Y-20628023D02*
X166539257Y-21234115D01*
X166539257Y-21234115D02*
X166438242Y-21267786D01*
X166438242Y-21267786D02*
X166337226Y-21234115D01*
X166337226Y-21234115D02*
X166269883Y-21166771D01*
X166505585Y-20459664D02*
X165798478Y-21166771D01*
X166471913Y-20493336D02*
X166438241Y-20392321D01*
X166438241Y-20392321D02*
X166303554Y-20257634D01*
X166303554Y-20257634D02*
X166202539Y-20223962D01*
X166202539Y-20223962D02*
X166135196Y-20223962D01*
X166135196Y-20223962D02*
X166034180Y-20257634D01*
X166034180Y-20257634D02*
X165832150Y-20459664D01*
X165832150Y-20459664D02*
X165798478Y-20560679D01*
X165798478Y-20560679D02*
X165798478Y-20628023D01*
X165798478Y-20628023D02*
X165832150Y-20729038D01*
X165832150Y-20729038D02*
X165966837Y-20863725D01*
X165966837Y-20863725D02*
X166067852Y-20897397D01*
X165024028Y-19920916D02*
X165428089Y-20324977D01*
X165226058Y-20122947D02*
X165933165Y-19415840D01*
X165933165Y-19415840D02*
X165899493Y-19584198D01*
X165899493Y-19584198D02*
X165899493Y-19718885D01*
X165899493Y-19718885D02*
X165933165Y-19819901D01*
X169964723Y-21164741D02*
X170065738Y-21198412D01*
X170065738Y-21198412D02*
X170166753Y-21299428D01*
X170166753Y-21299428D02*
X170234097Y-21434115D01*
X170234097Y-21434115D02*
X170234097Y-21568802D01*
X170234097Y-21568802D02*
X170200425Y-21669817D01*
X170200425Y-21669817D02*
X170099410Y-21838176D01*
X170099410Y-21838176D02*
X169998394Y-21939191D01*
X169998394Y-21939191D02*
X169830036Y-22040206D01*
X169830036Y-22040206D02*
X169729020Y-22073878D01*
X169729020Y-22073878D02*
X169594333Y-22073878D01*
X169594333Y-22073878D02*
X169459646Y-22006534D01*
X169459646Y-22006534D02*
X169392303Y-21939191D01*
X169392303Y-21939191D02*
X169324959Y-21804504D01*
X169324959Y-21804504D02*
X169324959Y-21737160D01*
X169324959Y-21737160D02*
X169560662Y-21501458D01*
X169560662Y-21501458D02*
X169695349Y-21636145D01*
X168954570Y-21501458D02*
X169661677Y-20794351D01*
X169661677Y-20794351D02*
X168550509Y-21097397D01*
X168550509Y-21097397D02*
X169257616Y-20390290D01*
X168213792Y-20760680D02*
X168920898Y-20053573D01*
X168920898Y-20053573D02*
X168752540Y-19885214D01*
X168752540Y-19885214D02*
X168617853Y-19817871D01*
X168617853Y-19817871D02*
X168483166Y-19817871D01*
X168483166Y-19817871D02*
X168382150Y-19851542D01*
X168382150Y-19851542D02*
X168213792Y-19952558D01*
X168213792Y-19952558D02*
X168112776Y-20053573D01*
X168112776Y-20053573D02*
X168011761Y-20221932D01*
X168011761Y-20221932D02*
X167978089Y-20322947D01*
X167978089Y-20322947D02*
X167978089Y-20457634D01*
X167978089Y-20457634D02*
X168045433Y-20592321D01*
X168045433Y-20592321D02*
X168213792Y-20760680D01*
X171757616Y-21554504D02*
X172330036Y-21453489D01*
X172161677Y-21958565D02*
X172868784Y-21251458D01*
X172868784Y-21251458D02*
X172599410Y-20982084D01*
X172599410Y-20982084D02*
X172498394Y-20948412D01*
X172498394Y-20948412D02*
X172431051Y-20948412D01*
X172431051Y-20948412D02*
X172330036Y-20982084D01*
X172330036Y-20982084D02*
X172229020Y-21083099D01*
X172229020Y-21083099D02*
X172195349Y-21184115D01*
X172195349Y-21184115D02*
X172195349Y-21251458D01*
X172195349Y-21251458D02*
X172229020Y-21352473D01*
X172229020Y-21352473D02*
X172498394Y-21621847D01*
X171117852Y-20914741D02*
X171454570Y-21251458D01*
X171454570Y-21251458D02*
X172161677Y-20544351D01*
X170882150Y-20679038D02*
X171353555Y-20207634D01*
X171589257Y-19971932D02*
X171589257Y-20039275D01*
X171589257Y-20039275D02*
X171521913Y-20039275D01*
X171521913Y-20039275D02*
X171521913Y-19971932D01*
X171521913Y-19971932D02*
X171589257Y-19971932D01*
X171589257Y-19971932D02*
X171521913Y-20039275D01*
X171117853Y-19971932D02*
X170848479Y-19702558D01*
X170545433Y-20342321D02*
X171151524Y-19736230D01*
X171151524Y-19736230D02*
X171185196Y-19635214D01*
X171185196Y-19635214D02*
X171151524Y-19534199D01*
X171151524Y-19534199D02*
X171084181Y-19466856D01*
X170713791Y-19567871D02*
X170444417Y-19298497D01*
X170848478Y-19231153D02*
X170242387Y-19837245D01*
X170242387Y-19837245D02*
X170141372Y-19870916D01*
X170141372Y-19870916D02*
X170040356Y-19837245D01*
X170040356Y-19837245D02*
X169973013Y-19769901D01*
X174374959Y-21671847D02*
X174711677Y-22008565D01*
X174711677Y-22008565D02*
X175418784Y-21301458D01*
X173802539Y-21099428D02*
X174139257Y-21436145D01*
X174139257Y-21436145D02*
X174846364Y-20729038D01*
X173566837Y-20863725D02*
X174038241Y-20392321D01*
X174273944Y-20156618D02*
X174273944Y-20223962D01*
X174273944Y-20223962D02*
X174206600Y-20223962D01*
X174206600Y-20223962D02*
X174206600Y-20156618D01*
X174206600Y-20156618D02*
X174273944Y-20156618D01*
X174273944Y-20156618D02*
X174206600Y-20223962D01*
X173802540Y-20156619D02*
X173533166Y-19887245D01*
X173230120Y-20527008D02*
X173836211Y-19920916D01*
X173836211Y-19920916D02*
X173869883Y-19819901D01*
X173869883Y-19819901D02*
X173836211Y-19718886D01*
X173836211Y-19718886D02*
X173768868Y-19651542D01*
X173398478Y-19752557D02*
X173129104Y-19483183D01*
X173533165Y-19415840D02*
X172927074Y-20021931D01*
X172927074Y-20021931D02*
X172826058Y-20055603D01*
X172826058Y-20055603D02*
X172725043Y-20021931D01*
X172725043Y-20021931D02*
X172657700Y-19954588D01*
X177329020Y-22008565D02*
X177194333Y-21941222D01*
X177194333Y-21941222D02*
X177025975Y-21772863D01*
X177025975Y-21772863D02*
X176992303Y-21671847D01*
X176992303Y-21671847D02*
X176992303Y-21604504D01*
X176992303Y-21604504D02*
X177025975Y-21503489D01*
X177025975Y-21503489D02*
X177093318Y-21436145D01*
X177093318Y-21436145D02*
X177194333Y-21402473D01*
X177194333Y-21402473D02*
X177261677Y-21402473D01*
X177261677Y-21402473D02*
X177362692Y-21436145D01*
X177362692Y-21436145D02*
X177531051Y-21537160D01*
X177531051Y-21537160D02*
X177632066Y-21570832D01*
X177632066Y-21570832D02*
X177699410Y-21570832D01*
X177699410Y-21570832D02*
X177800425Y-21537160D01*
X177800425Y-21537160D02*
X177867768Y-21469817D01*
X177867768Y-21469817D02*
X177901440Y-21368802D01*
X177901440Y-21368802D02*
X177901440Y-21301458D01*
X177901440Y-21301458D02*
X177867768Y-21200443D01*
X177867768Y-21200443D02*
X177699410Y-21032084D01*
X177699410Y-21032084D02*
X177564723Y-20964741D01*
X177160661Y-20964741D02*
X176891287Y-20695367D01*
X177295349Y-20628023D02*
X176689257Y-21234115D01*
X176689257Y-21234115D02*
X176588242Y-21267786D01*
X176588242Y-21267786D02*
X176487226Y-21234115D01*
X176487226Y-21234115D02*
X176419883Y-21166771D01*
X176655585Y-20459664D02*
X175948478Y-21166771D01*
X176621913Y-20493336D02*
X176588241Y-20392321D01*
X176588241Y-20392321D02*
X176453554Y-20257634D01*
X176453554Y-20257634D02*
X176352539Y-20223962D01*
X176352539Y-20223962D02*
X176285196Y-20223962D01*
X176285196Y-20223962D02*
X176184180Y-20257634D01*
X176184180Y-20257634D02*
X175982150Y-20459664D01*
X175982150Y-20459664D02*
X175948478Y-20560679D01*
X175948478Y-20560679D02*
X175948478Y-20628023D01*
X175948478Y-20628023D02*
X175982150Y-20729038D01*
X175982150Y-20729038D02*
X176116837Y-20863725D01*
X176116837Y-20863725D02*
X176217852Y-20897397D01*
X176217852Y-19685214D02*
X176217852Y-19617870D01*
X176217852Y-19617870D02*
X176184180Y-19516855D01*
X176184180Y-19516855D02*
X176015822Y-19348496D01*
X176015822Y-19348496D02*
X175914806Y-19314824D01*
X175914806Y-19314824D02*
X175847463Y-19314824D01*
X175847463Y-19314824D02*
X175746448Y-19348496D01*
X175746448Y-19348496D02*
X175679104Y-19415840D01*
X175679104Y-19415840D02*
X175611761Y-19550527D01*
X175611761Y-19550527D02*
X175611761Y-20358649D01*
X175611761Y-20358649D02*
X175174028Y-19920916D01*
X179474959Y-21671847D02*
X179811677Y-22008565D01*
X179811677Y-22008565D02*
X180518784Y-21301458D01*
X178902539Y-21099428D02*
X179239257Y-21436145D01*
X179239257Y-21436145D02*
X179946364Y-20729038D01*
X179239257Y-20493336D02*
X178969883Y-20223962D01*
X178666837Y-20863725D02*
X179272928Y-20257634D01*
X179272928Y-20257634D02*
X179306600Y-20156618D01*
X179306600Y-20156618D02*
X179272928Y-20055603D01*
X179272928Y-20055603D02*
X179205585Y-19988260D01*
X178835195Y-20089275D02*
X178565821Y-19819901D01*
X178969882Y-19752557D02*
X178363791Y-20358649D01*
X178363791Y-20358649D02*
X178262776Y-20392320D01*
X178262776Y-20392320D02*
X178161760Y-20358649D01*
X178161760Y-20358649D02*
X178094417Y-20291305D01*
X178532149Y-19449511D02*
X178532149Y-19382168D01*
X178532149Y-19382168D02*
X178498478Y-19281152D01*
X178498478Y-19281152D02*
X178330119Y-19112794D01*
X178330119Y-19112794D02*
X178229104Y-19079122D01*
X178229104Y-19079122D02*
X178161760Y-19079122D01*
X178161760Y-19079122D02*
X178060745Y-19112794D01*
X178060745Y-19112794D02*
X177993401Y-19180137D01*
X177993401Y-19180137D02*
X177926058Y-19314824D01*
X177926058Y-19314824D02*
X177926058Y-20122946D01*
X177926058Y-20122946D02*
X177488325Y-19685213D01*
%LPC*%
G36*
G01*
X195500000Y-121300000D02*
X195500000Y-124300000D01*
G75*
G02*
X194000000Y-125800000I-1500000J0D01*
G01*
X191000000Y-125800000D01*
G75*
G02*
X189500000Y-124300000I0J1500000D01*
G01*
X189500000Y-121300000D01*
G75*
G02*
X191000000Y-119800000I1500000J0D01*
G01*
X194000000Y-119800000D01*
G75*
G02*
X195500000Y-121300000I0J-1500000D01*
G01*
G37*
D11*
X185300000Y-122800000D03*
D12*
X99000000Y-70367678D03*
D13*
X99000000Y-65367678D03*
D12*
X99000000Y-77367679D03*
D13*
X99000000Y-82367679D03*
D14*
X174360000Y-185450000D03*
D15*
X176900000Y-185450000D03*
X179439999Y-185450000D03*
X181980000Y-185450000D03*
X184520000Y-185450000D03*
D16*
X195100000Y-48100000D03*
D17*
X193100000Y-48100000D03*
D14*
X52275000Y-178875000D03*
D15*
X49735000Y-178875000D03*
X47195000Y-178875000D03*
D18*
X31600000Y-131970000D03*
X31600000Y-120540000D03*
G36*
G01*
X41189000Y-121336000D02*
X39791000Y-121336000D01*
G75*
G02*
X39689000Y-121234000I0J102000D01*
G01*
X39689000Y-119836000D01*
G75*
G02*
X39791000Y-119734000I102000J0D01*
G01*
X41189000Y-119734000D01*
G75*
G02*
X41291000Y-119836000I0J-102000D01*
G01*
X41291000Y-121234000D01*
G75*
G02*
X41189000Y-121336000I-102000J0D01*
G01*
G37*
D19*
X37950000Y-121815000D03*
X40490000Y-123075000D03*
X37950000Y-124355000D03*
X40490000Y-125615000D03*
X37950000Y-126895000D03*
X40490000Y-128155000D03*
X37950000Y-129435001D03*
X40490000Y-130695000D03*
X37950000Y-131975000D03*
D20*
X26700000Y-119630000D03*
X26700000Y-122170000D03*
X26700000Y-130340000D03*
X26700000Y-132880000D03*
D21*
X34650000Y-118510000D03*
X34650000Y-134000000D03*
G36*
G01*
X168733333Y-40475000D02*
X168733333Y-39025000D01*
G75*
G02*
X168983333Y-38775000I250000J0D01*
G01*
X170183333Y-38775000D01*
G75*
G02*
X170433333Y-39025000I0J-250000D01*
G01*
X170433333Y-40475000D01*
G75*
G02*
X170183333Y-40725000I-250000J0D01*
G01*
X168983333Y-40725000D01*
G75*
G02*
X168733333Y-40475000I0J250000D01*
G01*
G37*
D22*
X172083333Y-39750000D03*
X174583333Y-39750000D03*
G36*
G01*
X157100000Y-49150000D02*
X157100000Y-47700000D01*
G75*
G02*
X157350000Y-47450000I250000J0D01*
G01*
X158550000Y-47450000D01*
G75*
G02*
X158800000Y-47700000I0J-250000D01*
G01*
X158800000Y-49150000D01*
G75*
G02*
X158550000Y-49400000I-250000J0D01*
G01*
X157350000Y-49400000D01*
G75*
G02*
X157100000Y-49150000I0J250000D01*
G01*
G37*
X160450000Y-48425000D03*
X162950000Y-48425000D03*
G36*
G01*
X157100000Y-40475000D02*
X157100000Y-39025000D01*
G75*
G02*
X157350000Y-38775000I250000J0D01*
G01*
X158550000Y-38775000D01*
G75*
G02*
X158800000Y-39025000I0J-250000D01*
G01*
X158800000Y-40475000D01*
G75*
G02*
X158550000Y-40725000I-250000J0D01*
G01*
X157350000Y-40725000D01*
G75*
G02*
X157100000Y-40475000I0J250000D01*
G01*
G37*
X160450000Y-39750000D03*
X162950000Y-39750000D03*
G36*
G01*
X36850000Y-26525000D02*
X36850000Y-25075000D01*
G75*
G02*
X37100000Y-24825000I250000J0D01*
G01*
X38300000Y-24825000D01*
G75*
G02*
X38550000Y-25075000I0J-250000D01*
G01*
X38550000Y-26525000D01*
G75*
G02*
X38300000Y-26775000I-250000J0D01*
G01*
X37100000Y-26775000D01*
G75*
G02*
X36850000Y-26525000I0J250000D01*
G01*
G37*
X40200000Y-25800000D03*
X42700000Y-25800000D03*
X45200000Y-25800000D03*
X47700000Y-25800000D03*
D23*
X161660000Y-132250000D03*
X154040000Y-132250000D03*
X151500000Y-132250000D03*
X138800000Y-132250000D03*
X136260000Y-132250000D03*
X133720000Y-132250000D03*
X131180000Y-132250000D03*
X128640000Y-132250000D03*
X126100000Y-132250000D03*
X165724000Y-181510000D03*
X126100000Y-181510000D03*
X128640000Y-181510000D03*
X131180000Y-181510000D03*
X133720001Y-181510000D03*
X136260000Y-181510000D03*
X138800000Y-181510000D03*
X141340000Y-181510000D03*
X143879999Y-181510000D03*
X147943999Y-181510000D03*
X150484000Y-181510000D03*
X153024000Y-181510000D03*
X155564000Y-181510000D03*
X158104000Y-181510000D03*
X160644001Y-181510000D03*
X163184000Y-181510000D03*
X148960000Y-132250000D03*
X146420000Y-132250000D03*
X159120000Y-132250000D03*
X156580000Y-132250000D03*
X170803999Y-181510000D03*
X168264000Y-181510000D03*
X143880000Y-132250000D03*
G36*
G01*
X168750000Y-57825000D02*
X168750000Y-56375000D01*
G75*
G02*
X169000000Y-56125000I250000J0D01*
G01*
X170200000Y-56125000D01*
G75*
G02*
X170450000Y-56375000I0J-250000D01*
G01*
X170450000Y-57825000D01*
G75*
G02*
X170200000Y-58075000I-250000J0D01*
G01*
X169000000Y-58075000D01*
G75*
G02*
X168750000Y-57825000I0J250000D01*
G01*
G37*
D22*
X172100000Y-57100000D03*
X174600000Y-57100000D03*
G36*
G01*
X157150000Y-57800000D02*
X157150000Y-56350000D01*
G75*
G02*
X157400000Y-56100000I250000J0D01*
G01*
X158600000Y-56100000D01*
G75*
G02*
X158850000Y-56350000I0J-250000D01*
G01*
X158850000Y-57800000D01*
G75*
G02*
X158600000Y-58050000I-250000J0D01*
G01*
X157400000Y-58050000D01*
G75*
G02*
X157150000Y-57800000I0J250000D01*
G01*
G37*
X160500000Y-57075000D03*
X163000000Y-57075000D03*
G36*
G01*
X168733333Y-49175000D02*
X168733333Y-47725000D01*
G75*
G02*
X168983333Y-47475000I250000J0D01*
G01*
X170183333Y-47475000D01*
G75*
G02*
X170433333Y-47725000I0J-250000D01*
G01*
X170433333Y-49175000D01*
G75*
G02*
X170183333Y-49425000I-250000J0D01*
G01*
X168983333Y-49425000D01*
G75*
G02*
X168733333Y-49175000I0J250000D01*
G01*
G37*
X172083333Y-48450000D03*
X174583333Y-48450000D03*
D16*
X184550000Y-48100000D03*
D17*
X182550000Y-48100000D03*
D14*
X174700000Y-120375000D03*
D15*
X174700000Y-122915000D03*
X174700000Y-125455000D03*
D24*
X23400000Y-181565000D03*
X24498350Y-178913350D03*
X24498350Y-184216650D03*
X27150000Y-177815000D03*
D25*
X27150000Y-181565000D03*
D24*
X27150000Y-185315000D03*
X29801650Y-178913350D03*
X29801650Y-184216650D03*
X30900000Y-181565000D03*
D26*
X106500000Y-107960002D03*
X106500000Y-105420002D03*
X106500000Y-100340002D03*
X106500000Y-97800002D03*
X106500000Y-95260002D03*
X106500000Y-102880002D03*
X106500000Y-72400002D03*
X132900000Y-72400002D03*
X106500000Y-69860002D03*
X132900000Y-69860002D03*
X106500000Y-92720002D03*
D27*
X109540000Y-111000002D03*
X112080000Y-111000002D03*
X117160000Y-111000002D03*
X119700000Y-111000002D03*
D26*
X132900000Y-110500002D03*
X132900000Y-107960002D03*
X132900000Y-105420002D03*
X132900000Y-102880002D03*
X106500000Y-110500002D03*
D27*
X114620000Y-111000002D03*
D26*
X132900000Y-100340002D03*
X106500000Y-90180002D03*
X106500000Y-67320002D03*
X132900000Y-67320002D03*
X106500000Y-64780002D03*
X132900000Y-64780002D03*
D27*
X126050000Y-67820002D03*
X128590000Y-67820002D03*
X126050000Y-64280002D03*
X128590000Y-64280002D03*
X118430000Y-67820002D03*
X120970000Y-67820002D03*
X118430000Y-64280002D03*
X120970000Y-64280002D03*
D26*
X106500000Y-77480002D03*
X132900000Y-77480002D03*
X106500000Y-74940002D03*
X132900000Y-74940002D03*
D27*
X110810000Y-67820002D03*
X113350000Y-67820002D03*
X110810000Y-64280002D03*
X113350000Y-64280002D03*
D28*
X122094800Y-53450000D03*
X127295000Y-53450000D03*
X137095000Y-53460000D03*
X142295200Y-53460000D03*
G36*
G01*
X97100000Y-45649999D02*
X97100000Y-42850001D01*
G75*
G02*
X97350001Y-42600000I250001J0D01*
G01*
X99549999Y-42600000D01*
G75*
G02*
X99800000Y-42850001I0J-250001D01*
G01*
X99800000Y-45649999D01*
G75*
G02*
X99549999Y-45900000I-250001J0D01*
G01*
X97350001Y-45900000D01*
G75*
G02*
X97100000Y-45649999I0J250001D01*
G01*
G37*
D29*
X102650000Y-44250000D03*
X106850000Y-44250000D03*
X111050000Y-44250000D03*
X98450000Y-49750000D03*
X102650000Y-49750000D03*
X106850000Y-49750000D03*
X111050000Y-49750000D03*
D30*
X187540000Y-100600000D03*
D31*
X187540000Y-98100000D03*
X187540000Y-96100000D03*
X187540000Y-93600000D03*
D32*
X190250000Y-103670000D03*
X190250000Y-90530000D03*
G36*
G01*
X35099999Y-169425000D02*
X35099999Y-168175000D01*
G75*
G02*
X35349999Y-167925000I250000J0D01*
G01*
X36049999Y-167925000D01*
G75*
G02*
X36299999Y-168175000I0J-250000D01*
G01*
X36299999Y-169425000D01*
G75*
G02*
X36049999Y-169675000I-250000J0D01*
G01*
X35349999Y-169675000D01*
G75*
G02*
X35099999Y-169425000I0J250000D01*
G01*
G37*
D33*
X37700000Y-168800000D03*
X39699999Y-168800000D03*
X41699999Y-168800000D03*
G36*
G01*
X148800000Y-44399999D02*
X148800000Y-41600001D01*
G75*
G02*
X149050001Y-41350000I250001J0D01*
G01*
X151249999Y-41350000D01*
G75*
G02*
X151500000Y-41600001I0J-250001D01*
G01*
X151500000Y-44399999D01*
G75*
G02*
X151249999Y-44650000I-250001J0D01*
G01*
X149050001Y-44650000D01*
G75*
G02*
X148800000Y-44399999I0J250001D01*
G01*
G37*
D29*
X150150000Y-48500000D03*
D31*
X59600000Y-116200000D03*
D34*
X59600000Y-183000000D03*
D35*
X116400000Y-138800000D03*
X116400000Y-171800000D03*
D36*
X197000000Y-39700000D03*
D37*
X195000000Y-39700000D03*
X193000000Y-39700000D03*
X191000000Y-39700000D03*
X189000000Y-39700000D03*
X187000000Y-39700000D03*
X185000000Y-39700000D03*
X183000000Y-39700000D03*
X181000000Y-39700000D03*
G36*
G01*
X47350000Y-46074999D02*
X47350000Y-43075001D01*
G75*
G02*
X47600001Y-42825000I250001J0D01*
G01*
X49799999Y-42825000D01*
G75*
G02*
X50050000Y-43075001I0J-250001D01*
G01*
X50050000Y-46074999D01*
G75*
G02*
X49799999Y-46325000I-250001J0D01*
G01*
X47600001Y-46325000D01*
G75*
G02*
X47350000Y-46074999I0J250001D01*
G01*
G37*
D38*
X52900000Y-44575000D03*
X57100000Y-44575000D03*
X61300000Y-44575000D03*
X65500000Y-44575000D03*
X69700000Y-44575000D03*
X73900000Y-44575000D03*
X78100000Y-44575000D03*
X82300000Y-44575000D03*
X86500000Y-44575000D03*
X90700000Y-44575000D03*
X48700000Y-49425000D03*
X52900000Y-49425000D03*
X57100000Y-49425000D03*
X61300000Y-49425000D03*
X65500000Y-49425000D03*
X69700000Y-49425000D03*
X73900000Y-49425000D03*
X78100000Y-49425000D03*
X82300000Y-49425000D03*
X86500000Y-49425000D03*
X90700000Y-49425000D03*
D14*
X170610000Y-63500000D03*
D39*
X173150000Y-63500000D03*
X175690000Y-63500000D03*
X178230000Y-63500000D03*
X180770000Y-63500000D03*
X183310000Y-63500000D03*
X185850000Y-63500000D03*
X188390000Y-63500000D03*
X190930000Y-63500000D03*
X193470000Y-63500000D03*
X196010000Y-63500000D03*
X198550000Y-63500000D03*
D34*
X130460000Y-123280000D03*
D40*
X128300000Y-118200000D03*
D41*
X128300000Y-120740000D03*
X128300000Y-123280000D03*
X128300000Y-125820000D03*
D12*
X57500000Y-89382325D03*
D13*
X57500000Y-94382325D03*
D42*
X162560000Y-25400000D03*
X162560000Y-22860000D03*
X165100000Y-25400000D03*
X165100000Y-22860000D03*
X167640000Y-25400000D03*
X167640000Y-22860000D03*
X170180000Y-25400000D03*
X170180000Y-22860000D03*
X172720000Y-25400000D03*
X172720000Y-22860000D03*
X175260000Y-25400000D03*
X175260000Y-22860000D03*
X177800000Y-25400000D03*
X177800000Y-22860000D03*
X180340000Y-25400000D03*
X180340000Y-22860000D03*
D34*
X115400000Y-124550000D03*
X114384000Y-116930000D03*
X116416000Y-116930000D03*
D14*
X52280000Y-182925000D03*
D15*
X52280000Y-185465000D03*
X49740000Y-182925000D03*
X49740000Y-185465000D03*
X47200001Y-182925000D03*
X47200000Y-185465000D03*
X44660000Y-182925000D03*
X44660000Y-185465000D03*
X42120000Y-182925000D03*
X42120000Y-185465000D03*
X39580000Y-182925000D03*
X39580000Y-185465000D03*
X37040000Y-182925000D03*
X37040000Y-185465000D03*
X34499999Y-182925000D03*
X34500000Y-185465000D03*
D12*
X99000000Y-89382325D03*
D13*
X99000000Y-94382325D03*
D24*
X190400000Y-181565000D03*
X191498350Y-178913350D03*
X191498350Y-184216650D03*
X194150000Y-177815000D03*
D25*
X194150000Y-181565000D03*
D24*
X194150000Y-185315000D03*
X196801650Y-178913350D03*
X196801650Y-184216650D03*
X197900000Y-181565000D03*
G36*
G01*
X194400000Y-57850001D02*
X194400000Y-56350001D01*
G75*
G02*
X194650000Y-56100001I250000J0D01*
G01*
X195850000Y-56100001D01*
G75*
G02*
X196100000Y-56350001I0J-250000D01*
G01*
X196100000Y-57850001D01*
G75*
G02*
X195850000Y-58100001I-250000J0D01*
G01*
X194650000Y-58100001D01*
G75*
G02*
X194400000Y-57850001I0J250000D01*
G01*
G37*
D43*
X197750000Y-57100001D03*
D26*
X65085001Y-107960002D03*
X65085001Y-105420002D03*
X65085001Y-100340002D03*
X65085001Y-97800002D03*
X65085001Y-95260002D03*
X65085001Y-102880002D03*
X65085001Y-72400002D03*
X91485001Y-72400002D03*
X65085001Y-69860002D03*
X91485001Y-69860002D03*
X65085001Y-92720002D03*
D27*
X68125001Y-111000002D03*
X70665001Y-111000002D03*
X75745001Y-111000002D03*
X78285001Y-111000002D03*
D26*
X91485001Y-110500002D03*
X91485001Y-107960002D03*
X91485001Y-105420002D03*
X91485001Y-102880002D03*
X65085001Y-110500002D03*
D27*
X73205001Y-111000002D03*
D26*
X91485001Y-100340002D03*
X65085001Y-90180002D03*
X65085001Y-67320002D03*
X91485001Y-67320002D03*
X65085001Y-64780002D03*
X91485001Y-64780002D03*
D27*
X84635001Y-67820002D03*
X87175001Y-67820002D03*
X84635001Y-64280002D03*
X87175001Y-64280002D03*
X77015001Y-67820002D03*
X79555001Y-67820002D03*
X77015001Y-64280002D03*
X79555001Y-64280002D03*
D26*
X65085001Y-77480002D03*
X91485001Y-77480002D03*
X65085001Y-74940002D03*
X91485001Y-74940002D03*
D27*
X69395001Y-67820002D03*
X71935001Y-67820002D03*
X69395001Y-64280002D03*
X71935001Y-64280002D03*
D12*
X174300000Y-85482323D03*
D13*
X174300000Y-90482323D03*
D12*
X57500000Y-77367679D03*
D13*
X57500000Y-82367679D03*
D26*
X23600000Y-107960002D03*
X23600000Y-105420002D03*
X23600000Y-100340002D03*
X23600000Y-97800002D03*
X23600000Y-95260002D03*
X23600000Y-102880002D03*
X23600000Y-72400002D03*
X50000000Y-72400002D03*
X23600000Y-69860002D03*
X50000000Y-69860002D03*
X23600000Y-92720002D03*
D27*
X26640000Y-111000002D03*
X29180000Y-111000002D03*
X34260000Y-111000002D03*
X36800000Y-111000002D03*
D26*
X50000000Y-110500002D03*
X50000000Y-107960002D03*
X50000000Y-105420002D03*
X50000000Y-102880002D03*
X23600000Y-110500002D03*
D27*
X31720000Y-111000002D03*
D26*
X50000000Y-100340002D03*
X23600000Y-90180002D03*
X23600000Y-67320002D03*
X50000000Y-67320002D03*
X23600000Y-64780002D03*
X50000000Y-64780002D03*
D27*
X43150000Y-67820002D03*
X45690000Y-67820002D03*
X43150000Y-64280002D03*
X45690000Y-64280002D03*
X35530000Y-67820002D03*
X38070000Y-67820002D03*
X35530000Y-64280002D03*
X38070000Y-64280002D03*
D26*
X23600000Y-77480002D03*
X50000000Y-77480002D03*
X23600000Y-74940002D03*
X50000000Y-74940002D03*
D27*
X27910000Y-67820002D03*
X30450000Y-67820002D03*
X27910000Y-64280002D03*
X30450000Y-64280002D03*
D14*
X181850000Y-83925000D03*
D15*
X181850000Y-86465000D03*
D14*
X155350000Y-33020000D03*
D39*
X157890000Y-33020000D03*
X160430000Y-33020000D03*
X162970000Y-33020000D03*
X165510000Y-33020000D03*
X168050000Y-33020000D03*
X170590000Y-33020000D03*
X173130000Y-33020000D03*
X175670000Y-33020000D03*
X178210000Y-33020000D03*
X180750000Y-33020000D03*
X183290000Y-33020000D03*
X185830000Y-33020000D03*
X188370000Y-33020000D03*
D14*
X92975000Y-186672500D03*
D15*
X95515000Y-186672500D03*
D24*
X190400000Y-29065000D03*
X191498350Y-26413350D03*
X191498350Y-31716650D03*
X194150000Y-25315000D03*
D25*
X194150000Y-29065000D03*
D24*
X194150000Y-32815000D03*
X196801650Y-26413350D03*
X196801650Y-31716650D03*
X197900000Y-29065000D03*
X157350000Y-169650000D03*
X158650000Y-166650000D03*
X158650000Y-172650000D03*
X161650000Y-165350000D03*
D25*
X161650000Y-169650000D03*
D44*
X161650000Y-169650000D03*
D24*
X161650000Y-173950000D03*
X164650000Y-166650000D03*
X164650000Y-172650000D03*
X165950000Y-169650000D03*
D18*
X31600000Y-150970000D03*
X31600000Y-139540000D03*
G36*
G01*
X41189000Y-140336000D02*
X39791000Y-140336000D01*
G75*
G02*
X39689000Y-140234000I0J102000D01*
G01*
X39689000Y-138836000D01*
G75*
G02*
X39791000Y-138734000I102000J0D01*
G01*
X41189000Y-138734000D01*
G75*
G02*
X41291000Y-138836000I0J-102000D01*
G01*
X41291000Y-140234000D01*
G75*
G02*
X41189000Y-140336000I-102000J0D01*
G01*
G37*
D19*
X37950000Y-140815000D03*
X40490000Y-142075000D03*
X37950000Y-143355000D03*
X40490000Y-144615000D03*
X37950000Y-145895000D03*
X40490000Y-147155000D03*
X37950000Y-148435001D03*
X40490000Y-149695000D03*
X37950000Y-150975000D03*
D20*
X26700000Y-138630000D03*
X26700000Y-141170000D03*
X26700000Y-149340000D03*
X26700000Y-151880000D03*
D21*
X34650000Y-137510000D03*
X34650000Y-153000000D03*
D24*
X23400000Y-29065000D03*
X24498350Y-26413350D03*
X24498350Y-31716650D03*
X27150000Y-25315000D03*
D25*
X27150000Y-29065000D03*
D24*
X27150000Y-32815000D03*
X29801650Y-26413350D03*
X29801650Y-31716650D03*
X30900000Y-29065000D03*
D12*
X152600000Y-74100000D03*
D13*
X147600000Y-74100000D03*
D45*
X193500000Y-164687499D03*
X193500000Y-133687499D03*
D11*
X192500000Y-148687499D03*
D45*
X173750000Y-133687499D03*
X173500000Y-164687499D03*
D14*
X177400000Y-134707499D03*
D15*
X179940000Y-134707499D03*
X182480000Y-134707499D03*
X185020000Y-134707499D03*
X187560000Y-134707499D03*
X190100000Y-134707499D03*
X177400000Y-132167499D03*
X179940000Y-132167499D03*
X182480000Y-132167499D03*
X185020000Y-132167499D03*
X187560000Y-132167499D03*
X190100000Y-132167499D03*
D12*
X160000000Y-85482323D03*
D13*
X160000000Y-90482323D03*
G36*
G01*
X47446000Y-34634999D02*
X47446000Y-35885001D01*
G75*
G02*
X47196001Y-36135000I-249999J0D01*
G01*
X46495999Y-36135000D01*
G75*
G02*
X46246000Y-35885001I0J249999D01*
G01*
X46246000Y-34634999D01*
G75*
G02*
X46495999Y-34385000I249999J0D01*
G01*
X47196001Y-34385000D01*
G75*
G02*
X47446000Y-34634999I0J-249999D01*
G01*
G37*
D33*
X44846000Y-35260000D03*
X42846000Y-35260000D03*
X40846000Y-35260000D03*
X38846000Y-35260000D03*
D12*
X57500000Y-70367678D03*
D13*
X57500000Y-65367678D03*
G36*
G01*
X24125000Y-170225000D02*
X24125000Y-168725000D01*
G75*
G02*
X24375000Y-168475000I250000J0D01*
G01*
X25575000Y-168475000D01*
G75*
G02*
X25825000Y-168725000I0J-250000D01*
G01*
X25825000Y-170225000D01*
G75*
G02*
X25575000Y-170475000I-250000J0D01*
G01*
X24375000Y-170475000D01*
G75*
G02*
X24125000Y-170225000I0J250000D01*
G01*
G37*
D43*
X27475000Y-169475000D03*
G36*
G01*
X180316667Y-57825000D02*
X180316667Y-56375000D01*
G75*
G02*
X180566667Y-56125000I250000J0D01*
G01*
X181766667Y-56125000D01*
G75*
G02*
X182016667Y-56375000I0J-250000D01*
G01*
X182016667Y-57825000D01*
G75*
G02*
X181766667Y-58075000I-250000J0D01*
G01*
X180566667Y-58075000D01*
G75*
G02*
X180316667Y-57825000I0J250000D01*
G01*
G37*
D22*
X183666667Y-57100000D03*
X186166667Y-57100000D03*
X188666667Y-57100000D03*
D28*
X122094800Y-44100000D03*
X127295000Y-44100000D03*
X137095000Y-44110000D03*
X142295200Y-44110000D03*
%LPD*%
M02*
