G04 #@! TF.GenerationSoftware,KiCad,Pcbnew,9.0.7+1*
G04 #@! TF.CreationDate,2026-07-10T17:56:31+00:00*
G04 #@! TF.ProjectId,hw-openmower-yardforce,68772d6f-7065-46e6-9d6f-7765722d7961,rev?*
G04 #@! TF.SameCoordinates,Original*
G04 #@! TF.FileFunction,Soldermask,Bot*
G04 #@! TF.FilePolarity,Negative*
%FSLAX46Y46*%
G04 Gerber Fmt 4.6, Leading zero omitted, Abs format (unit mm)*
G04 Created by KiCad (PCBNEW 9.0.7+1) date 2026-07-10 17:56:31*
%MOMM*%
%LPD*%
G01*
G04 APERTURE LIST*
%ADD10C,6.000000*%
%ADD11R,2.000000X2.000000*%
%ADD12C,2.000000*%
%ADD13R,1.700000X1.700000*%
%ADD14O,1.700000X1.700000*%
%ADD15R,1.500000X1.500000*%
%ADD16C,1.500000*%
%ADD17C,3.250000*%
%ADD18C,1.602000*%
%ADD19C,1.734000*%
%ADD20C,2.649000*%
%ADD21O,1.700000X1.950000*%
%ADD22O,1.727200X2.500000*%
%ADD23C,0.900000*%
%ADD24C,10.000000*%
%ADD25O,3.000000X1.700000*%
%ADD26O,1.700000X3.000000*%
%ADD27O,1.500000X2.000000*%
%ADD28C,1.600000*%
%ADD29C,3.500000*%
%ADD30O,2.700000X3.300000*%
%ADD31O,1.200000X1.750000*%
%ADD32C,1.100000*%
%ADD33O,8.400000X6.400000*%
%ADD34R,1.300000X1.300000*%
%ADD35C,1.300000*%
%ADD36O,2.700000X3.500000*%
%ADD37C,1.700000*%
%ADD38R,2.030000X1.730000*%
%ADD39O,2.030000X1.730000*%
%ADD40C,1.524000*%
%ADD41O,1.700000X2.000000*%
%ADD42C,13.000000*%
G04 APERTURE END LIST*
G36*
G01*
X195500000Y-121300000D02*
X195500000Y-124300000D01*
G75*
G02*
X194000000Y-125800000I-1500000J0D01*
G01*
X191000000Y-125800000D01*
G75*
G02*
X189500000Y-124300000I0J1500000D01*
G01*
X189500000Y-121300000D01*
G75*
G02*
X191000000Y-119800000I1500000J0D01*
G01*
X194000000Y-119800000D01*
G75*
G02*
X195500000Y-121300000I0J-1500000D01*
G01*
G37*
D10*
X185300000Y-122800000D03*
D11*
X99000000Y-70367678D03*
D12*
X99000000Y-65367678D03*
D11*
X99000000Y-77367679D03*
D12*
X99000000Y-82367679D03*
D13*
X174360000Y-185450000D03*
D14*
X176900000Y-185450000D03*
X179439999Y-185450000D03*
X181980000Y-185450000D03*
X184520000Y-185450000D03*
D15*
X195100000Y-48100000D03*
D16*
X193100000Y-48100000D03*
D13*
X52275000Y-178875000D03*
D14*
X49735000Y-178875000D03*
X47195000Y-178875000D03*
D17*
X31600000Y-131970000D03*
X31600000Y-120540000D03*
G36*
G01*
X41189000Y-121336000D02*
X39791000Y-121336000D01*
G75*
G02*
X39689000Y-121234000I0J102000D01*
G01*
X39689000Y-119836000D01*
G75*
G02*
X39791000Y-119734000I102000J0D01*
G01*
X41189000Y-119734000D01*
G75*
G02*
X41291000Y-119836000I0J-102000D01*
G01*
X41291000Y-121234000D01*
G75*
G02*
X41189000Y-121336000I-102000J0D01*
G01*
G37*
D18*
X37950000Y-121815000D03*
X40490000Y-123075000D03*
X37950000Y-124355000D03*
X40490000Y-125615000D03*
X37950000Y-126895000D03*
X40490000Y-128155000D03*
X37950000Y-129435001D03*
X40490000Y-130695000D03*
X37950000Y-131975000D03*
D19*
X26700000Y-119630000D03*
X26700000Y-122170000D03*
X26700000Y-130340000D03*
X26700000Y-132880000D03*
D20*
X34650000Y-118510000D03*
X34650000Y-134000000D03*
G36*
G01*
X168733333Y-40475000D02*
X168733333Y-39025000D01*
G75*
G02*
X168983333Y-38775000I250000J0D01*
G01*
X170183333Y-38775000D01*
G75*
G02*
X170433333Y-39025000I0J-250000D01*
G01*
X170433333Y-40475000D01*
G75*
G02*
X170183333Y-40725000I-250000J0D01*
G01*
X168983333Y-40725000D01*
G75*
G02*
X168733333Y-40475000I0J250000D01*
G01*
G37*
D21*
X172083333Y-39750000D03*
X174583333Y-39750000D03*
G36*
G01*
X157100000Y-49150000D02*
X157100000Y-47700000D01*
G75*
G02*
X157350000Y-47450000I250000J0D01*
G01*
X158550000Y-47450000D01*
G75*
G02*
X158800000Y-47700000I0J-250000D01*
G01*
X158800000Y-49150000D01*
G75*
G02*
X158550000Y-49400000I-250000J0D01*
G01*
X157350000Y-49400000D01*
G75*
G02*
X157100000Y-49150000I0J250000D01*
G01*
G37*
X160450000Y-48425000D03*
X162950000Y-48425000D03*
G36*
G01*
X157100000Y-40475000D02*
X157100000Y-39025000D01*
G75*
G02*
X157350000Y-38775000I250000J0D01*
G01*
X158550000Y-38775000D01*
G75*
G02*
X158800000Y-39025000I0J-250000D01*
G01*
X158800000Y-40475000D01*
G75*
G02*
X158550000Y-40725000I-250000J0D01*
G01*
X157350000Y-40725000D01*
G75*
G02*
X157100000Y-40475000I0J250000D01*
G01*
G37*
X160450000Y-39750000D03*
X162950000Y-39750000D03*
G36*
G01*
X36850000Y-26525000D02*
X36850000Y-25075000D01*
G75*
G02*
X37100000Y-24825000I250000J0D01*
G01*
X38300000Y-24825000D01*
G75*
G02*
X38550000Y-25075000I0J-250000D01*
G01*
X38550000Y-26525000D01*
G75*
G02*
X38300000Y-26775000I-250000J0D01*
G01*
X37100000Y-26775000D01*
G75*
G02*
X36850000Y-26525000I0J250000D01*
G01*
G37*
X40200000Y-25800000D03*
X42700000Y-25800000D03*
X45200000Y-25800000D03*
X47700000Y-25800000D03*
D22*
X161660000Y-132250000D03*
X154040000Y-132250000D03*
X151500000Y-132250000D03*
X138800000Y-132250000D03*
X136260000Y-132250000D03*
X133720000Y-132250000D03*
X131180000Y-132250000D03*
X128640000Y-132250000D03*
X126100000Y-132250000D03*
X165724000Y-181510000D03*
X126100000Y-181510000D03*
X128640000Y-181510000D03*
X131180000Y-181510000D03*
X133720001Y-181510000D03*
X136260000Y-181510000D03*
X138800000Y-181510000D03*
X141340000Y-181510000D03*
X143879999Y-181510000D03*
X147943999Y-181510000D03*
X150484000Y-181510000D03*
X153024000Y-181510000D03*
X155564000Y-181510000D03*
X158104000Y-181510000D03*
X160644001Y-181510000D03*
X163184000Y-181510000D03*
X148960000Y-132250000D03*
X146420000Y-132250000D03*
X159120000Y-132250000D03*
X156580000Y-132250000D03*
X170803999Y-181510000D03*
X168264000Y-181510000D03*
X143880000Y-132250000D03*
G36*
G01*
X168750000Y-57825000D02*
X168750000Y-56375000D01*
G75*
G02*
X169000000Y-56125000I250000J0D01*
G01*
X170200000Y-56125000D01*
G75*
G02*
X170450000Y-56375000I0J-250000D01*
G01*
X170450000Y-57825000D01*
G75*
G02*
X170200000Y-58075000I-250000J0D01*
G01*
X169000000Y-58075000D01*
G75*
G02*
X168750000Y-57825000I0J250000D01*
G01*
G37*
D21*
X172100000Y-57100000D03*
X174600000Y-57100000D03*
G36*
G01*
X157150000Y-57800000D02*
X157150000Y-56350000D01*
G75*
G02*
X157400000Y-56100000I250000J0D01*
G01*
X158600000Y-56100000D01*
G75*
G02*
X158850000Y-56350000I0J-250000D01*
G01*
X158850000Y-57800000D01*
G75*
G02*
X158600000Y-58050000I-250000J0D01*
G01*
X157400000Y-58050000D01*
G75*
G02*
X157150000Y-57800000I0J250000D01*
G01*
G37*
X160500000Y-57075000D03*
X163000000Y-57075000D03*
G36*
G01*
X168733333Y-49175000D02*
X168733333Y-47725000D01*
G75*
G02*
X168983333Y-47475000I250000J0D01*
G01*
X170183333Y-47475000D01*
G75*
G02*
X170433333Y-47725000I0J-250000D01*
G01*
X170433333Y-49175000D01*
G75*
G02*
X170183333Y-49425000I-250000J0D01*
G01*
X168983333Y-49425000D01*
G75*
G02*
X168733333Y-49175000I0J250000D01*
G01*
G37*
X172083333Y-48450000D03*
X174583333Y-48450000D03*
D15*
X184550000Y-48100000D03*
D16*
X182550000Y-48100000D03*
D13*
X174700000Y-120375000D03*
D14*
X174700000Y-122915000D03*
X174700000Y-125455000D03*
D23*
X23400000Y-181565000D03*
X24498350Y-178913350D03*
X24498350Y-184216650D03*
X27150000Y-177815000D03*
D24*
X27150000Y-181565000D03*
D23*
X27150000Y-185315000D03*
X29801650Y-178913350D03*
X29801650Y-184216650D03*
X30900000Y-181565000D03*
D25*
X106500000Y-107960002D03*
X106500000Y-105420002D03*
X106500000Y-100340002D03*
X106500000Y-97800002D03*
X106500000Y-95260002D03*
X106500000Y-102880002D03*
X106500000Y-72400002D03*
X132900000Y-72400002D03*
X106500000Y-69860002D03*
X132900000Y-69860002D03*
X106500000Y-92720002D03*
D26*
X109540000Y-111000002D03*
X112080000Y-111000002D03*
X117160000Y-111000002D03*
X119700000Y-111000002D03*
D25*
X132900000Y-110500002D03*
X132900000Y-107960002D03*
X132900000Y-105420002D03*
X132900000Y-102880002D03*
X106500000Y-110500002D03*
D26*
X114620000Y-111000002D03*
D25*
X132900000Y-100340002D03*
X106500000Y-90180002D03*
X106500000Y-67320002D03*
X132900000Y-67320002D03*
X106500000Y-64780002D03*
X132900000Y-64780002D03*
D26*
X126050000Y-67820002D03*
X128590000Y-67820002D03*
X126050000Y-64280002D03*
X128590000Y-64280002D03*
X118430000Y-67820002D03*
X120970000Y-67820002D03*
X118430000Y-64280002D03*
X120970000Y-64280002D03*
D25*
X106500000Y-77480002D03*
X132900000Y-77480002D03*
X106500000Y-74940002D03*
X132900000Y-74940002D03*
D26*
X110810000Y-67820002D03*
X113350000Y-67820002D03*
X110810000Y-64280002D03*
X113350000Y-64280002D03*
D27*
X122094800Y-53450000D03*
X127295000Y-53450000D03*
X137095000Y-53460000D03*
X142295200Y-53460000D03*
D28*
X184999901Y-100600000D03*
X184999901Y-98099900D03*
X184999901Y-96099900D03*
X184999901Y-93600000D03*
X187500001Y-100600000D03*
X187500001Y-98099900D03*
X187500001Y-96099900D03*
X187500001Y-93600000D03*
D29*
X190210001Y-90529900D03*
X184530001Y-90529900D03*
X190210001Y-103669900D03*
X184530001Y-103669900D03*
G36*
G01*
X97100000Y-45649999D02*
X97100000Y-42850001D01*
G75*
G02*
X97350001Y-42600000I250001J0D01*
G01*
X99549999Y-42600000D01*
G75*
G02*
X99800000Y-42850001I0J-250001D01*
G01*
X99800000Y-45649999D01*
G75*
G02*
X99549999Y-45900000I-250001J0D01*
G01*
X97350001Y-45900000D01*
G75*
G02*
X97100000Y-45649999I0J250001D01*
G01*
G37*
D30*
X102650000Y-44250000D03*
X106850000Y-44250000D03*
X111050000Y-44250000D03*
X98450000Y-49750000D03*
X102650000Y-49750000D03*
X106850000Y-49750000D03*
X111050000Y-49750000D03*
G36*
G01*
X35099999Y-169425000D02*
X35099999Y-168175000D01*
G75*
G02*
X35349999Y-167925000I250000J0D01*
G01*
X36049999Y-167925000D01*
G75*
G02*
X36299999Y-168175000I0J-250000D01*
G01*
X36299999Y-169425000D01*
G75*
G02*
X36049999Y-169675000I-250000J0D01*
G01*
X35349999Y-169675000D01*
G75*
G02*
X35099999Y-169425000I0J250000D01*
G01*
G37*
D31*
X37700000Y-168800000D03*
X39699999Y-168800000D03*
X41699999Y-168800000D03*
G36*
G01*
X148800000Y-44399999D02*
X148800000Y-41600001D01*
G75*
G02*
X149050001Y-41350000I250001J0D01*
G01*
X151249999Y-41350000D01*
G75*
G02*
X151500000Y-41600001I0J-250001D01*
G01*
X151500000Y-44399999D01*
G75*
G02*
X151249999Y-44650000I-250001J0D01*
G01*
X149050001Y-44650000D01*
G75*
G02*
X148800000Y-44399999I0J250001D01*
G01*
G37*
D30*
X150150000Y-48500000D03*
D28*
X59600000Y-116200000D03*
D32*
X59600000Y-183000000D03*
D33*
X116400000Y-138800000D03*
X116400000Y-171800000D03*
D34*
X197000000Y-39700000D03*
D35*
X195000000Y-39700000D03*
X193000000Y-39700000D03*
X191000000Y-39700000D03*
X189000000Y-39700000D03*
X187000000Y-39700000D03*
X185000000Y-39700000D03*
X183000000Y-39700000D03*
X181000000Y-39700000D03*
G36*
G01*
X47350000Y-46074999D02*
X47350000Y-43075001D01*
G75*
G02*
X47600001Y-42825000I250001J0D01*
G01*
X49799999Y-42825000D01*
G75*
G02*
X50050000Y-43075001I0J-250001D01*
G01*
X50050000Y-46074999D01*
G75*
G02*
X49799999Y-46325000I-250001J0D01*
G01*
X47600001Y-46325000D01*
G75*
G02*
X47350000Y-46074999I0J250001D01*
G01*
G37*
D36*
X52900000Y-44575000D03*
X57100000Y-44575000D03*
X61300000Y-44575000D03*
X65500000Y-44575000D03*
X69700000Y-44575000D03*
X73900000Y-44575000D03*
X78100000Y-44575000D03*
X82300000Y-44575000D03*
X86500000Y-44575000D03*
X90700000Y-44575000D03*
X48700000Y-49425000D03*
X52900000Y-49425000D03*
X57100000Y-49425000D03*
X61300000Y-49425000D03*
X65500000Y-49425000D03*
X69700000Y-49425000D03*
X73900000Y-49425000D03*
X78100000Y-49425000D03*
X82300000Y-49425000D03*
X86500000Y-49425000D03*
X90700000Y-49425000D03*
D13*
X170610000Y-63500000D03*
D37*
X173150000Y-63500000D03*
X175690000Y-63500000D03*
X178230000Y-63500000D03*
X180770000Y-63500000D03*
X183310000Y-63500000D03*
X185850000Y-63500000D03*
X188390000Y-63500000D03*
X190930000Y-63500000D03*
X193470000Y-63500000D03*
X196010000Y-63500000D03*
X198550000Y-63500000D03*
D32*
X130460000Y-123280000D03*
D38*
X128300000Y-118200000D03*
D39*
X128300000Y-120740000D03*
X128300000Y-123280000D03*
X128300000Y-125820000D03*
D11*
X57500000Y-89382325D03*
D12*
X57500000Y-94382325D03*
D40*
X162560000Y-25400000D03*
X162560000Y-22860000D03*
X165100000Y-25400000D03*
X165100000Y-22860000D03*
X167640000Y-25400000D03*
X167640000Y-22860000D03*
X170180000Y-25400000D03*
X170180000Y-22860000D03*
X172720000Y-25400000D03*
X172720000Y-22860000D03*
X175260000Y-25400000D03*
X175260000Y-22860000D03*
X177800000Y-25400000D03*
X177800000Y-22860000D03*
X180340000Y-25400000D03*
X180340000Y-22860000D03*
D32*
X115400000Y-124550000D03*
X114384000Y-116930000D03*
X116416000Y-116930000D03*
D13*
X52280000Y-182925000D03*
D14*
X52280000Y-185465000D03*
X49740000Y-182925000D03*
X49740000Y-185465000D03*
X47200001Y-182925000D03*
X47200000Y-185465000D03*
X44660000Y-182925000D03*
X44660000Y-185465000D03*
X42120000Y-182925000D03*
X42120000Y-185465000D03*
X39580000Y-182925000D03*
X39580000Y-185465000D03*
X37040000Y-182925000D03*
X37040000Y-185465000D03*
X34499999Y-182925000D03*
X34500000Y-185465000D03*
D11*
X99000000Y-89382325D03*
D12*
X99000000Y-94382325D03*
D23*
X190400000Y-181565000D03*
X191498350Y-178913350D03*
X191498350Y-184216650D03*
X194150000Y-177815000D03*
D24*
X194150000Y-181565000D03*
D23*
X194150000Y-185315000D03*
X196801650Y-178913350D03*
X196801650Y-184216650D03*
X197900000Y-181565000D03*
G36*
G01*
X194400000Y-57850001D02*
X194400000Y-56350001D01*
G75*
G02*
X194650000Y-56100001I250000J0D01*
G01*
X195850000Y-56100001D01*
G75*
G02*
X196100000Y-56350001I0J-250000D01*
G01*
X196100000Y-57850001D01*
G75*
G02*
X195850000Y-58100001I-250000J0D01*
G01*
X194650000Y-58100001D01*
G75*
G02*
X194400000Y-57850001I0J250000D01*
G01*
G37*
D41*
X197750000Y-57100001D03*
D25*
X65085001Y-107960002D03*
X65085001Y-105420002D03*
X65085001Y-100340002D03*
X65085001Y-97800002D03*
X65085001Y-95260002D03*
X65085001Y-102880002D03*
X65085001Y-72400002D03*
X91485001Y-72400002D03*
X65085001Y-69860002D03*
X91485001Y-69860002D03*
X65085001Y-92720002D03*
D26*
X68125001Y-111000002D03*
X70665001Y-111000002D03*
X75745001Y-111000002D03*
X78285001Y-111000002D03*
D25*
X91485001Y-110500002D03*
X91485001Y-107960002D03*
X91485001Y-105420002D03*
X91485001Y-102880002D03*
X65085001Y-110500002D03*
D26*
X73205001Y-111000002D03*
D25*
X91485001Y-100340002D03*
X65085001Y-90180002D03*
X65085001Y-67320002D03*
X91485001Y-67320002D03*
X65085001Y-64780002D03*
X91485001Y-64780002D03*
D26*
X84635001Y-67820002D03*
X87175001Y-67820002D03*
X84635001Y-64280002D03*
X87175001Y-64280002D03*
X77015001Y-67820002D03*
X79555001Y-67820002D03*
X77015001Y-64280002D03*
X79555001Y-64280002D03*
D25*
X65085001Y-77480002D03*
X91485001Y-77480002D03*
X65085001Y-74940002D03*
X91485001Y-74940002D03*
D26*
X69395001Y-67820002D03*
X71935001Y-67820002D03*
X69395001Y-64280002D03*
X71935001Y-64280002D03*
D11*
X174300000Y-85482323D03*
D12*
X174300000Y-90482323D03*
D11*
X57500000Y-77367679D03*
D12*
X57500000Y-82367679D03*
D25*
X23600000Y-107960002D03*
X23600000Y-105420002D03*
X23600000Y-100340002D03*
X23600000Y-97800002D03*
X23600000Y-95260002D03*
X23600000Y-102880002D03*
X23600000Y-72400002D03*
X50000000Y-72400002D03*
X23600000Y-69860002D03*
X50000000Y-69860002D03*
X23600000Y-92720002D03*
D26*
X26640000Y-111000002D03*
X29180000Y-111000002D03*
X34260000Y-111000002D03*
X36800000Y-111000002D03*
D25*
X50000000Y-110500002D03*
X50000000Y-107960002D03*
X50000000Y-105420002D03*
X50000000Y-102880002D03*
X23600000Y-110500002D03*
D26*
X31720000Y-111000002D03*
D25*
X50000000Y-100340002D03*
X23600000Y-90180002D03*
X23600000Y-67320002D03*
X50000000Y-67320002D03*
X23600000Y-64780002D03*
X50000000Y-64780002D03*
D26*
X43150000Y-67820002D03*
X45690000Y-67820002D03*
X43150000Y-64280002D03*
X45690000Y-64280002D03*
X35530000Y-67820002D03*
X38070000Y-67820002D03*
X35530000Y-64280002D03*
X38070000Y-64280002D03*
D25*
X23600000Y-77480002D03*
X50000000Y-77480002D03*
X23600000Y-74940002D03*
X50000000Y-74940002D03*
D26*
X27910000Y-67820002D03*
X30450000Y-67820002D03*
X27910000Y-64280002D03*
X30450000Y-64280002D03*
D13*
X181850000Y-83925000D03*
D14*
X181850000Y-86465000D03*
D13*
X155350000Y-33020000D03*
D37*
X157890000Y-33020000D03*
X160430000Y-33020000D03*
X162970000Y-33020000D03*
X165510000Y-33020000D03*
X168050000Y-33020000D03*
X170590000Y-33020000D03*
X173130000Y-33020000D03*
X175670000Y-33020000D03*
X178210000Y-33020000D03*
X180750000Y-33020000D03*
X183290000Y-33020000D03*
X185830000Y-33020000D03*
X188370000Y-33020000D03*
D13*
X92975000Y-186672500D03*
D14*
X95515000Y-186672500D03*
D23*
X190400000Y-29065000D03*
X191498350Y-26413350D03*
X191498350Y-31716650D03*
X194150000Y-25315000D03*
D24*
X194150000Y-29065000D03*
D23*
X194150000Y-32815000D03*
X196801650Y-26413350D03*
X196801650Y-31716650D03*
X197900000Y-29065000D03*
X157350000Y-169650000D03*
X158650000Y-166650000D03*
X158650000Y-172650000D03*
X161650000Y-165350000D03*
D24*
X161650000Y-169650000D03*
D42*
X161650000Y-169650000D03*
D23*
X161650000Y-173950000D03*
X164650000Y-166650000D03*
X164650000Y-172650000D03*
X165950000Y-169650000D03*
D17*
X31600000Y-150970000D03*
X31600000Y-139540000D03*
G36*
G01*
X41189000Y-140336000D02*
X39791000Y-140336000D01*
G75*
G02*
X39689000Y-140234000I0J102000D01*
G01*
X39689000Y-138836000D01*
G75*
G02*
X39791000Y-138734000I102000J0D01*
G01*
X41189000Y-138734000D01*
G75*
G02*
X41291000Y-138836000I0J-102000D01*
G01*
X41291000Y-140234000D01*
G75*
G02*
X41189000Y-140336000I-102000J0D01*
G01*
G37*
D18*
X37950000Y-140815000D03*
X40490000Y-142075000D03*
X37950000Y-143355000D03*
X40490000Y-144615000D03*
X37950000Y-145895000D03*
X40490000Y-147155000D03*
X37950000Y-148435001D03*
X40490000Y-149695000D03*
X37950000Y-150975000D03*
D19*
X26700000Y-138630000D03*
X26700000Y-141170000D03*
X26700000Y-149340000D03*
X26700000Y-151880000D03*
D20*
X34650000Y-137510000D03*
X34650000Y-153000000D03*
D23*
X23400000Y-29065000D03*
X24498350Y-26413350D03*
X24498350Y-31716650D03*
X27150000Y-25315000D03*
D24*
X27150000Y-29065000D03*
D23*
X27150000Y-32815000D03*
X29801650Y-26413350D03*
X29801650Y-31716650D03*
X30900000Y-29065000D03*
D11*
X152600000Y-74100000D03*
D12*
X147600000Y-74100000D03*
D29*
X193612500Y-164687499D03*
X193612500Y-148687499D03*
X193612500Y-133687499D03*
X173862500Y-133687499D03*
X173612500Y-164687499D03*
D13*
X177512500Y-134707499D03*
D14*
X180052500Y-134707499D03*
X182592500Y-134707499D03*
X185132500Y-134707499D03*
X187672500Y-134707499D03*
X190212500Y-134707499D03*
X177512500Y-132167499D03*
X180052500Y-132167499D03*
X182592500Y-132167499D03*
X185132500Y-132167499D03*
X187672500Y-132167499D03*
X190212500Y-132167499D03*
D11*
X160000000Y-85482323D03*
D12*
X160000000Y-90482323D03*
G36*
G01*
X47446000Y-34634999D02*
X47446000Y-35885001D01*
G75*
G02*
X47196001Y-36135000I-249999J0D01*
G01*
X46495999Y-36135000D01*
G75*
G02*
X46246000Y-35885001I0J249999D01*
G01*
X46246000Y-34634999D01*
G75*
G02*
X46495999Y-34385000I249999J0D01*
G01*
X47196001Y-34385000D01*
G75*
G02*
X47446000Y-34634999I0J-249999D01*
G01*
G37*
D31*
X44846000Y-35260000D03*
X42846000Y-35260000D03*
X40846000Y-35260000D03*
X38846000Y-35260000D03*
D11*
X57500000Y-70367678D03*
D12*
X57500000Y-65367678D03*
G36*
G01*
X24125000Y-170225000D02*
X24125000Y-168725000D01*
G75*
G02*
X24375000Y-168475000I250000J0D01*
G01*
X25575000Y-168475000D01*
G75*
G02*
X25825000Y-168725000I0J-250000D01*
G01*
X25825000Y-170225000D01*
G75*
G02*
X25575000Y-170475000I-250000J0D01*
G01*
X24375000Y-170475000D01*
G75*
G02*
X24125000Y-170225000I0J250000D01*
G01*
G37*
D41*
X27475000Y-169475000D03*
G36*
G01*
X180316667Y-57825000D02*
X180316667Y-56375000D01*
G75*
G02*
X180566667Y-56125000I250000J0D01*
G01*
X181766667Y-56125000D01*
G75*
G02*
X182016667Y-56375000I0J-250000D01*
G01*
X182016667Y-57825000D01*
G75*
G02*
X181766667Y-58075000I-250000J0D01*
G01*
X180566667Y-58075000D01*
G75*
G02*
X180316667Y-57825000I0J250000D01*
G01*
G37*
D21*
X183666667Y-57100000D03*
X186166667Y-57100000D03*
X188666667Y-57100000D03*
D27*
X122094800Y-44100000D03*
X127295000Y-44100000D03*
X137095000Y-44110000D03*
X142295200Y-44110000D03*
M02*
