<?xml version="1.0" encoding="UTF-8" standalone="no"?>
<svg
   width="18827.207"
   height="6607.6587"
   viewBox="0 0 18827.207 6607.6587"
   version="1.1"
   xml:space="preserve"
   style="clip-rule:evenodd;fill-rule:evenodd;stroke-linejoin:round;stroke-miterlimit:2"
   id="svg39"
   sodipodi:docname="logo_xtech.svg"
   inkscape:version="1.2.1 (9c6d41e410, 2022-07-14)"
   xmlns:inkscape="http://www.inkscape.org/namespaces/inkscape"
   xmlns:sodipodi="http://sodipodi.sourceforge.net/DTD/sodipodi-0.dtd"
   xmlns="http://www.w3.org/2000/svg"
   xmlns:svg="http://www.w3.org/2000/svg"
   xmlns:serif="http://www.serif.com/"><defs
   id="defs43">
            
        
                
                
            
                    
                    
                
                
                        
                        
                    <clipPath
   clipPathUnits="userSpaceOnUse"
   id="clipPath410"><g
     id="g414"><rect
       x="1604.488"
       y="75.793472"
       width="4791.0239"
       height="1848.4131"
       id="rect412"
       style="stroke-width:3.90785" /></g></clipPath>
                            
                        
                                
                                
                                
                                
                                
                                
                            
                                    
                                <clipPath
   clipPathUnits="userSpaceOnUse"
   id="clipPath534"><g
     id="g544"><g
       id="g542"
       transform="translate(6.7485001e-5,-1.1918e-5)"><g
         id="g540"
         transform="translate(-1.7672e-5,1.17105e-5)"><g
           id="g538"
           transform="translate(-89.969784,517.32622)"><rect
             x="1604.488"
             y="75.793472"
             width="4791.0239"
             height="1848.4131"
             id="rect536"
             style="stroke-width:3.90785" /></g></g></g></g></clipPath>
                                    
                                <clipPath
   clipPathUnits="userSpaceOnUse"
   id="clipPath557"><g
     id="g567"><g
       id="g565"
       transform="translate(1.6485e-5,-1.0968e-5)"><g
         id="g563"
         transform="translate(-1.7672e-5,1.17105e-5)"><g
           id="g561"
           transform="translate(-89.969784,517.32622)"><rect
             x="1604.488"
             y="75.793472"
             width="4791.0239"
             height="1848.4131"
             id="rect559"
             style="stroke-width:3.90785" /></g></g></g></g></clipPath>
                                    
                                <clipPath
   clipPathUnits="userSpaceOnUse"
   id="clipPath580"><g
     id="g590"><g
       id="g588"
       transform="translate(5.2134999e-5,1.5339e-5)"><g
         id="g586"
         transform="translate(-1.7672e-5,1.17105e-5)"><g
           id="g584"
           transform="translate(-89.969784,517.32622)"><rect
             x="1604.488"
             y="75.793472"
             width="4791.0239"
             height="1848.4131"
             id="rect582"
             style="stroke-width:3.90785" /></g></g></g></g></clipPath>
                                    
                                <clipPath
   clipPathUnits="userSpaceOnUse"
   id="clipPath603"><g
     id="g613"><g
       id="g611"
       transform="translate(-1.7672e-5,1.42105e-5)"><g
         id="g609"
         transform="translate(-1.7672e-5,1.17105e-5)"><g
           id="g607"
           transform="translate(-89.969784,517.32622)"><rect
             x="1604.488"
             y="75.793472"
             width="4791.0239"
             height="1848.4131"
             id="rect605"
             style="stroke-width:3.90785" /></g></g></g></g></clipPath>
                                    
                                <clipPath
   clipPathUnits="userSpaceOnUse"
   id="clipPath626"><g
     id="g636"><g
       id="g634"
       transform="translate(5.8435001e-5)"><g
         id="g632"
         transform="translate(-1.7672e-5,1.17105e-5)"><g
           id="g630"
           transform="translate(-89.969784,517.32622)"><rect
             x="1604.488"
             y="75.793472"
             width="4791.0239"
             height="1848.4131"
             id="rect628"
             style="stroke-width:3.90785" /></g></g></g></g></clipPath>
                                    
                                <clipPath
   clipPathUnits="userSpaceOnUse"
   id="clipPath649"><g
     id="g659"><g
       id="g657"
       transform="translate(6.3785e-5)"><g
         id="g655"
         transform="translate(-1.7672e-5,1.17105e-5)"><g
           id="g653"
           transform="translate(-89.969784,517.32622)"><rect
             x="1604.488"
             y="75.793472"
             width="4791.0239"
             height="1848.4131"
             id="rect651"
             style="stroke-width:3.90785" /></g></g></g></g></clipPath></defs><sodipodi:namedview
   id="namedview41"
   pagecolor="#ffffff"
   bordercolor="#000000"
   borderopacity="0.25"
   inkscape:showpageshadow="2"
   inkscape:pageopacity="0.0"
   inkscape:pagecheckerboard="0"
   inkscape:deskcolor="#d1d1d1"
   showgrid="false"
   inkscape:zoom="0.042680965"
   inkscape:cx="-2096.9535"
   inkscape:cy="374.87437"
   inkscape:window-width="3840"
   inkscape:window-height="2054"
   inkscape:window-x="-11"
   inkscape:window-y="-11"
   inkscape:window-maximized="1"
   inkscape:current-layer="Ebene-1" />
    <g
   id="Ebene-1"
   serif:id="Ebene 1"
   transform="matrix(4.16667,0,0,4.16667,-7182.7634,-628.54425)">
        
                        <g
   id="g667"
   transform="translate(73.100444,-573.55733)"><rect
     x="3288.7642"
     y="1543.2626"
     width="458.85583"
     height="100.33796"
     id="rect6"
     style="stroke-width:3.90785"
     clip-path="url(#clipPath603)" /><path
     d="m 4120.7845,1920.9485 c -54.874,0 -98.4739,-13.3336 -130.7801,-40.0203 -32.3257,-26.675 -48.4808,-74.2218 -48.4808,-142.6209 v -276.2186 h -95.8283 v -100.3418 h 95.8283 l 14.6584,-142.0543 h 104.8476 v 142.0543 h 157.8419 v 100.3418 h -157.8419 v 276.2186 c 0,30.8251 6.573,52.0525 19.7346,63.6979 13.1382,11.665 35.878,17.4759 68.2037,17.4759 h 64.2646 v 101.4674 z"
     style="fill-rule:nonzero;stroke-width:3.90785"
     id="path10"
     clip-path="url(#clipPath580)" /><path
     d="m 4588.6753,1446.3049 c -39.8483,0 -75.1714,11.8369 -105.9848,35.5106 -30.8212,23.6777 -49.5984,59.1922 -56.3668,106.5437 h 315.68 c -2.2587,-43.5843 -17.6713,-78.1649 -46.2299,-103.7222 -28.5703,-25.5417 -64.2567,-38.3321 -107.0985,-38.3321 m 0,488.1725 c -54.8779,0 -103.5502,-12.2276 -146.0051,-36.6439 -42.4744,-24.4162 -75.7263,-58.4341 -99.7752,-102.0261 -24.0646,-43.5843 -36.0773,-94.3199 -36.0773,-152.2069 0,-58.6255 11.8408,-110.0997 35.5146,-154.4538 23.6737,-44.3424 56.7419,-78.923 99.2085,-103.7222 42.4549,-24.8031 91.8892,-37.2066 148.2561,-37.2066 54.8584,0 102.5966,12.2237 143.1875,36.64 40.583,24.4358 72.1545,56.9334 94.6989,97.5243 22.5522,40.5869 33.8225,85.3122 33.8225,134.1643 0,7.5226 -0.1915,15.604 -0.5628,24.2365 -0.3869,8.648 -0.9535,18.2379 -1.6882,28.75 h -435.1899 c 3.7555,54.1198 21.5987,95.2695 53.5571,123.4529 31.9389,28.1834 68.9462,42.279 111.0533,42.279 33.8224,0 62.1817,-7.7023 85.1208,-23.111 22.9117,-15.4008 40.0203,-36.257 51.2905,-62.5764 h 119.5099 c -15.0413,52.6192 -44.9247,96.5903 -89.6266,131.9095 -44.7331,35.3387 -100.166,52.9904 -166.2946,52.9904"
     style="fill-rule:nonzero;stroke-width:3.90785"
     id="path14"
     clip-path="url(#clipPath649)" /><path
     d="m 5250.4736,1934.4736 c -54.874,0 -103.9175,-12.3997 -147.1266,-37.2028 -43.2365,-24.8031 -77.0589,-59.1883 -101.4674,-103.1555 -24.4358,-43.9711 -36.6439,-94.8826 -36.6439,-152.7657 0,-57.8713 12.2081,-108.8023 36.6439,-152.7695 24.4085,-43.9712 58.2309,-78.3563 101.4674,-103.1595 43.2091,-24.8031 92.2526,-37.2027 147.1266,-37.2027 69.1416,0 127.2083,18.0386 174.1807,54.1159 46.9723,36.0773 77.2347,84.941 90.7598,146.5639 H 5390.273 c -7.5226,-30.8134 -24.0645,-54.8584 -49.6101,-72.1545 -25.5574,-17.2844 -55.6244,-25.9325 -90.1893,-25.9325 -29.3128,0 -56.3746,7.3311 -81.1739,21.9856 -24.8031,14.6583 -44.7292,36.0772 -59.7549,64.2606 -15.0413,28.1874 -22.5444,62.9594 -22.5444,104.2927 0,41.3412 7.5031,76.0937 22.5444,104.2849 15.0257,28.1834 34.9518,49.7938 59.7549,64.8273 24.7993,15.0414 51.8611,22.5444 81.1739,22.5444 34.5649,0 64.6319,-8.6324 90.1893,-25.9325 25.5456,-17.2766 42.0875,-41.7124 49.6101,-73.2761 h 125.1411 c -12.7865,60.134 -42.8418,108.6148 -90.1893,145.4346 -47.3514,36.8354 -105.6096,55.2414 -174.7512,55.2414"
     style="fill-rule:nonzero;stroke-width:3.90785"
     id="path18"
     clip-path="url(#clipPath626)" /><path
     d="m 5645.0375,1920.9485 v -811.7464 h 119.5099 v 342.738 c 18.7811,-32.3062 44.9012,-57.676 78.3524,-76.0976 33.4355,-18.4138 70.4663,-27.6246 111.0572,-27.6246 66.8828,0 119.502,21.0516 157.8341,63.1353 38.3321,42.1031 57.4962,104.8515 57.4962,188.2802 v 321.3151 h -118.3727 v -308.9116 c 0,-108.2318 -43.2286,-162.3516 -129.6546,-162.3516 -45.0966,0 -82.4987,15.7877 -112.1827,47.3553 -29.6996,31.5676 -44.5299,76.6603 -44.5299,135.2858 v 288.6221 z"
     style="fill-rule:nonzero;stroke-width:3.90785"
     id="path22"
     clip-path="url(#clipPath534)" /><path
     d="m 2897.2718,1626.7617 398.7453,610.7266 h -570.4719 l -184.9546,-283.2918 -184.9624,283.2918 h -325.1058 l 244.1781,-373.9852 h 457.5819 c 12.5676,20.8445 35.3543,34.8307 61.4705,34.8307 39.6529,0 71.7989,-32.146 71.7989,-71.8028 0,-39.6569 -32.146,-71.8029 -71.7989,-71.8029 -26.6125,0 -49.7861,14.5138 -62.1896,36.0187 h -496.25 l -291.682,446.7415 h -158.475 l 322.5227,-493.9835 v 0 l 280.9158,-430.2543 h 167.5373 c 12.4895,21.1727 35.4677,35.4207 61.83,35.4207 39.653,0 71.799,-32.1459 71.799,-71.8028 0,-39.6529 -32.146,-71.7989 -71.799,-71.7989 -26.3623,0 -49.3444,14.248 -61.83,35.4246 h -206.9206 l -137.3023,210.2893 v 0 l -43.4436,66.5428 -517.7003,792.9184 h 744.2501 l 145.5791,-222.9624 145.5713,222.9624 H 3430.412 L 2940.7154,1560.2188 Z M 2183.9016,1407.8908 1785.1563,797.16419 h 570.4719 l 184.9624,283.29181 184.9546,-283.29181 h 570.4719 l -470.1964,720.16201 v 0 l -47.1912,72.2796 h -287.016 c -12.4856,-21.1766 -35.4676,-35.4285 -61.8261,-35.4285 -39.6568,0 -71.8028,32.1498 -71.8028,71.8028 0,39.6569 32.146,71.8028 71.8028,71.8028 26.3585,0 49.3366,-14.248 61.8261,-35.4207 h 326.3993 l 51.2514,-78.4931 94.5505,-144.821 v 0 l 19.8089,-30.3445 446.7806,-684.29577 H 2686.1619 L 2540.5906,947.37412 2395.0115,724.40783 h -744.2501 l 489.6927,750.02587 z"
     style="fill:#008111;fill-rule:nonzero;stroke-width:3.90785"
     id="path26"
     clip-path="url(#clipPath557)" /></g>
                    
    </g>
</svg>
